SplineFontDB: 3.2
FontName: GameOfLifeDigits
FullName: GameOfLifeDigits
FamilyName: GameOfLifeDigits
Weight: Regular
Copyright: Copyright (c) 2025, Alex Vanyo
UComments: "2025-5-11: Created with FontForge (http://fontforge.org)"
Version: 001.000
ItalicAngle: 0
UnderlinePosition: -9
UnderlineWidth: 4
Ascent: 70
Descent: 0
InvalidEm: 0
LayerCount: 2
Layer: 0 0 "Back" 1
Layer: 1 0 "Fore" 0
XUID: [1021 274 170034612 13146481]
StyleMap: 0x0000
FSType: 0
OS2Version: 0
OS2_WeightWidthSlopeOnly: 0
OS2_UseTypoMetrics: 1
CreationTime: 1747017898
ModificationTime: 1757554175
OS2TypoAscent: 0
OS2TypoAOffset: 1
OS2TypoDescent: 0
OS2TypoDOffset: 1
OS2TypoLinegap: 6
OS2WinAscent: 0
OS2WinAOffset: 1
OS2WinDescent: 0
OS2WinDOffset: 1
HheadAscent: 0
HheadAOffset: 1
HheadDescent: 0
HheadDOffset: 1
Lookup: 4 0 0 "'liga' Standard Ligatures in Latin lookup 0" { "'liga' Standard Ligatures in Latin lookup 0-1"  } ['liga' ('DFLT' <'dflt' > 'latn' <'dflt' > ) ]
MarkAttachClasses: 1
DEI: 91125
Encoding: Custom
UnicodeInterp: none
NameList: AGL For New Fonts
DisplaySize: -48
AntiAlias: 1
FitToEm: 0
WinInfo: 0 69 19
BeginPrivate: 0
EndPrivate
BeginChars: 556 311

StartChar: zero
Encoding: 48 48 0
Width: 70
Flags: W
LayerCount: 2
Fore
SplineSet
10 62 m 1
 20 62 l 1
 20 72 l 1
 10 72 l 1
 10 62 l 1
25 67 m 1
 35 67 l 1
 35 72 l 1
 25 72 l 1
 25 67 l 1
25 62 m 1
 30 62 l 1
 30 67 l 1
 25 67 l 1
 25 62 l 1
35 62 m 1
 45 62 l 1
 45 67 l 1
 35 67 l 1
 35 62 l 1
40 67 m 1
 45 67 l 1
 45 72 l 1
 40 72 l 1
 40 67 l 1
50 62 m 1
 60 62 l 1
 60 72 l 1
 50 72 l 1
 50 62 l 1
50 42 m 1
 60 42 l 1
 60 52 l 1
 50 52 l 1
 50 42 l 1
50 22 m 1
 60 22 l 1
 60 32 l 1
 50 32 l 1
 50 22 l 1
50 2 m 1
 60 2 l 1
 60 12 l 1
 50 12 l 1
 50 2 l 1
50 -18 m 1
 60 -18 l 1
 60 -8 l 1
 50 -8 l 1
 50 -18 l 1
10 -18 m 1
 20 -18 l 1
 20 -8 l 1
 10 -8 l 1
 10 -18 l 1
25 -13 m 1
 35 -13 l 1
 35 -8 l 1
 25 -8 l 1
 25 -13 l 1
25 -18 m 1
 30 -18 l 1
 30 -13 l 1
 25 -13 l 1
 25 -18 l 1
35 -18 m 1
 45 -18 l 1
 45 -13 l 1
 35 -13 l 1
 35 -18 l 1
40 -13 m 1
 45 -13 l 1
 45 -8 l 1
 40 -8 l 1
 40 -13 l 1
10 22 m 1
 20 22 l 1
 20 32 l 1
 10 32 l 1
 10 22 l 1
10 2 m 1
 20 2 l 1
 20 12 l 1
 10 12 l 5
 10 2 l 1
10 42 m 1
 20 42 l 1
 20 52 l 1
 10 52 l 1
 10 42 l 1
EndSplineSet
EndChar

StartChar: one
Encoding: 49 49 1
Width: 70
Flags: W
VStem: 50 10
LayerCount: 2
Fore
SplineSet
50 62 m 1
 60 62 l 1
 60 72 l 1
 50 72 l 1
 50 62 l 1
50 42 m 5
 60 42 l 1
 60 52 l 1
 50 52 l 1
 50 42 l 5
50 22 m 1
 60 22 l 1
 60 32 l 1
 50 32 l 1
 50 22 l 1
50 2 m 1
 60 2 l 1
 60 12 l 1
 50 12 l 1
 50 2 l 1
50 -18 m 1
 60 -18 l 1
 60 -8 l 1
 50 -8 l 1
 50 -18 l 1
EndSplineSet
EndChar

StartChar: two
Encoding: 50 50 2
Width: 70
Flags: W
LayerCount: 2
Fore
SplineSet
10 62 m 1
 20 62 l 1
 20 72 l 1
 10 72 l 1
 10 62 l 1
25 67 m 1
 35 67 l 1
 35 72 l 1
 25 72 l 1
 25 67 l 1
25 62 m 1
 30 62 l 1
 30 67 l 1
 25 67 l 1
 25 62 l 1
35 62 m 1
 45 62 l 1
 45 67 l 1
 35 67 l 1
 35 62 l 1
40 67 m 1
 45 67 l 1
 45 72 l 1
 40 72 l 1
 40 67 l 1
50 62 m 1
 60 62 l 1
 60 72 l 1
 50 72 l 1
 50 62 l 1
50 42 m 1
 60 42 l 1
 60 52 l 1
 50 52 l 1
 50 42 l 1
50 22 m 1
 60 22 l 1
 60 32 l 1
 50 32 l 1
 50 22 l 1
10 -18 m 1
 20 -18 l 1
 20 -8 l 1
 10 -8 l 1
 10 -18 l 1
25 -13 m 1
 35 -13 l 1
 35 -8 l 1
 25 -8 l 1
 25 -13 l 1
25 -18 m 1
 30 -18 l 1
 30 -13 l 1
 25 -13 l 1
 25 -18 l 1
35 -18 m 1
 45 -18 l 1
 45 -13 l 1
 35 -13 l 1
 35 -18 l 1
40 -13 m 1
 45 -13 l 1
 45 -8 l 1
 40 -8 l 1
 40 -13 l 1
50 -18 m 1
 60 -18 l 1
 60 -8 l 1
 50 -8 l 1
 50 -18 l 1
10 22 m 1
 20 22 l 1
 20 32 l 1
 10 32 l 1
 10 22 l 1
10 2 m 1
 20 2 l 1
 20 12 l 1
 10 12 l 1
 10 2 l 1
25 27 m 1
 35 27 l 1
 35 32 l 1
 25 32 l 1
 25 27 l 1
25 22 m 1
 30 22 l 1
 30 27 l 1
 25 27 l 1
 25 22 l 1
35 22 m 1
 45 22 l 1
 45 27 l 1
 35 27 l 1
 35 22 l 1
40 27 m 1
 45 27 l 1
 45 32 l 1
 40 32 l 1
 40 27 l 1
EndSplineSet
EndChar

StartChar: colon
Encoding: 58 58 3
Width: 10
Flags: W
VStem: 0 10
LayerCount: 2
Fore
SplineSet
0 32 m 1
 10 32 l 1
 10 42 l 1
 0 42 l 1
 0 32 l 1
0 12 m 1
 10 12 l 1
 10 22 l 1
 0 22 l 1
 0 12 l 1
EndSplineSet
EndChar

StartChar: three
Encoding: 51 51 4
Width: 70
Flags: W
LayerCount: 2
Fore
SplineSet
10 62 m 1
 20 62 l 1
 20 72 l 1
 10 72 l 1
 10 62 l 1
25 67 m 1
 35 67 l 1
 35 72 l 1
 25 72 l 1
 25 67 l 1
25 62 m 1
 30 62 l 1
 30 67 l 1
 25 67 l 1
 25 62 l 1
35 62 m 1
 45 62 l 1
 45 67 l 1
 35 67 l 1
 35 62 l 1
40 67 m 1
 45 67 l 1
 45 72 l 1
 40 72 l 1
 40 67 l 1
50 62 m 1
 60 62 l 1
 60 72 l 1
 50 72 l 1
 50 62 l 1
50 42 m 1
 60 42 l 1
 60 52 l 1
 50 52 l 1
 50 42 l 1
50 22 m 1
 60 22 l 1
 60 32 l 1
 50 32 l 1
 50 22 l 1
50 2 m 1
 60 2 l 1
 60 12 l 1
 50 12 l 1
 50 2 l 1
50 -18 m 1
 60 -18 l 1
 60 -8 l 1
 50 -8 l 1
 50 -18 l 1
10 -18 m 1
 20 -18 l 1
 20 -8 l 1
 10 -8 l 1
 10 -18 l 1
25 -13 m 1
 35 -13 l 1
 35 -8 l 1
 25 -8 l 1
 25 -13 l 1
25 -18 m 1
 30 -18 l 1
 30 -13 l 1
 25 -13 l 1
 25 -18 l 1
35 -18 m 1
 45 -18 l 1
 45 -13 l 1
 35 -13 l 1
 35 -18 l 1
40 -13 m 1
 45 -13 l 1
 45 -8 l 1
 40 -8 l 1
 40 -13 l 1
10 22 m 1
 20 22 l 1
 20 32 l 1
 10 32 l 1
 10 22 l 1
25 27 m 1
 35 27 l 1
 35 32 l 1
 25 32 l 1
 25 27 l 1
25 22 m 1
 30 22 l 1
 30 27 l 1
 25 27 l 1
 25 22 l 1
35 22 m 1
 45 22 l 1
 45 27 l 1
 35 27 l 1
 35 22 l 1
40 27 m 1
 45 27 l 1
 45 32 l 1
 40 32 l 1
 40 27 l 1
EndSplineSet
EndChar

StartChar: four
Encoding: 52 52 5
Width: 70
Flags: W
LayerCount: 2
Fore
SplineSet
50 62 m 1
 60 62 l 1
 60 72 l 1
 50 72 l 1
 50 62 l 1
50 42 m 1
 60 42 l 1
 60 52 l 1
 50 52 l 1
 50 42 l 1
50 22 m 1
 60 22 l 1
 60 32 l 1
 50 32 l 1
 50 22 l 1
50 2 m 1
 60 2 l 1
 60 12 l 1
 50 12 l 1
 50 2 l 1
50 -18 m 1
 60 -18 l 1
 60 -8 l 1
 50 -8 l 1
 50 -18 l 1
10 62 m 1
 20 62 l 1
 20 72 l 1
 10 72 l 1
 10 62 l 1
10 42 m 1
 20 42 l 1
 20 52 l 1
 10 52 l 1
 10 42 l 1
10 22 m 1
 20 22 l 1
 20 32 l 1
 10 32 l 1
 10 22 l 1
25 27 m 1
 35 27 l 1
 35 32 l 1
 25 32 l 1
 25 27 l 1
25 22 m 1
 30 22 l 1
 30 27 l 1
 25 27 l 1
 25 22 l 1
35 22 m 1
 45 22 l 1
 45 27 l 1
 35 27 l 1
 35 22 l 1
40 27 m 1
 45 27 l 1
 45 32 l 1
 40 32 l 1
 40 27 l 1
EndSplineSet
EndChar

StartChar: five
Encoding: 53 53 6
Width: 70
Flags: W
LayerCount: 2
Fore
SplineSet
10 62 m 1
 20 62 l 1
 20 72 l 1
 10 72 l 1
 10 62 l 1
25 67 m 1
 35 67 l 1
 35 72 l 1
 25 72 l 1
 25 67 l 1
25 62 m 1
 30 62 l 1
 30 67 l 1
 25 67 l 1
 25 62 l 1
35 62 m 1
 45 62 l 1
 45 67 l 1
 35 67 l 1
 35 62 l 1
40 67 m 1
 45 67 l 1
 45 72 l 1
 40 72 l 1
 40 67 l 1
50 62 m 1
 60 62 l 1
 60 72 l 1
 50 72 l 1
 50 62 l 1
50 22 m 1
 60 22 l 1
 60 32 l 1
 50 32 l 1
 50 22 l 1
50 2 m 1
 60 2 l 1
 60 12 l 1
 50 12 l 1
 50 2 l 1
50 -18 m 1
 60 -18 l 1
 60 -8 l 1
 50 -8 l 1
 50 -18 l 1
10 -18 m 1
 20 -18 l 1
 20 -8 l 1
 10 -8 l 1
 10 -18 l 1
25 -13 m 1
 35 -13 l 1
 35 -8 l 1
 25 -8 l 1
 25 -13 l 1
25 -18 m 1
 30 -18 l 1
 30 -13 l 1
 25 -13 l 1
 25 -18 l 1
35 -18 m 1
 45 -18 l 1
 45 -13 l 1
 35 -13 l 1
 35 -18 l 1
40 -13 m 1
 45 -13 l 1
 45 -8 l 1
 40 -8 l 1
 40 -13 l 1
10 22 m 1
 20 22 l 1
 20 32 l 1
 10 32 l 1
 10 22 l 1
10 42 m 1
 20 42 l 1
 20 52 l 1
 10 52 l 1
 10 42 l 1
25 27 m 1
 35 27 l 1
 35 32 l 1
 25 32 l 1
 25 27 l 1
25 22 m 1
 30 22 l 1
 30 27 l 1
 25 27 l 1
 25 22 l 1
35 22 m 1
 45 22 l 1
 45 27 l 1
 35 27 l 1
 35 22 l 1
40 27 m 1
 45 27 l 1
 45 32 l 1
 40 32 l 1
 40 27 l 1
EndSplineSet
EndChar

StartChar: six
Encoding: 54 54 7
Width: 70
Flags: W
LayerCount: 2
Fore
SplineSet
10 62 m 1
 20 62 l 1
 20 72 l 1
 10 72 l 1
 10 62 l 1
25 67 m 1
 35 67 l 1
 35 72 l 1
 25 72 l 1
 25 67 l 1
25 62 m 1
 30 62 l 1
 30 67 l 1
 25 67 l 1
 25 62 l 1
35 62 m 1
 45 62 l 1
 45 67 l 1
 35 67 l 1
 35 62 l 1
40 67 m 1
 45 67 l 1
 45 72 l 1
 40 72 l 1
 40 67 l 1
50 62 m 1
 60 62 l 1
 60 72 l 1
 50 72 l 1
 50 62 l 1
50 22 m 1
 60 22 l 1
 60 32 l 1
 50 32 l 1
 50 22 l 1
50 2 m 1
 60 2 l 1
 60 12 l 1
 50 12 l 1
 50 2 l 1
50 -18 m 1
 60 -18 l 1
 60 -8 l 1
 50 -8 l 1
 50 -18 l 1
10 -18 m 1
 20 -18 l 1
 20 -8 l 1
 10 -8 l 1
 10 -18 l 1
25 -13 m 1
 35 -13 l 1
 35 -8 l 1
 25 -8 l 1
 25 -13 l 1
25 -18 m 1
 30 -18 l 1
 30 -13 l 1
 25 -13 l 1
 25 -18 l 1
35 -18 m 1
 45 -18 l 1
 45 -13 l 1
 35 -13 l 1
 35 -18 l 1
40 -13 m 1
 45 -13 l 1
 45 -8 l 1
 40 -8 l 1
 40 -13 l 1
10 22 m 1
 20 22 l 1
 20 32 l 1
 10 32 l 1
 10 22 l 1
10 2 m 1
 20 2 l 1
 20 12 l 1
 10 12 l 1
 10 2 l 1
10 42 m 1
 20 42 l 1
 20 52 l 1
 10 52 l 1
 10 42 l 1
25 27 m 1
 35 27 l 1
 35 32 l 1
 25 32 l 1
 25 27 l 1
25 22 m 1
 30 22 l 1
 30 27 l 1
 25 27 l 1
 25 22 l 1
35 22 m 1
 45 22 l 1
 45 27 l 1
 35 27 l 1
 35 22 l 1
40 27 m 1
 45 27 l 1
 45 32 l 1
 40 32 l 1
 40 27 l 1
EndSplineSet
EndChar

StartChar: seven
Encoding: 55 55 8
Width: 70
Flags: W
LayerCount: 2
Fore
SplineSet
10 62 m 1
 20 62 l 1
 20 72 l 1
 10 72 l 1
 10 62 l 1
25 67 m 1
 35 67 l 1
 35 72 l 1
 25 72 l 1
 25 67 l 1
25 62 m 1
 30 62 l 1
 30 67 l 1
 25 67 l 1
 25 62 l 1
35 62 m 1
 45 62 l 1
 45 67 l 1
 35 67 l 1
 35 62 l 1
40 67 m 1
 45 67 l 1
 45 72 l 1
 40 72 l 1
 40 67 l 1
50 62 m 1
 60 62 l 1
 60 72 l 1
 50 72 l 1
 50 62 l 1
50 42 m 1
 60 42 l 1
 60 52 l 1
 50 52 l 1
 50 42 l 1
50 22 m 1
 60 22 l 1
 60 32 l 1
 50 32 l 1
 50 22 l 1
50 2 m 1
 60 2 l 1
 60 12 l 1
 50 12 l 1
 50 2 l 1
50 -18 m 1
 60 -18 l 1
 60 -8 l 1
 50 -8 l 1
 50 -18 l 1
EndSplineSet
EndChar

StartChar: eight
Encoding: 56 56 9
Width: 70
Flags: W
LayerCount: 2
Fore
SplineSet
10 62 m 1
 20 62 l 1
 20 72 l 1
 10 72 l 1
 10 62 l 1
25 67 m 1
 35 67 l 1
 35 72 l 1
 25 72 l 1
 25 67 l 1
25 62 m 1
 30 62 l 1
 30 67 l 1
 25 67 l 1
 25 62 l 1
35 62 m 1
 45 62 l 1
 45 67 l 1
 35 67 l 1
 35 62 l 1
40 67 m 1
 45 67 l 1
 45 72 l 1
 40 72 l 1
 40 67 l 1
50 62 m 1
 60 62 l 1
 60 72 l 1
 50 72 l 1
 50 62 l 1
50 42 m 1
 60 42 l 1
 60 52 l 1
 50 52 l 1
 50 42 l 1
50 22 m 1
 60 22 l 1
 60 32 l 1
 50 32 l 1
 50 22 l 1
50 2 m 1
 60 2 l 1
 60 12 l 1
 50 12 l 1
 50 2 l 1
50 -18 m 1
 60 -18 l 1
 60 -8 l 1
 50 -8 l 1
 50 -18 l 1
10 -18 m 1
 20 -18 l 1
 20 -8 l 1
 10 -8 l 1
 10 -18 l 1
25 -13 m 1
 35 -13 l 1
 35 -8 l 1
 25 -8 l 1
 25 -13 l 1
25 -18 m 1
 30 -18 l 1
 30 -13 l 1
 25 -13 l 1
 25 -18 l 1
35 -18 m 1
 45 -18 l 1
 45 -13 l 1
 35 -13 l 1
 35 -18 l 1
40 -13 m 1
 45 -13 l 1
 45 -8 l 1
 40 -8 l 1
 40 -13 l 1
10 22 m 1
 20 22 l 1
 20 32 l 1
 10 32 l 1
 10 22 l 1
10 2 m 1
 20 2 l 1
 20 12 l 1
 10 12 l 1
 10 2 l 1
10 42 m 1
 20 42 l 1
 20 52 l 1
 10 52 l 1
 10 42 l 1
25 27 m 1
 35 27 l 1
 35 32 l 1
 25 32 l 1
 25 27 l 1
25 22 m 1
 30 22 l 1
 30 27 l 1
 25 27 l 1
 25 22 l 1
35 22 m 1
 45 22 l 1
 45 27 l 1
 35 27 l 1
 35 22 l 1
40 27 m 1
 45 27 l 1
 45 32 l 1
 40 32 l 1
 40 27 l 1
EndSplineSet
EndChar

StartChar: nine
Encoding: 57 57 10
Width: 70
Flags: W
LayerCount: 2
Fore
SplineSet
10 62 m 1
 20 62 l 1
 20 72 l 1
 10 72 l 1
 10 62 l 1
25 67 m 1
 35 67 l 1
 35 72 l 1
 25 72 l 1
 25 67 l 1
25 62 m 1
 30 62 l 1
 30 67 l 1
 25 67 l 1
 25 62 l 1
35 62 m 1
 45 62 l 1
 45 67 l 1
 35 67 l 1
 35 62 l 1
40 67 m 1
 45 67 l 1
 45 72 l 1
 40 72 l 1
 40 67 l 1
50 62 m 1
 60 62 l 1
 60 72 l 1
 50 72 l 1
 50 62 l 1
50 42 m 1
 60 42 l 1
 60 52 l 1
 50 52 l 1
 50 42 l 1
50 22 m 1
 60 22 l 1
 60 32 l 1
 50 32 l 1
 50 22 l 1
50 2 m 1
 60 2 l 1
 60 12 l 1
 50 12 l 1
 50 2 l 1
50 -18 m 1
 60 -18 l 1
 60 -8 l 1
 50 -8 l 1
 50 -18 l 1
10 -18 m 1
 20 -18 l 1
 20 -8 l 1
 10 -8 l 1
 10 -18 l 1
25 -13 m 1
 35 -13 l 1
 35 -8 l 1
 25 -8 l 1
 25 -13 l 1
25 -18 m 1
 30 -18 l 1
 30 -13 l 1
 25 -13 l 1
 25 -18 l 1
35 -18 m 1
 45 -18 l 1
 45 -13 l 1
 35 -13 l 1
 35 -18 l 1
40 -13 m 1
 45 -13 l 1
 45 -8 l 1
 40 -8 l 1
 40 -13 l 1
10 42 m 1
 20 42 l 1
 20 52 l 1
 10 52 l 1
 10 42 l 1
10 22 m 1
 20 22 l 1
 20 32 l 1
 10 32 l 1
 10 22 l 1
25 27 m 1
 35 27 l 1
 35 32 l 1
 25 32 l 1
 25 27 l 1
25 22 m 1
 30 22 l 1
 30 27 l 1
 25 27 l 1
 25 22 l 1
35 22 m 1
 45 22 l 1
 45 27 l 1
 35 27 l 1
 35 22 l 1
40 27 m 1
 45 27 l 1
 45 32 l 1
 40 32 l 1
 40 27 l 1
EndSplineSet
EndChar

StartChar: custom_0_0_0_0_0_0_0
Encoding: 256 -1 11
Width: 70
HStem: 25 1<11 12 25 26 43 44 57 58> 26 1<12 13 26 27 44 45 58 59> 29 2<7 9 15 17 21 23 29 31 39 41 47 49 53 55 61 63> 33 2<7 9 15 17 21 23 29 31 39 41 47 49 53 55 61 63> 37 2<7 9 15 17 21 23 29 31 39 41 47 49 53 55 61 63> 41 1<11 12 25 26 43 44 57 58> 42 1<12 13 26 27 44 45 58 59>
VStem: 7 2<25 27 29 31 33 35 37 39 41 43> 10 2<25 26 41 42> 10 1<26 27 42 43> 12 2<26 27 42 43> 13 1<25 26 41 42> 15 2<25 27 29 31 33 35 37 39 41 43> 21 2<25 27 29 31 33 35 37 39 41 43> 24 2<25 26 41 42> 24 1<26 27 42 43> 26 2<26 27 42 43> 27 1<25 26 41 42> 29 2<25 27 29 31 33 35 37 39 41 43> 34 2<31 33 35 37> 39 2<25 27 29 31 33 35 37 39 41 43> 42 2<25 26 41 42> 42 1<26 27 42 43> 44 2<26 27 42 43> 45 1<25 26 41 42> 47 2<25 27 29 31 33 35 37 39 41 43> 53 2<25 27 29 31 33 35 37 39 41 43> 56 2<25 26 41 42> 56 1<26 27 42 43> 58 2<26 27 42 43> 59 1<25 26 41 42> 61 2<25 27 29 31 33 35 37 39 41 43>
LayerCount: 2
Fore
SplineSet
9 25 m 1xb90c3861
 7 25 l 1xb90c3861
 7 27 l 1
 9 27 l 1x790c3861
 9 25 l 1xb90c3861
12 25 m 1xb98c3861
 10 25 l 1xb98c3861
 10 27 l 1
 11 27 l 1x794c3861
 11 26 l 1xb94c3861
 12 26 l 1
 12 25 l 1xb98c3861
14 25 m 1xb91c3861
 13 25 l 1xb91c3861
 13 26 l 1x791c3861
 12 26 l 1xb99c3861
 12 27 l 1
 14 27 l 1x792c3861
 14 25 l 1xb91c3861
17 25 m 1
 15 25 l 1xb90c3861
 15 27 l 1
 17 27 l 1x790c3861
 17 25 l 1
23 25 m 1
 21 25 l 1xb90c3861
 21 27 l 1
 23 27 l 1x790c3861
 23 25 l 1
26 25 m 1xb90e3861
 24 25 l 1xb90e3861
 24 27 l 1
 25 27 l 1x790d3861
 25 26 l 1xb90d3861
 26 26 l 1
 26 25 l 1xb90e3861
28 25 m 1xb90c7861
 27 25 l 1xb90c7861
 27 26 l 1x790c7861
 26 26 l 1xb90e7861
 26 27 l 1
 28 27 l 1x790cb861
 28 25 l 1xb90c7861
31 25 m 1
 29 25 l 1xb90c3861
 29 27 l 1
 31 27 l 1x790c3861
 31 25 l 1
9 29 m 1
 7 29 l 1
 7 31 l 1
 9 31 l 1
 9 29 l 1
9 33 m 1
 7 33 l 1
 7 35 l 1
 9 35 l 1
 9 33 l 1
17 29 m 1
 15 29 l 1
 15 31 l 1
 17 31 l 1
 17 29 l 1
17 33 m 1
 15 33 l 1
 15 35 l 1
 17 35 l 1
 17 33 l 1
9 37 m 1
 7 37 l 1
 7 39 l 1
 9 39 l 1
 9 37 l 1
9 41 m 1x3d0c3861
 7 41 l 1x3d0c3861
 7 43 l 1
 9 43 l 1x3b0c3861
 9 41 l 1x3d0c3861
12 41 m 1x3d8c3861
 10 41 l 1x3d8c3861
 10 43 l 1
 11 43 l 1x3b4c3861
 11 42 l 1x3d4c3861
 12 42 l 1
 12 41 l 1x3d8c3861
17 37 m 1
 15 37 l 1
 15 39 l 1
 17 39 l 1
 17 37 l 1
14 41 m 1x3d1c3861
 13 41 l 1x3d1c3861
 13 42 l 1x3b1c3861
 12 42 l 1x3d9c3861
 12 43 l 1
 14 43 l 1x3b2c3861
 14 41 l 1x3d1c3861
17 41 m 1
 15 41 l 1x3d0c3861
 15 43 l 1
 17 43 l 1x3b0c3861
 17 41 l 1
23 29 m 1
 21 29 l 1
 21 31 l 1
 23 31 l 1
 23 29 l 1
23 33 m 1
 21 33 l 1
 21 35 l 1
 23 35 l 1
 23 33 l 1
31 29 m 1
 29 29 l 1
 29 31 l 1
 31 31 l 1
 31 29 l 1
31 33 m 1
 29 33 l 1
 29 35 l 1
 31 35 l 1
 31 33 l 1
36 31 m 1
 34 31 l 1
 34 33 l 1
 36 33 l 1
 36 31 l 1
23 37 m 1
 21 37 l 1
 21 39 l 1
 23 39 l 1
 23 37 l 1
23 41 m 1
 21 41 l 1x3d0c3861
 21 43 l 1
 23 43 l 1x3b0c3861
 23 41 l 1
26 41 m 1x3d0e3861
 24 41 l 1x3d0e3861
 24 43 l 1
 25 43 l 1x3b0d3861
 25 42 l 1x3d0d3861
 26 42 l 1
 26 41 l 1x3d0e3861
28 41 m 1x3d0c7861
 27 41 l 1x3d0c7861
 27 42 l 1x3b0c7861
 26 42 l 1x3d0e7861
 26 43 l 1
 28 43 l 1x3b0cb861
 28 41 l 1x3d0c7861
31 37 m 1
 29 37 l 1
 29 39 l 1
 31 39 l 1
 31 37 l 1
36 35 m 1
 34 35 l 1
 34 37 l 1
 36 37 l 1
 36 35 l 1
31 41 m 1
 29 41 l 1x3d0c3861
 29 43 l 1
 31 43 l 1x3b0c3861
 31 41 l 1
41 25 m 1xb90c3861
 39 25 l 1xb90c3861
 39 27 l 1
 41 27 l 1x790c3861
 41 25 l 1xb90c3861
44 25 m 1xb90c3c61
 42 25 l 1xb90c3c61
 42 27 l 1
 43 27 l 1x790c3a61
 43 26 l 1xb90c3a61
 44 26 l 1
 44 25 l 1xb90c3c61
46 25 m 1xb90c38e1
 45 25 l 1xb90c38e1
 45 26 l 1x790c38e1
 44 26 l 1xb90c3ce1
 44 27 l 1
 46 27 l 1x790c3961
 46 25 l 1xb90c38e1
49 25 m 1
 47 25 l 1xb90c3861
 47 27 l 1
 49 27 l 1x790c3861
 49 25 l 1
55 25 m 1
 53 25 l 1xb90c3861
 53 27 l 1
 55 27 l 1x790c3861
 55 25 l 1
58 25 m 1xb90c3871
 56 25 l 1xb90c3871
 56 27 l 1
 57 27 l 1x790c3869
 57 26 l 1xb90c3869
 58 26 l 1
 58 25 l 1xb90c3871
60 25 m 1xb90c3863
 59 25 l 1xb90c3863
 59 26 l 1x790c3863
 58 26 l 1xb90c3873
 58 27 l 1
 60 27 l 1x790c3865
 60 25 l 1xb90c3863
63 25 m 1
 61 25 l 1xb90c3861
 61 27 l 1
 63 27 l 1x790c3861
 63 25 l 1
41 29 m 1
 39 29 l 1
 39 31 l 1
 41 31 l 1
 41 29 l 1
41 33 m 1
 39 33 l 1
 39 35 l 1
 41 35 l 1
 41 33 l 1
49 29 m 1
 47 29 l 1
 47 31 l 1
 49 31 l 1
 49 29 l 1
49 33 m 1
 47 33 l 1
 47 35 l 1
 49 35 l 1
 49 33 l 1
41 37 m 1
 39 37 l 1
 39 39 l 1
 41 39 l 1
 41 37 l 1
41 41 m 1x3d0c3861
 39 41 l 1x3d0c3861
 39 43 l 1
 41 43 l 1x3b0c3861
 41 41 l 1x3d0c3861
44 41 m 1x3d0c3c61
 42 41 l 1x3d0c3c61
 42 43 l 1
 43 43 l 1x3b0c3a61
 43 42 l 1x3d0c3a61
 44 42 l 1
 44 41 l 1x3d0c3c61
49 37 m 1
 47 37 l 1
 47 39 l 1
 49 39 l 1
 49 37 l 1
46 41 m 1x3d0c38e1
 45 41 l 1x3d0c38e1
 45 42 l 1x3b0c38e1
 44 42 l 1x3d0c3ce1
 44 43 l 1
 46 43 l 1x3b0c3961
 46 41 l 1x3d0c38e1
49 41 m 1
 47 41 l 1x3d0c3861
 47 43 l 1
 49 43 l 1x3b0c3861
 49 41 l 1
55 29 m 1
 53 29 l 1
 53 31 l 1
 55 31 l 1
 55 29 l 1
55 33 m 1
 53 33 l 1
 53 35 l 1
 55 35 l 1
 55 33 l 1
63 29 m 1
 61 29 l 1
 61 31 l 1
 63 31 l 1
 63 29 l 1
63 33 m 1
 61 33 l 1
 61 35 l 1
 63 35 l 1
 63 33 l 1
55 37 m 1
 53 37 l 1
 53 39 l 1
 55 39 l 1
 55 37 l 1
55 41 m 1
 53 41 l 1x3d0c3861
 53 43 l 1
 55 43 l 1x3b0c3861
 55 41 l 1
58 41 m 1x3d0c3871
 56 41 l 1x3d0c3871
 56 43 l 1
 57 43 l 1x3b0c3869
 57 42 l 1x3d0c3869
 58 42 l 1
 58 41 l 1x3d0c3871
60 41 m 1x3d0c3863
 59 41 l 1x3d0c3863
 59 42 l 1x3b0c3863
 58 42 l 1x3d0c3873
 58 43 l 1
 60 43 l 1x3b0c3865
 60 41 l 1x3d0c3863
63 37 m 1
 61 37 l 1
 61 39 l 1
 63 39 l 1
 63 37 l 1
63 41 m 1
 61 41 l 1x3d0c3861
 61 43 l 1
 63 43 l 1x3b0c3861
 63 41 l 1
EndSplineSet
Ligature2: "'liga' Standard Ligatures in Latin lookup 0-1" zero zero zero zero zero zero zero
LCarets2: 6 0 0 0 0 0 0
EndChar

StartChar: custom_0_0_0_0_0_0_1
Encoding: 257 -1 12
Width: 70
HStem: 25 1<11 12 25 26 43 44 57 58> 26 1<12 13 26 27 44 45 58 59> 29 2<7 9 15 17 21 23 29 31 39 41 47 49 53 55 61 63> 33 2<7 9 15 17 21 23 29 31 39 41 47 49 53 55 61 63> 37 2<7 9 15 17 21 23 29 31 39 41 47 49 53 55 61 63> 41 1<11 12 25 26 43 44 57 58> 42 1<12 13 26 27 44 45 58 59>
VStem: 7 2<25 27 29 31 33 35 37 39 41 43> 10 2<25 26 41 42> 10 1<26 27 42 43> 12 2<26 27 42 43> 13 1<25 26 41 42> 15 2<25 27 29 31 33 35 37 39 41 43> 21 2<25 27 29 31 33 35 37 39 41 43> 24 2<25 26 41 42> 24 1<26 27 42 43> 26 2<26 27 42 43> 27 1<25 26 41 42> 29 2<25 27 29 31 33 35 37 39 41 43> 34 2<31 33 35 37> 39 2<25 27 29 31 33 35 37 39 41 43> 42 2<25 26 41 42> 42 1<26 27 42 43> 44 2<26 27 42 43> 45 1<25 26 41 42> 47 2<25 27 29 31 33 35 37 39 41 43> 53 2<25 27 29 31 33 35 37 39 41 43> 56 2<25 26 41 42> 56 1<26 27 42 43> 58 2<26 27 42 43> 59 1<25 26 41 42> 61 2<25 27 29 31 33 35 37 39 41 43>
LayerCount: 2
Fore
SplineSet
9 25 m 1xb90c3861
 7 25 l 1xb90c3861
 7 27 l 1
 9 27 l 1x790c3861
 9 25 l 1xb90c3861
12 25 m 1xb98c3861
 10 25 l 1xb98c3861
 10 27 l 1
 11 27 l 1x794c3861
 11 26 l 1xb94c3861
 12 26 l 1
 12 25 l 1xb98c3861
14 25 m 1xb91c3861
 13 25 l 1xb91c3861
 13 26 l 1x791c3861
 12 26 l 1xb99c3861
 12 27 l 1
 14 27 l 1x792c3861
 14 25 l 1xb91c3861
17 25 m 1
 15 25 l 1xb90c3861
 15 27 l 1
 17 27 l 1x790c3861
 17 25 l 1
23 25 m 1
 21 25 l 1xb90c3861
 21 27 l 1
 23 27 l 1x790c3861
 23 25 l 1
26 25 m 1xb90e3861
 24 25 l 1xb90e3861
 24 27 l 1
 25 27 l 1x790d3861
 25 26 l 1xb90d3861
 26 26 l 1
 26 25 l 1xb90e3861
28 25 m 1xb90c7861
 27 25 l 1xb90c7861
 27 26 l 1x790c7861
 26 26 l 1xb90e7861
 26 27 l 1
 28 27 l 1x790cb861
 28 25 l 1xb90c7861
31 25 m 1
 29 25 l 1xb90c3861
 29 27 l 1
 31 27 l 1x790c3861
 31 25 l 1
9 29 m 1
 7 29 l 1
 7 31 l 1
 9 31 l 1
 9 29 l 1
9 33 m 1
 7 33 l 1
 7 35 l 1
 9 35 l 1
 9 33 l 1
17 29 m 1
 15 29 l 1
 15 31 l 1
 17 31 l 1
 17 29 l 1
17 33 m 1
 15 33 l 1
 15 35 l 1
 17 35 l 1
 17 33 l 1
9 37 m 1
 7 37 l 1
 7 39 l 1
 9 39 l 1
 9 37 l 1
9 41 m 1x3d0c3861
 7 41 l 1x3d0c3861
 7 43 l 1
 9 43 l 1x3b0c3861
 9 41 l 1x3d0c3861
12 41 m 1x3d8c3861
 10 41 l 1x3d8c3861
 10 43 l 1
 11 43 l 1x3b4c3861
 11 42 l 1x3d4c3861
 12 42 l 1
 12 41 l 1x3d8c3861
17 37 m 1
 15 37 l 1
 15 39 l 1
 17 39 l 1
 17 37 l 1
14 41 m 1x3d1c3861
 13 41 l 1x3d1c3861
 13 42 l 1x3b1c3861
 12 42 l 1x3d9c3861
 12 43 l 1
 14 43 l 1x3b2c3861
 14 41 l 1x3d1c3861
17 41 m 1
 15 41 l 1x3d0c3861
 15 43 l 1
 17 43 l 1x3b0c3861
 17 41 l 1
23 29 m 1
 21 29 l 1
 21 31 l 1
 23 31 l 1
 23 29 l 1
23 33 m 1
 21 33 l 1
 21 35 l 1
 23 35 l 1
 23 33 l 1
31 29 m 1
 29 29 l 1
 29 31 l 1
 31 31 l 1
 31 29 l 1
31 33 m 1
 29 33 l 1
 29 35 l 1
 31 35 l 1
 31 33 l 1
36 31 m 1
 34 31 l 1
 34 33 l 1
 36 33 l 1
 36 31 l 1
23 37 m 1
 21 37 l 1
 21 39 l 1
 23 39 l 1
 23 37 l 1
23 41 m 1
 21 41 l 1x3d0c3861
 21 43 l 1
 23 43 l 1x3b0c3861
 23 41 l 1
26 41 m 1x3d0e3861
 24 41 l 1x3d0e3861
 24 43 l 1
 25 43 l 1x3b0d3861
 25 42 l 1x3d0d3861
 26 42 l 1
 26 41 l 1x3d0e3861
28 41 m 1x3d0c7861
 27 41 l 1x3d0c7861
 27 42 l 1x3b0c7861
 26 42 l 1x3d0e7861
 26 43 l 1
 28 43 l 1x3b0cb861
 28 41 l 1x3d0c7861
31 37 m 1
 29 37 l 1
 29 39 l 1
 31 39 l 1
 31 37 l 1
36 35 m 1
 34 35 l 1
 34 37 l 1
 36 37 l 1
 36 35 l 1
31 41 m 1
 29 41 l 1x3d0c3861
 29 43 l 1
 31 43 l 1x3b0c3861
 31 41 l 1
41 25 m 1xb90c3861
 39 25 l 1xb90c3861
 39 27 l 1
 41 27 l 1x790c3861
 41 25 l 1xb90c3861
44 25 m 1xb90c3c61
 42 25 l 1xb90c3c61
 42 27 l 1
 43 27 l 1x790c3a61
 43 26 l 1xb90c3a61
 44 26 l 1
 44 25 l 1xb90c3c61
46 25 m 1xb90c38e1
 45 25 l 1xb90c38e1
 45 26 l 1x790c38e1
 44 26 l 1xb90c3ce1
 44 27 l 1
 46 27 l 1x790c3961
 46 25 l 1xb90c38e1
49 25 m 1
 47 25 l 1xb90c3861
 47 27 l 1
 49 27 l 1x790c3861
 49 25 l 1
55 25 m 1
 53 25 l 1xb90c3861
 53 27 l 1
 55 27 l 1x790c3861
 55 25 l 1
58 25 m 1xb90c3871
 56 25 l 1xb90c3871
 56 27 l 1
 57 27 l 1x790c3869
 57 26 l 1xb90c3869
 58 26 l 1
 58 25 l 1xb90c3871
60 25 m 1xb90c3863
 59 25 l 1xb90c3863
 59 26 l 1x790c3863
 58 26 l 1xb90c3873
 58 27 l 1
 60 27 l 1x790c3865
 60 25 l 1xb90c3863
63 25 m 1
 61 25 l 1xb90c3861
 61 27 l 1
 63 27 l 1x790c3861
 63 25 l 1
41 29 m 1
 39 29 l 1
 39 31 l 1
 41 31 l 1
 41 29 l 1
41 33 m 1
 39 33 l 1
 39 35 l 1
 41 35 l 1
 41 33 l 1
49 29 m 1
 47 29 l 1
 47 31 l 1
 49 31 l 1
 49 29 l 1
49 33 m 1
 47 33 l 1
 47 35 l 1
 49 35 l 1
 49 33 l 1
41 37 m 1
 39 37 l 1
 39 39 l 1
 41 39 l 1
 41 37 l 1
41 41 m 1x3d0c3861
 39 41 l 1x3d0c3861
 39 43 l 1
 41 43 l 1x3b0c3861
 41 41 l 1x3d0c3861
44 41 m 1x3d0c3c61
 42 41 l 1x3d0c3c61
 42 43 l 1
 43 43 l 1x3b0c3a61
 43 42 l 1x3d0c3a61
 44 42 l 1
 44 41 l 1x3d0c3c61
49 37 m 1
 47 37 l 1
 47 39 l 1
 49 39 l 1
 49 37 l 1
46 41 m 1x3d0c38e1
 45 41 l 1x3d0c38e1
 45 42 l 1x3b0c38e1
 44 42 l 1x3d0c3ce1
 44 43 l 1
 46 43 l 1x3b0c3961
 46 41 l 1x3d0c38e1
49 41 m 1
 47 41 l 1x3d0c3861
 47 43 l 1
 49 43 l 1x3b0c3861
 49 41 l 1
55 29 m 1
 53 29 l 1
 53 31 l 1
 55 31 l 1
 55 29 l 1
55 33 m 1
 53 33 l 1
 53 35 l 1
 55 35 l 1
 55 33 l 1
63 29 m 1
 61 29 l 1
 61 31 l 1
 63 31 l 1
 63 29 l 1
63 33 m 1
 61 33 l 1
 61 35 l 1
 63 35 l 1
 63 33 l 1
55 37 m 1
 53 37 l 1
 53 39 l 1
 55 39 l 1
 55 37 l 1
55 41 m 1
 53 41 l 1x3d0c3861
 53 43 l 1
 55 43 l 1x3b0c3861
 55 41 l 1
58 41 m 1x3d0c3871
 56 41 l 1x3d0c3871
 56 43 l 1
 57 43 l 1x3b0c3869
 57 42 l 1x3d0c3869
 58 42 l 1
 58 41 l 1x3d0c3871
60 41 m 1x3d0c3863
 59 41 l 1x3d0c3863
 59 42 l 1x3b0c3863
 58 42 l 1x3d0c3873
 58 43 l 1
 60 43 l 1x3b0c3865
 60 41 l 1x3d0c3863
63 37 m 1
 61 37 l 1
 61 39 l 1
 63 39 l 1
 63 37 l 1
63 41 m 1
 61 41 l 1x3d0c3861
 61 43 l 1
 63 43 l 1x3b0c3861
 63 41 l 1
EndSplineSet
Ligature2: "'liga' Standard Ligatures in Latin lookup 0-1" zero zero zero zero zero zero one
LCarets2: 1 0
EndChar

StartChar: custom_0_0_0_0_0_0_2
Encoding: 258 -1 13
Width: 70
HStem: 25 1<11 12 25 26 43 44 57 58> 26 1<12 13 26 27 44 45 58 59> 29 2<7 9 15 17 21 23 29 31 39 41 47 49 53 55 61 63> 33 2<7 9 15 17 21 23 29 31 39 41 47 49 53 55 61 63> 37 2<7 9 15 17 21 23 29 31 39 41 47 49 53 55 61 63> 41 1<11 12 25 26 43 44 57 58> 42 1<12 13 26 27 44 45 58 59>
VStem: 7 2<25 27 29 31 33 35 37 39 41 43> 10 2<25 26 41 42> 10 1<26 27 42 43> 12 2<26 27 42 43> 13 1<25 26 41 42> 15 2<25 27 29 31 33 35 37 39 41 43> 21 2<25 27 29 31 33 35 37 39 41 43> 24 2<25 26 41 42> 24 1<26 27 42 43> 26 2<26 27 42 43> 27 1<25 26 41 42> 29 2<25 27 29 31 33 35 37 39 41 43> 34 2<31 33 35 37> 39 2<25 27 29 31 33 35 37 39 41 43> 42 2<25 26 41 42> 42 1<26 27 42 43> 44 2<26 27 42 43> 45 1<25 26 41 42> 47 2<25 27 29 31 33 35 37 39 41 43> 53 2<25 27 29 31 33 35 37 39 41 43> 56 2<25 26 41 42> 56 1<26 27 42 43> 58 2<26 27 42 43> 59 1<25 26 41 42> 61 2<25 27 29 31 33 35 37 39 41 43>
LayerCount: 2
Fore
SplineSet
9 25 m 1xb90c3861
 7 25 l 1xb90c3861
 7 27 l 1
 9 27 l 1x790c3861
 9 25 l 1xb90c3861
12 25 m 1xb98c3861
 10 25 l 1xb98c3861
 10 27 l 1
 11 27 l 1x794c3861
 11 26 l 1xb94c3861
 12 26 l 1
 12 25 l 1xb98c3861
14 25 m 1xb91c3861
 13 25 l 1xb91c3861
 13 26 l 1x791c3861
 12 26 l 1xb99c3861
 12 27 l 1
 14 27 l 1x792c3861
 14 25 l 1xb91c3861
17 25 m 1
 15 25 l 1xb90c3861
 15 27 l 1
 17 27 l 1x790c3861
 17 25 l 1
23 25 m 1
 21 25 l 1xb90c3861
 21 27 l 1
 23 27 l 1x790c3861
 23 25 l 1
26 25 m 1xb90e3861
 24 25 l 1xb90e3861
 24 27 l 1
 25 27 l 1x790d3861
 25 26 l 1xb90d3861
 26 26 l 1
 26 25 l 1xb90e3861
28 25 m 1xb90c7861
 27 25 l 1xb90c7861
 27 26 l 1x790c7861
 26 26 l 1xb90e7861
 26 27 l 1
 28 27 l 1x790cb861
 28 25 l 1xb90c7861
31 25 m 1
 29 25 l 1xb90c3861
 29 27 l 1
 31 27 l 1x790c3861
 31 25 l 1
9 29 m 1
 7 29 l 1
 7 31 l 1
 9 31 l 1
 9 29 l 1
9 33 m 1
 7 33 l 1
 7 35 l 1
 9 35 l 1
 9 33 l 1
17 29 m 1
 15 29 l 1
 15 31 l 1
 17 31 l 1
 17 29 l 1
17 33 m 1
 15 33 l 1
 15 35 l 1
 17 35 l 1
 17 33 l 1
9 37 m 1
 7 37 l 1
 7 39 l 1
 9 39 l 1
 9 37 l 1
9 41 m 1x3d0c3861
 7 41 l 1x3d0c3861
 7 43 l 1
 9 43 l 1x3b0c3861
 9 41 l 1x3d0c3861
12 41 m 1x3d8c3861
 10 41 l 1x3d8c3861
 10 43 l 1
 11 43 l 1x3b4c3861
 11 42 l 1x3d4c3861
 12 42 l 1
 12 41 l 1x3d8c3861
17 37 m 1
 15 37 l 1
 15 39 l 1
 17 39 l 1
 17 37 l 1
14 41 m 1x3d1c3861
 13 41 l 1x3d1c3861
 13 42 l 1x3b1c3861
 12 42 l 1x3d9c3861
 12 43 l 1
 14 43 l 1x3b2c3861
 14 41 l 1x3d1c3861
17 41 m 1
 15 41 l 1x3d0c3861
 15 43 l 1
 17 43 l 1x3b0c3861
 17 41 l 1
23 29 m 1
 21 29 l 1
 21 31 l 1
 23 31 l 1
 23 29 l 1
23 33 m 1
 21 33 l 1
 21 35 l 1
 23 35 l 1
 23 33 l 1
31 29 m 1
 29 29 l 1
 29 31 l 1
 31 31 l 1
 31 29 l 1
31 33 m 1
 29 33 l 1
 29 35 l 1
 31 35 l 1
 31 33 l 1
36 31 m 1
 34 31 l 1
 34 33 l 1
 36 33 l 1
 36 31 l 1
23 37 m 1
 21 37 l 1
 21 39 l 1
 23 39 l 1
 23 37 l 1
23 41 m 1
 21 41 l 1x3d0c3861
 21 43 l 1
 23 43 l 1x3b0c3861
 23 41 l 1
26 41 m 1x3d0e3861
 24 41 l 1x3d0e3861
 24 43 l 1
 25 43 l 1x3b0d3861
 25 42 l 1x3d0d3861
 26 42 l 1
 26 41 l 1x3d0e3861
28 41 m 1x3d0c7861
 27 41 l 1x3d0c7861
 27 42 l 1x3b0c7861
 26 42 l 1x3d0e7861
 26 43 l 1
 28 43 l 1x3b0cb861
 28 41 l 1x3d0c7861
31 37 m 1
 29 37 l 1
 29 39 l 1
 31 39 l 1
 31 37 l 1
36 35 m 1
 34 35 l 1
 34 37 l 1
 36 37 l 1
 36 35 l 1
31 41 m 1
 29 41 l 1x3d0c3861
 29 43 l 1
 31 43 l 1x3b0c3861
 31 41 l 1
41 25 m 1xb90c3861
 39 25 l 1xb90c3861
 39 27 l 1
 41 27 l 1x790c3861
 41 25 l 1xb90c3861
44 25 m 1xb90c3c61
 42 25 l 1xb90c3c61
 42 27 l 1
 43 27 l 1x790c3a61
 43 26 l 1xb90c3a61
 44 26 l 1
 44 25 l 1xb90c3c61
46 25 m 1xb90c38e1
 45 25 l 1xb90c38e1
 45 26 l 1x790c38e1
 44 26 l 1xb90c3ce1
 44 27 l 1
 46 27 l 1x790c3961
 46 25 l 1xb90c38e1
49 25 m 1
 47 25 l 1xb90c3861
 47 27 l 1
 49 27 l 1x790c3861
 49 25 l 1
55 25 m 1
 53 25 l 1xb90c3861
 53 27 l 1
 55 27 l 1x790c3861
 55 25 l 1
58 25 m 1xb90c3871
 56 25 l 1xb90c3871
 56 27 l 1
 57 27 l 1x790c3869
 57 26 l 1xb90c3869
 58 26 l 1
 58 25 l 1xb90c3871
60 25 m 1xb90c3863
 59 25 l 1xb90c3863
 59 26 l 1x790c3863
 58 26 l 1xb90c3873
 58 27 l 1
 60 27 l 1x790c3865
 60 25 l 1xb90c3863
63 25 m 1
 61 25 l 1xb90c3861
 61 27 l 1
 63 27 l 1x790c3861
 63 25 l 1
41 29 m 1
 39 29 l 1
 39 31 l 1
 41 31 l 1
 41 29 l 1
41 33 m 1
 39 33 l 1
 39 35 l 1
 41 35 l 1
 41 33 l 1
49 29 m 1
 47 29 l 1
 47 31 l 1
 49 31 l 1
 49 29 l 1
49 33 m 1
 47 33 l 1
 47 35 l 1
 49 35 l 1
 49 33 l 1
41 37 m 1
 39 37 l 1
 39 39 l 1
 41 39 l 1
 41 37 l 1
41 41 m 1x3d0c3861
 39 41 l 1x3d0c3861
 39 43 l 1
 41 43 l 1x3b0c3861
 41 41 l 1x3d0c3861
44 41 m 1x3d0c3c61
 42 41 l 1x3d0c3c61
 42 43 l 1
 43 43 l 1x3b0c3a61
 43 42 l 1x3d0c3a61
 44 42 l 1
 44 41 l 1x3d0c3c61
49 37 m 1
 47 37 l 1
 47 39 l 1
 49 39 l 1
 49 37 l 1
46 41 m 1x3d0c38e1
 45 41 l 1x3d0c38e1
 45 42 l 1x3b0c38e1
 44 42 l 1x3d0c3ce1
 44 43 l 1
 46 43 l 1x3b0c3961
 46 41 l 1x3d0c38e1
49 41 m 1
 47 41 l 1x3d0c3861
 47 43 l 1
 49 43 l 1x3b0c3861
 49 41 l 1
55 29 m 1
 53 29 l 1
 53 31 l 1
 55 31 l 1
 55 29 l 1
55 33 m 1
 53 33 l 1
 53 35 l 1
 55 35 l 1
 55 33 l 1
63 29 m 1
 61 29 l 1
 61 31 l 1
 63 31 l 1
 63 29 l 1
63 33 m 1
 61 33 l 1
 61 35 l 1
 63 35 l 1
 63 33 l 1
55 37 m 1
 53 37 l 1
 53 39 l 1
 55 39 l 1
 55 37 l 1
55 41 m 1
 53 41 l 1x3d0c3861
 53 43 l 1
 55 43 l 1x3b0c3861
 55 41 l 1
58 41 m 1x3d0c3871
 56 41 l 1x3d0c3871
 56 43 l 1
 57 43 l 1x3b0c3869
 57 42 l 1x3d0c3869
 58 42 l 1
 58 41 l 1x3d0c3871
60 41 m 1x3d0c3863
 59 41 l 1x3d0c3863
 59 42 l 1x3b0c3863
 58 42 l 1x3d0c3873
 58 43 l 1
 60 43 l 1x3b0c3865
 60 41 l 1x3d0c3863
63 37 m 1
 61 37 l 1
 61 39 l 1
 63 39 l 1
 63 37 l 1
63 41 m 1
 61 41 l 1x3d0c3861
 61 43 l 1
 63 43 l 1x3b0c3861
 63 41 l 1
EndSplineSet
Ligature2: "'liga' Standard Ligatures in Latin lookup 0-1" zero zero zero zero zero zero two
LCarets2: 1 0
EndChar

StartChar: custom_0_0_0_0_0_0_3
Encoding: 259 -1 14
Width: 70
HStem: 25 1<11 12 25 26 43 44 57 58> 26 1<12 13 26 27 44 45 58 59> 29 2<7 9 15 17 21 23 29 31 39 41 47 49 53 55 61 63> 33 2<7 9 15 17 21 23 29 31 39 41 47 49 53 55 61 63> 37 2<7 9 15 17 21 23 29 31 39 41 47 49 53 55 61 63> 41 1<11 12 25 26 43 44 57 58> 42 1<12 13 26 27 44 45 58 59>
VStem: 7 2<25 27 29 31 33 35 37 39 41 43> 10 2<25 26 41 42> 10 1<26 27 42 43> 12 2<26 27 42 43> 13 1<25 26 41 42> 15 2<25 27 29 31 33 35 37 39 41 43> 21 2<25 27 29 31 33 35 37 39 41 43> 24 2<25 26 41 42> 24 1<26 27 42 43> 26 2<26 27 42 43> 27 1<25 26 41 42> 29 2<25 27 29 31 33 35 37 39 41 43> 34 2<31 33 35 37> 39 2<25 27 29 31 33 35 37 39 41 43> 42 2<25 26 41 42> 42 1<26 27 42 43> 44 2<26 27 42 43> 45 1<25 26 41 42> 47 2<25 27 29 31 33 35 37 39 41 43> 53 2<25 27 29 31 33 35 37 39 41 43> 56 2<25 26 41 42> 56 1<26 27 42 43> 58 2<26 27 42 43> 59 1<25 26 41 42> 61 2<25 27 29 31 33 35 37 39 41 43>
LayerCount: 2
Fore
SplineSet
9 25 m 1xb90c3861
 7 25 l 1xb90c3861
 7 27 l 1
 9 27 l 1x790c3861
 9 25 l 1xb90c3861
12 25 m 1xb98c3861
 10 25 l 1xb98c3861
 10 27 l 1
 11 27 l 1x794c3861
 11 26 l 1xb94c3861
 12 26 l 1
 12 25 l 1xb98c3861
14 25 m 1xb91c3861
 13 25 l 1xb91c3861
 13 26 l 1x791c3861
 12 26 l 1xb99c3861
 12 27 l 1
 14 27 l 1x792c3861
 14 25 l 1xb91c3861
17 25 m 1
 15 25 l 1xb90c3861
 15 27 l 1
 17 27 l 1x790c3861
 17 25 l 1
23 25 m 1
 21 25 l 1xb90c3861
 21 27 l 1
 23 27 l 1x790c3861
 23 25 l 1
26 25 m 1xb90e3861
 24 25 l 1xb90e3861
 24 27 l 1
 25 27 l 1x790d3861
 25 26 l 1xb90d3861
 26 26 l 1
 26 25 l 1xb90e3861
28 25 m 1xb90c7861
 27 25 l 1xb90c7861
 27 26 l 1x790c7861
 26 26 l 1xb90e7861
 26 27 l 1
 28 27 l 1x790cb861
 28 25 l 1xb90c7861
31 25 m 1
 29 25 l 1xb90c3861
 29 27 l 1
 31 27 l 1x790c3861
 31 25 l 1
9 29 m 1
 7 29 l 1
 7 31 l 1
 9 31 l 1
 9 29 l 1
9 33 m 1
 7 33 l 1
 7 35 l 1
 9 35 l 1
 9 33 l 1
17 29 m 1
 15 29 l 1
 15 31 l 1
 17 31 l 1
 17 29 l 1
17 33 m 1
 15 33 l 1
 15 35 l 1
 17 35 l 1
 17 33 l 1
9 37 m 1
 7 37 l 1
 7 39 l 1
 9 39 l 1
 9 37 l 1
9 41 m 1x3d0c3861
 7 41 l 1x3d0c3861
 7 43 l 1
 9 43 l 1x3b0c3861
 9 41 l 1x3d0c3861
12 41 m 1x3d8c3861
 10 41 l 1x3d8c3861
 10 43 l 1
 11 43 l 1x3b4c3861
 11 42 l 1x3d4c3861
 12 42 l 1
 12 41 l 1x3d8c3861
17 37 m 1
 15 37 l 1
 15 39 l 1
 17 39 l 1
 17 37 l 1
14 41 m 1x3d1c3861
 13 41 l 1x3d1c3861
 13 42 l 1x3b1c3861
 12 42 l 1x3d9c3861
 12 43 l 1
 14 43 l 1x3b2c3861
 14 41 l 1x3d1c3861
17 41 m 1
 15 41 l 1x3d0c3861
 15 43 l 1
 17 43 l 1x3b0c3861
 17 41 l 1
23 29 m 1
 21 29 l 1
 21 31 l 1
 23 31 l 1
 23 29 l 1
23 33 m 1
 21 33 l 1
 21 35 l 1
 23 35 l 1
 23 33 l 1
31 29 m 1
 29 29 l 1
 29 31 l 1
 31 31 l 1
 31 29 l 1
31 33 m 1
 29 33 l 1
 29 35 l 1
 31 35 l 1
 31 33 l 1
36 31 m 1
 34 31 l 1
 34 33 l 1
 36 33 l 1
 36 31 l 1
23 37 m 1
 21 37 l 1
 21 39 l 1
 23 39 l 1
 23 37 l 1
23 41 m 1
 21 41 l 1x3d0c3861
 21 43 l 1
 23 43 l 1x3b0c3861
 23 41 l 1
26 41 m 1x3d0e3861
 24 41 l 1x3d0e3861
 24 43 l 1
 25 43 l 1x3b0d3861
 25 42 l 1x3d0d3861
 26 42 l 1
 26 41 l 1x3d0e3861
28 41 m 1x3d0c7861
 27 41 l 1x3d0c7861
 27 42 l 1x3b0c7861
 26 42 l 1x3d0e7861
 26 43 l 1
 28 43 l 1x3b0cb861
 28 41 l 1x3d0c7861
31 37 m 1
 29 37 l 1
 29 39 l 1
 31 39 l 1
 31 37 l 1
36 35 m 1
 34 35 l 1
 34 37 l 1
 36 37 l 1
 36 35 l 1
31 41 m 1
 29 41 l 1x3d0c3861
 29 43 l 1
 31 43 l 1x3b0c3861
 31 41 l 1
41 25 m 1xb90c3861
 39 25 l 1xb90c3861
 39 27 l 1
 41 27 l 1x790c3861
 41 25 l 1xb90c3861
44 25 m 1xb90c3c61
 42 25 l 1xb90c3c61
 42 27 l 1
 43 27 l 1x790c3a61
 43 26 l 1xb90c3a61
 44 26 l 1
 44 25 l 1xb90c3c61
46 25 m 1xb90c38e1
 45 25 l 1xb90c38e1
 45 26 l 1x790c38e1
 44 26 l 1xb90c3ce1
 44 27 l 1
 46 27 l 1x790c3961
 46 25 l 1xb90c38e1
49 25 m 1
 47 25 l 1xb90c3861
 47 27 l 1
 49 27 l 1x790c3861
 49 25 l 1
55 25 m 1
 53 25 l 1xb90c3861
 53 27 l 1
 55 27 l 1x790c3861
 55 25 l 1
58 25 m 1xb90c3871
 56 25 l 1xb90c3871
 56 27 l 1
 57 27 l 1x790c3869
 57 26 l 1xb90c3869
 58 26 l 1
 58 25 l 1xb90c3871
60 25 m 1xb90c3863
 59 25 l 1xb90c3863
 59 26 l 1x790c3863
 58 26 l 1xb90c3873
 58 27 l 1
 60 27 l 1x790c3865
 60 25 l 1xb90c3863
63 25 m 1
 61 25 l 1xb90c3861
 61 27 l 1
 63 27 l 1x790c3861
 63 25 l 1
41 29 m 1
 39 29 l 1
 39 31 l 1
 41 31 l 1
 41 29 l 1
41 33 m 1
 39 33 l 1
 39 35 l 1
 41 35 l 1
 41 33 l 1
49 29 m 1
 47 29 l 1
 47 31 l 1
 49 31 l 1
 49 29 l 1
49 33 m 1
 47 33 l 1
 47 35 l 1
 49 35 l 1
 49 33 l 1
41 37 m 1
 39 37 l 1
 39 39 l 1
 41 39 l 1
 41 37 l 1
41 41 m 1x3d0c3861
 39 41 l 1x3d0c3861
 39 43 l 1
 41 43 l 1x3b0c3861
 41 41 l 1x3d0c3861
44 41 m 1x3d0c3c61
 42 41 l 1x3d0c3c61
 42 43 l 1
 43 43 l 1x3b0c3a61
 43 42 l 1x3d0c3a61
 44 42 l 1
 44 41 l 1x3d0c3c61
49 37 m 1
 47 37 l 1
 47 39 l 1
 49 39 l 1
 49 37 l 1
46 41 m 1x3d0c38e1
 45 41 l 1x3d0c38e1
 45 42 l 1x3b0c38e1
 44 42 l 1x3d0c3ce1
 44 43 l 1
 46 43 l 1x3b0c3961
 46 41 l 1x3d0c38e1
49 41 m 1
 47 41 l 1x3d0c3861
 47 43 l 1
 49 43 l 1x3b0c3861
 49 41 l 1
55 29 m 1
 53 29 l 1
 53 31 l 1
 55 31 l 1
 55 29 l 1
55 33 m 1
 53 33 l 1
 53 35 l 1
 55 35 l 1
 55 33 l 1
63 29 m 1
 61 29 l 1
 61 31 l 1
 63 31 l 1
 63 29 l 1
63 33 m 1
 61 33 l 1
 61 35 l 1
 63 35 l 1
 63 33 l 1
55 37 m 1
 53 37 l 1
 53 39 l 1
 55 39 l 1
 55 37 l 1
55 41 m 1
 53 41 l 1x3d0c3861
 53 43 l 1
 55 43 l 1x3b0c3861
 55 41 l 1
58 41 m 1x3d0c3871
 56 41 l 1x3d0c3871
 56 43 l 1
 57 43 l 1x3b0c3869
 57 42 l 1x3d0c3869
 58 42 l 1
 58 41 l 1x3d0c3871
60 41 m 1x3d0c3863
 59 41 l 1x3d0c3863
 59 42 l 1x3b0c3863
 58 42 l 1x3d0c3873
 58 43 l 1
 60 43 l 1x3b0c3865
 60 41 l 1x3d0c3863
63 37 m 1
 61 37 l 1
 61 39 l 1
 63 39 l 1
 63 37 l 1
63 41 m 1
 61 41 l 1x3d0c3861
 61 43 l 1
 63 43 l 1x3b0c3861
 63 41 l 1
EndSplineSet
Ligature2: "'liga' Standard Ligatures in Latin lookup 0-1" zero zero zero zero zero zero three
LCarets2: 1 0
EndChar

StartChar: custom_0_0_0_0_0_0_4
Encoding: 260 -1 15
Width: 70
HStem: 25 1<11 12 25 26 43 44 57 58> 26 1<12 13 26 27 44 45 58 59> 29 2<7 9 15 17 21 23 29 31 39 41 47 49 53 55 61 63> 33 2<7 9 15 17 21 23 29 31 39 41 47 49 53 55 61 63> 37 2<7 9 15 17 21 23 29 31 39 41 47 49 53 55 61 63> 41 1<11 12 25 26 43 44 57 58> 42 1<12 13 26 27 44 45 58 59>
VStem: 7 2<25 27 29 31 33 35 37 39 41 43> 10 2<25 26 41 42> 10 1<26 27 42 43> 12 2<26 27 42 43> 13 1<25 26 41 42> 15 2<25 27 29 31 33 35 37 39 41 43> 21 2<25 27 29 31 33 35 37 39 41 43> 24 2<25 26 41 42> 24 1<26 27 42 43> 26 2<26 27 42 43> 27 1<25 26 41 42> 29 2<25 27 29 31 33 35 37 39 41 43> 34 2<31 33 35 37> 39 2<25 27 29 31 33 35 37 39 41 43> 42 2<25 26 41 42> 42 1<26 27 42 43> 44 2<26 27 42 43> 45 1<25 26 41 42> 47 2<25 27 29 31 33 35 37 39 41 43> 53 2<25 27 29 31 33 35 37 39 41 43> 56 2<25 26 41 42> 56 1<26 27 42 43> 58 2<26 27 42 43> 59 1<25 26 41 42> 61 2<25 27 29 31 33 35 37 39 41 43>
LayerCount: 2
Fore
SplineSet
9 25 m 1xb90c3861
 7 25 l 1xb90c3861
 7 27 l 1
 9 27 l 1x790c3861
 9 25 l 1xb90c3861
12 25 m 1xb98c3861
 10 25 l 1xb98c3861
 10 27 l 1
 11 27 l 1x794c3861
 11 26 l 1xb94c3861
 12 26 l 1
 12 25 l 1xb98c3861
14 25 m 1xb91c3861
 13 25 l 1xb91c3861
 13 26 l 1x791c3861
 12 26 l 1xb99c3861
 12 27 l 1
 14 27 l 1x792c3861
 14 25 l 1xb91c3861
17 25 m 1
 15 25 l 1xb90c3861
 15 27 l 1
 17 27 l 1x790c3861
 17 25 l 1
23 25 m 1
 21 25 l 1xb90c3861
 21 27 l 1
 23 27 l 1x790c3861
 23 25 l 1
26 25 m 1xb90e3861
 24 25 l 1xb90e3861
 24 27 l 1
 25 27 l 1x790d3861
 25 26 l 1xb90d3861
 26 26 l 1
 26 25 l 1xb90e3861
28 25 m 1xb90c7861
 27 25 l 1xb90c7861
 27 26 l 1x790c7861
 26 26 l 1xb90e7861
 26 27 l 1
 28 27 l 1x790cb861
 28 25 l 1xb90c7861
31 25 m 1
 29 25 l 1xb90c3861
 29 27 l 1
 31 27 l 1x790c3861
 31 25 l 1
9 29 m 1
 7 29 l 1
 7 31 l 1
 9 31 l 1
 9 29 l 1
9 33 m 1
 7 33 l 1
 7 35 l 1
 9 35 l 1
 9 33 l 1
17 29 m 1
 15 29 l 1
 15 31 l 1
 17 31 l 1
 17 29 l 1
17 33 m 1
 15 33 l 1
 15 35 l 1
 17 35 l 1
 17 33 l 1
9 37 m 1
 7 37 l 1
 7 39 l 1
 9 39 l 1
 9 37 l 1
9 41 m 1x3d0c3861
 7 41 l 1x3d0c3861
 7 43 l 1
 9 43 l 1x3b0c3861
 9 41 l 1x3d0c3861
12 41 m 1x3d8c3861
 10 41 l 1x3d8c3861
 10 43 l 1
 11 43 l 1x3b4c3861
 11 42 l 1x3d4c3861
 12 42 l 1
 12 41 l 1x3d8c3861
17 37 m 1
 15 37 l 1
 15 39 l 1
 17 39 l 1
 17 37 l 1
14 41 m 1x3d1c3861
 13 41 l 1x3d1c3861
 13 42 l 1x3b1c3861
 12 42 l 1x3d9c3861
 12 43 l 1
 14 43 l 1x3b2c3861
 14 41 l 1x3d1c3861
17 41 m 1
 15 41 l 1x3d0c3861
 15 43 l 1
 17 43 l 1x3b0c3861
 17 41 l 1
23 29 m 1
 21 29 l 1
 21 31 l 1
 23 31 l 1
 23 29 l 1
23 33 m 1
 21 33 l 1
 21 35 l 1
 23 35 l 1
 23 33 l 1
31 29 m 1
 29 29 l 1
 29 31 l 1
 31 31 l 1
 31 29 l 1
31 33 m 1
 29 33 l 1
 29 35 l 1
 31 35 l 1
 31 33 l 1
36 31 m 1
 34 31 l 1
 34 33 l 1
 36 33 l 1
 36 31 l 1
23 37 m 1
 21 37 l 1
 21 39 l 1
 23 39 l 1
 23 37 l 1
23 41 m 1
 21 41 l 1x3d0c3861
 21 43 l 1
 23 43 l 1x3b0c3861
 23 41 l 1
26 41 m 1x3d0e3861
 24 41 l 1x3d0e3861
 24 43 l 1
 25 43 l 1x3b0d3861
 25 42 l 1x3d0d3861
 26 42 l 1
 26 41 l 1x3d0e3861
28 41 m 1x3d0c7861
 27 41 l 1x3d0c7861
 27 42 l 1x3b0c7861
 26 42 l 1x3d0e7861
 26 43 l 1
 28 43 l 1x3b0cb861
 28 41 l 1x3d0c7861
31 37 m 1
 29 37 l 1
 29 39 l 1
 31 39 l 1
 31 37 l 1
36 35 m 1
 34 35 l 1
 34 37 l 1
 36 37 l 1
 36 35 l 1
31 41 m 1
 29 41 l 1x3d0c3861
 29 43 l 1
 31 43 l 1x3b0c3861
 31 41 l 1
41 25 m 1xb90c3861
 39 25 l 1xb90c3861
 39 27 l 1
 41 27 l 1x790c3861
 41 25 l 1xb90c3861
44 25 m 1xb90c3c61
 42 25 l 1xb90c3c61
 42 27 l 1
 43 27 l 1x790c3a61
 43 26 l 1xb90c3a61
 44 26 l 1
 44 25 l 1xb90c3c61
46 25 m 1xb90c38e1
 45 25 l 1xb90c38e1
 45 26 l 1x790c38e1
 44 26 l 1xb90c3ce1
 44 27 l 1
 46 27 l 1x790c3961
 46 25 l 1xb90c38e1
49 25 m 1
 47 25 l 1xb90c3861
 47 27 l 1
 49 27 l 1x790c3861
 49 25 l 1
55 25 m 1
 53 25 l 1xb90c3861
 53 27 l 1
 55 27 l 1x790c3861
 55 25 l 1
58 25 m 1xb90c3871
 56 25 l 1xb90c3871
 56 27 l 1
 57 27 l 1x790c3869
 57 26 l 1xb90c3869
 58 26 l 1
 58 25 l 1xb90c3871
60 25 m 1xb90c3863
 59 25 l 1xb90c3863
 59 26 l 1x790c3863
 58 26 l 1xb90c3873
 58 27 l 1
 60 27 l 1x790c3865
 60 25 l 1xb90c3863
63 25 m 1
 61 25 l 1xb90c3861
 61 27 l 1
 63 27 l 1x790c3861
 63 25 l 1
41 29 m 1
 39 29 l 1
 39 31 l 1
 41 31 l 1
 41 29 l 1
41 33 m 1
 39 33 l 1
 39 35 l 1
 41 35 l 1
 41 33 l 1
49 29 m 1
 47 29 l 1
 47 31 l 1
 49 31 l 1
 49 29 l 1
49 33 m 1
 47 33 l 1
 47 35 l 1
 49 35 l 1
 49 33 l 1
41 37 m 1
 39 37 l 1
 39 39 l 1
 41 39 l 1
 41 37 l 1
41 41 m 1x3d0c3861
 39 41 l 1x3d0c3861
 39 43 l 1
 41 43 l 1x3b0c3861
 41 41 l 1x3d0c3861
44 41 m 1x3d0c3c61
 42 41 l 1x3d0c3c61
 42 43 l 1
 43 43 l 1x3b0c3a61
 43 42 l 1x3d0c3a61
 44 42 l 1
 44 41 l 1x3d0c3c61
49 37 m 1
 47 37 l 1
 47 39 l 1
 49 39 l 1
 49 37 l 1
46 41 m 1x3d0c38e1
 45 41 l 1x3d0c38e1
 45 42 l 1x3b0c38e1
 44 42 l 1x3d0c3ce1
 44 43 l 1
 46 43 l 1x3b0c3961
 46 41 l 1x3d0c38e1
49 41 m 1
 47 41 l 1x3d0c3861
 47 43 l 1
 49 43 l 1x3b0c3861
 49 41 l 1
55 29 m 1
 53 29 l 1
 53 31 l 1
 55 31 l 1
 55 29 l 1
55 33 m 1
 53 33 l 1
 53 35 l 1
 55 35 l 1
 55 33 l 1
63 29 m 1
 61 29 l 1
 61 31 l 1
 63 31 l 1
 63 29 l 1
63 33 m 1
 61 33 l 1
 61 35 l 1
 63 35 l 1
 63 33 l 1
55 37 m 1
 53 37 l 1
 53 39 l 1
 55 39 l 1
 55 37 l 1
55 41 m 1
 53 41 l 1x3d0c3861
 53 43 l 1
 55 43 l 1x3b0c3861
 55 41 l 1
58 41 m 1x3d0c3871
 56 41 l 1x3d0c3871
 56 43 l 1
 57 43 l 1x3b0c3869
 57 42 l 1x3d0c3869
 58 42 l 1
 58 41 l 1x3d0c3871
60 41 m 1x3d0c3863
 59 41 l 1x3d0c3863
 59 42 l 1x3b0c3863
 58 42 l 1x3d0c3873
 58 43 l 1
 60 43 l 1x3b0c3865
 60 41 l 1x3d0c3863
63 37 m 1
 61 37 l 1
 61 39 l 1
 63 39 l 1
 63 37 l 1
63 41 m 1
 61 41 l 1x3d0c3861
 61 43 l 1
 63 43 l 1x3b0c3861
 63 41 l 1
EndSplineSet
Ligature2: "'liga' Standard Ligatures in Latin lookup 0-1" zero zero zero zero zero zero four
LCarets2: 1 0
EndChar

StartChar: custom_0_0_0_0_0_0_5
Encoding: 261 -1 16
Width: 70
HStem: 25 1<11 12 25 26 43 44 57 58> 26 1<12 13 26 27 44 45 58 59> 29 2<7 9 15 17 21 23 29 31 39 41 47 49 53 55 61 63> 33 2<7 9 15 17 21 23 29 31 39 41 47 49 53 55 61 63> 37 2<7 9 15 17 21 23 29 31 39 41 47 49 53 55 61 63> 41 1<11 12 25 26 43 44 57 58> 42 1<12 13 26 27 44 45 58 59>
VStem: 7 2<25 27 29 31 33 35 37 39 41 43> 10 2<25 26 41 42> 10 1<26 27 42 43> 12 2<26 27 42 43> 13 1<25 26 41 42> 15 2<25 27 29 31 33 35 37 39 41 43> 21 2<25 27 29 31 33 35 37 39 41 43> 24 2<25 26 41 42> 24 1<26 27 42 43> 26 2<26 27 42 43> 27 1<25 26 41 42> 29 2<25 27 29 31 33 35 37 39 41 43> 34 2<31 33 35 37> 39 2<25 27 29 31 33 35 37 39 41 43> 42 2<25 26 41 42> 42 1<26 27 42 43> 44 2<26 27 42 43> 45 1<25 26 41 42> 47 2<25 27 29 31 33 35 37 39 41 43> 53 2<25 27 29 31 33 35 37 39 41 43> 56 2<25 26 41 42> 56 1<26 27 42 43> 58 2<26 27 42 43> 59 1<25 26 41 42> 61 2<25 27 29 31 33 35 37 39 41 43>
LayerCount: 2
Fore
SplineSet
9 25 m 1xb90c3861
 7 25 l 1xb90c3861
 7 27 l 1
 9 27 l 1x790c3861
 9 25 l 1xb90c3861
12 25 m 1xb98c3861
 10 25 l 1xb98c3861
 10 27 l 1
 11 27 l 1x794c3861
 11 26 l 1xb94c3861
 12 26 l 1
 12 25 l 1xb98c3861
14 25 m 1xb91c3861
 13 25 l 1xb91c3861
 13 26 l 1x791c3861
 12 26 l 1xb99c3861
 12 27 l 1
 14 27 l 1x792c3861
 14 25 l 1xb91c3861
17 25 m 1
 15 25 l 1xb90c3861
 15 27 l 1
 17 27 l 1x790c3861
 17 25 l 1
23 25 m 1
 21 25 l 1xb90c3861
 21 27 l 1
 23 27 l 1x790c3861
 23 25 l 1
26 25 m 1xb90e3861
 24 25 l 1xb90e3861
 24 27 l 1
 25 27 l 1x790d3861
 25 26 l 1xb90d3861
 26 26 l 1
 26 25 l 1xb90e3861
28 25 m 1xb90c7861
 27 25 l 1xb90c7861
 27 26 l 1x790c7861
 26 26 l 1xb90e7861
 26 27 l 1
 28 27 l 1x790cb861
 28 25 l 1xb90c7861
31 25 m 1
 29 25 l 1xb90c3861
 29 27 l 1
 31 27 l 1x790c3861
 31 25 l 1
9 29 m 1
 7 29 l 1
 7 31 l 1
 9 31 l 1
 9 29 l 1
9 33 m 1
 7 33 l 1
 7 35 l 1
 9 35 l 1
 9 33 l 1
17 29 m 1
 15 29 l 1
 15 31 l 1
 17 31 l 1
 17 29 l 1
17 33 m 1
 15 33 l 1
 15 35 l 1
 17 35 l 1
 17 33 l 1
9 37 m 1
 7 37 l 1
 7 39 l 1
 9 39 l 1
 9 37 l 1
9 41 m 1x3d0c3861
 7 41 l 1x3d0c3861
 7 43 l 1
 9 43 l 1x3b0c3861
 9 41 l 1x3d0c3861
12 41 m 1x3d8c3861
 10 41 l 1x3d8c3861
 10 43 l 1
 11 43 l 1x3b4c3861
 11 42 l 1x3d4c3861
 12 42 l 1
 12 41 l 1x3d8c3861
17 37 m 1
 15 37 l 1
 15 39 l 1
 17 39 l 1
 17 37 l 1
14 41 m 1x3d1c3861
 13 41 l 1x3d1c3861
 13 42 l 1x3b1c3861
 12 42 l 1x3d9c3861
 12 43 l 1
 14 43 l 1x3b2c3861
 14 41 l 1x3d1c3861
17 41 m 1
 15 41 l 1x3d0c3861
 15 43 l 1
 17 43 l 1x3b0c3861
 17 41 l 1
23 29 m 1
 21 29 l 1
 21 31 l 1
 23 31 l 1
 23 29 l 1
23 33 m 1
 21 33 l 1
 21 35 l 1
 23 35 l 1
 23 33 l 1
31 29 m 1
 29 29 l 1
 29 31 l 1
 31 31 l 1
 31 29 l 1
31 33 m 1
 29 33 l 1
 29 35 l 1
 31 35 l 1
 31 33 l 1
36 31 m 1
 34 31 l 1
 34 33 l 1
 36 33 l 1
 36 31 l 1
23 37 m 1
 21 37 l 1
 21 39 l 1
 23 39 l 1
 23 37 l 1
23 41 m 1
 21 41 l 1x3d0c3861
 21 43 l 1
 23 43 l 1x3b0c3861
 23 41 l 1
26 41 m 1x3d0e3861
 24 41 l 1x3d0e3861
 24 43 l 1
 25 43 l 1x3b0d3861
 25 42 l 1x3d0d3861
 26 42 l 1
 26 41 l 1x3d0e3861
28 41 m 1x3d0c7861
 27 41 l 1x3d0c7861
 27 42 l 1x3b0c7861
 26 42 l 1x3d0e7861
 26 43 l 1
 28 43 l 1x3b0cb861
 28 41 l 1x3d0c7861
31 37 m 1
 29 37 l 1
 29 39 l 1
 31 39 l 1
 31 37 l 1
36 35 m 1
 34 35 l 1
 34 37 l 1
 36 37 l 1
 36 35 l 1
31 41 m 1
 29 41 l 1x3d0c3861
 29 43 l 1
 31 43 l 1x3b0c3861
 31 41 l 1
41 25 m 1xb90c3861
 39 25 l 1xb90c3861
 39 27 l 1
 41 27 l 1x790c3861
 41 25 l 1xb90c3861
44 25 m 1xb90c3c61
 42 25 l 1xb90c3c61
 42 27 l 1
 43 27 l 1x790c3a61
 43 26 l 1xb90c3a61
 44 26 l 1
 44 25 l 1xb90c3c61
46 25 m 1xb90c38e1
 45 25 l 1xb90c38e1
 45 26 l 1x790c38e1
 44 26 l 1xb90c3ce1
 44 27 l 1
 46 27 l 1x790c3961
 46 25 l 1xb90c38e1
49 25 m 1
 47 25 l 1xb90c3861
 47 27 l 1
 49 27 l 1x790c3861
 49 25 l 1
55 25 m 1
 53 25 l 1xb90c3861
 53 27 l 1
 55 27 l 1x790c3861
 55 25 l 1
58 25 m 1xb90c3871
 56 25 l 1xb90c3871
 56 27 l 1
 57 27 l 1x790c3869
 57 26 l 1xb90c3869
 58 26 l 1
 58 25 l 1xb90c3871
60 25 m 1xb90c3863
 59 25 l 1xb90c3863
 59 26 l 1x790c3863
 58 26 l 1xb90c3873
 58 27 l 1
 60 27 l 1x790c3865
 60 25 l 1xb90c3863
63 25 m 1
 61 25 l 1xb90c3861
 61 27 l 1
 63 27 l 1x790c3861
 63 25 l 1
41 29 m 1
 39 29 l 1
 39 31 l 1
 41 31 l 1
 41 29 l 1
41 33 m 1
 39 33 l 1
 39 35 l 1
 41 35 l 1
 41 33 l 1
49 29 m 1
 47 29 l 1
 47 31 l 1
 49 31 l 1
 49 29 l 1
49 33 m 1
 47 33 l 1
 47 35 l 1
 49 35 l 1
 49 33 l 1
41 37 m 1
 39 37 l 1
 39 39 l 1
 41 39 l 1
 41 37 l 1
41 41 m 1x3d0c3861
 39 41 l 1x3d0c3861
 39 43 l 1
 41 43 l 1x3b0c3861
 41 41 l 1x3d0c3861
44 41 m 1x3d0c3c61
 42 41 l 1x3d0c3c61
 42 43 l 1
 43 43 l 1x3b0c3a61
 43 42 l 1x3d0c3a61
 44 42 l 1
 44 41 l 1x3d0c3c61
49 37 m 1
 47 37 l 1
 47 39 l 1
 49 39 l 1
 49 37 l 1
46 41 m 1x3d0c38e1
 45 41 l 1x3d0c38e1
 45 42 l 1x3b0c38e1
 44 42 l 1x3d0c3ce1
 44 43 l 1
 46 43 l 1x3b0c3961
 46 41 l 1x3d0c38e1
49 41 m 1
 47 41 l 1x3d0c3861
 47 43 l 1
 49 43 l 1x3b0c3861
 49 41 l 1
55 29 m 1
 53 29 l 1
 53 31 l 1
 55 31 l 1
 55 29 l 1
55 33 m 1
 53 33 l 1
 53 35 l 1
 55 35 l 1
 55 33 l 1
63 29 m 1
 61 29 l 1
 61 31 l 1
 63 31 l 1
 63 29 l 1
63 33 m 1
 61 33 l 1
 61 35 l 1
 63 35 l 1
 63 33 l 1
55 37 m 1
 53 37 l 1
 53 39 l 1
 55 39 l 1
 55 37 l 1
55 41 m 1
 53 41 l 1x3d0c3861
 53 43 l 1
 55 43 l 1x3b0c3861
 55 41 l 1
58 41 m 1x3d0c3871
 56 41 l 1x3d0c3871
 56 43 l 1
 57 43 l 1x3b0c3869
 57 42 l 1x3d0c3869
 58 42 l 1
 58 41 l 1x3d0c3871
60 41 m 1x3d0c3863
 59 41 l 1x3d0c3863
 59 42 l 1x3b0c3863
 58 42 l 1x3d0c3873
 58 43 l 1
 60 43 l 1x3b0c3865
 60 41 l 1x3d0c3863
63 37 m 1
 61 37 l 1
 61 39 l 1
 63 39 l 1
 63 37 l 1
63 41 m 1
 61 41 l 1x3d0c3861
 61 43 l 1
 63 43 l 1x3b0c3861
 63 41 l 1
EndSplineSet
Ligature2: "'liga' Standard Ligatures in Latin lookup 0-1" zero zero zero zero zero zero five
LCarets2: 1 0
EndChar

StartChar: custom_0_0_0_0_0_0_6
Encoding: 262 -1 17
Width: 70
HStem: 25 1<11 12 25 26 43 44 57 58> 26 1<12 13 26 27 44 45 58 59> 29 2<7 9 15 17 21 23 29 31 39 41 47 49 53 55 61 63> 33 2<7 9 15 17 21 23 29 31 39 41 47 49 53 55 61 63> 37 2<7 9 15 17 21 23 29 31 39 41 47 49 53 55 61 63> 41 1<11 12 25 26 43 44 57 58> 42 1<12 13 26 27 44 45 58 59>
VStem: 7 2<25 27 29 31 33 35 37 39 41 43> 10 2<25 26 41 42> 10 1<26 27 42 43> 12 2<26 27 42 43> 13 1<25 26 41 42> 15 2<25 27 29 31 33 35 37 39 41 43> 21 2<25 27 29 31 33 35 37 39 41 43> 24 2<25 26 41 42> 24 1<26 27 42 43> 26 2<26 27 42 43> 27 1<25 26 41 42> 29 2<25 27 29 31 33 35 37 39 41 43> 34 2<31 33 35 37> 39 2<25 27 29 31 33 35 37 39 41 43> 42 2<25 26 41 42> 42 1<26 27 42 43> 44 2<26 27 42 43> 45 1<25 26 41 42> 47 2<25 27 29 31 33 35 37 39 41 43> 53 2<25 27 29 31 33 35 37 39 41 43> 56 2<25 26 41 42> 56 1<26 27 42 43> 58 2<26 27 42 43> 59 1<25 26 41 42> 61 2<25 27 29 31 33 35 37 39 41 43>
LayerCount: 2
Fore
SplineSet
9 25 m 1xb90c3861
 7 25 l 1xb90c3861
 7 27 l 1
 9 27 l 1x790c3861
 9 25 l 1xb90c3861
12 25 m 1xb98c3861
 10 25 l 1xb98c3861
 10 27 l 1
 11 27 l 1x794c3861
 11 26 l 1xb94c3861
 12 26 l 1
 12 25 l 1xb98c3861
14 25 m 1xb91c3861
 13 25 l 1xb91c3861
 13 26 l 1x791c3861
 12 26 l 1xb99c3861
 12 27 l 1
 14 27 l 1x792c3861
 14 25 l 1xb91c3861
17 25 m 1
 15 25 l 1xb90c3861
 15 27 l 1
 17 27 l 1x790c3861
 17 25 l 1
23 25 m 1
 21 25 l 1xb90c3861
 21 27 l 1
 23 27 l 1x790c3861
 23 25 l 1
26 25 m 1xb90e3861
 24 25 l 1xb90e3861
 24 27 l 1
 25 27 l 1x790d3861
 25 26 l 1xb90d3861
 26 26 l 1
 26 25 l 1xb90e3861
28 25 m 1xb90c7861
 27 25 l 1xb90c7861
 27 26 l 1x790c7861
 26 26 l 1xb90e7861
 26 27 l 1
 28 27 l 1x790cb861
 28 25 l 1xb90c7861
31 25 m 1
 29 25 l 1xb90c3861
 29 27 l 1
 31 27 l 1x790c3861
 31 25 l 1
9 29 m 1
 7 29 l 1
 7 31 l 1
 9 31 l 1
 9 29 l 1
9 33 m 1
 7 33 l 1
 7 35 l 1
 9 35 l 1
 9 33 l 1
17 29 m 1
 15 29 l 1
 15 31 l 1
 17 31 l 1
 17 29 l 1
17 33 m 1
 15 33 l 1
 15 35 l 1
 17 35 l 1
 17 33 l 1
9 37 m 1
 7 37 l 1
 7 39 l 1
 9 39 l 1
 9 37 l 1
9 41 m 1x3d0c3861
 7 41 l 1x3d0c3861
 7 43 l 1
 9 43 l 1x3b0c3861
 9 41 l 1x3d0c3861
12 41 m 1x3d8c3861
 10 41 l 1x3d8c3861
 10 43 l 1
 11 43 l 1x3b4c3861
 11 42 l 1x3d4c3861
 12 42 l 1
 12 41 l 1x3d8c3861
17 37 m 1
 15 37 l 1
 15 39 l 1
 17 39 l 1
 17 37 l 1
14 41 m 1x3d1c3861
 13 41 l 1x3d1c3861
 13 42 l 1x3b1c3861
 12 42 l 1x3d9c3861
 12 43 l 1
 14 43 l 1x3b2c3861
 14 41 l 1x3d1c3861
17 41 m 1
 15 41 l 1x3d0c3861
 15 43 l 1
 17 43 l 1x3b0c3861
 17 41 l 1
23 29 m 1
 21 29 l 1
 21 31 l 1
 23 31 l 1
 23 29 l 1
23 33 m 1
 21 33 l 1
 21 35 l 1
 23 35 l 1
 23 33 l 1
31 29 m 1
 29 29 l 1
 29 31 l 1
 31 31 l 1
 31 29 l 1
31 33 m 1
 29 33 l 1
 29 35 l 1
 31 35 l 1
 31 33 l 1
36 31 m 1
 34 31 l 1
 34 33 l 1
 36 33 l 1
 36 31 l 1
23 37 m 1
 21 37 l 1
 21 39 l 1
 23 39 l 1
 23 37 l 1
23 41 m 1
 21 41 l 1x3d0c3861
 21 43 l 1
 23 43 l 1x3b0c3861
 23 41 l 1
26 41 m 1x3d0e3861
 24 41 l 1x3d0e3861
 24 43 l 1
 25 43 l 1x3b0d3861
 25 42 l 1x3d0d3861
 26 42 l 1
 26 41 l 1x3d0e3861
28 41 m 1x3d0c7861
 27 41 l 1x3d0c7861
 27 42 l 1x3b0c7861
 26 42 l 1x3d0e7861
 26 43 l 1
 28 43 l 1x3b0cb861
 28 41 l 1x3d0c7861
31 37 m 1
 29 37 l 1
 29 39 l 1
 31 39 l 1
 31 37 l 1
36 35 m 1
 34 35 l 1
 34 37 l 1
 36 37 l 1
 36 35 l 1
31 41 m 1
 29 41 l 1x3d0c3861
 29 43 l 1
 31 43 l 1x3b0c3861
 31 41 l 1
41 25 m 1xb90c3861
 39 25 l 1xb90c3861
 39 27 l 1
 41 27 l 1x790c3861
 41 25 l 1xb90c3861
44 25 m 1xb90c3c61
 42 25 l 1xb90c3c61
 42 27 l 1
 43 27 l 1x790c3a61
 43 26 l 1xb90c3a61
 44 26 l 1
 44 25 l 1xb90c3c61
46 25 m 1xb90c38e1
 45 25 l 1xb90c38e1
 45 26 l 1x790c38e1
 44 26 l 1xb90c3ce1
 44 27 l 1
 46 27 l 1x790c3961
 46 25 l 1xb90c38e1
49 25 m 1
 47 25 l 1xb90c3861
 47 27 l 1
 49 27 l 1x790c3861
 49 25 l 1
55 25 m 1
 53 25 l 1xb90c3861
 53 27 l 1
 55 27 l 1x790c3861
 55 25 l 1
58 25 m 1xb90c3871
 56 25 l 1xb90c3871
 56 27 l 1
 57 27 l 1x790c3869
 57 26 l 1xb90c3869
 58 26 l 1
 58 25 l 1xb90c3871
60 25 m 1xb90c3863
 59 25 l 1xb90c3863
 59 26 l 1x790c3863
 58 26 l 1xb90c3873
 58 27 l 1
 60 27 l 1x790c3865
 60 25 l 1xb90c3863
63 25 m 1
 61 25 l 1xb90c3861
 61 27 l 1
 63 27 l 1x790c3861
 63 25 l 1
41 29 m 1
 39 29 l 1
 39 31 l 1
 41 31 l 1
 41 29 l 1
41 33 m 1
 39 33 l 1
 39 35 l 1
 41 35 l 1
 41 33 l 1
49 29 m 1
 47 29 l 1
 47 31 l 1
 49 31 l 1
 49 29 l 1
49 33 m 1
 47 33 l 1
 47 35 l 1
 49 35 l 1
 49 33 l 1
41 37 m 1
 39 37 l 1
 39 39 l 1
 41 39 l 1
 41 37 l 1
41 41 m 1x3d0c3861
 39 41 l 1x3d0c3861
 39 43 l 1
 41 43 l 1x3b0c3861
 41 41 l 1x3d0c3861
44 41 m 1x3d0c3c61
 42 41 l 1x3d0c3c61
 42 43 l 1
 43 43 l 1x3b0c3a61
 43 42 l 1x3d0c3a61
 44 42 l 1
 44 41 l 1x3d0c3c61
49 37 m 1
 47 37 l 1
 47 39 l 1
 49 39 l 1
 49 37 l 1
46 41 m 1x3d0c38e1
 45 41 l 1x3d0c38e1
 45 42 l 1x3b0c38e1
 44 42 l 1x3d0c3ce1
 44 43 l 1
 46 43 l 1x3b0c3961
 46 41 l 1x3d0c38e1
49 41 m 1
 47 41 l 1x3d0c3861
 47 43 l 1
 49 43 l 1x3b0c3861
 49 41 l 1
55 29 m 1
 53 29 l 1
 53 31 l 1
 55 31 l 1
 55 29 l 1
55 33 m 1
 53 33 l 1
 53 35 l 1
 55 35 l 1
 55 33 l 1
63 29 m 1
 61 29 l 1
 61 31 l 1
 63 31 l 1
 63 29 l 1
63 33 m 1
 61 33 l 1
 61 35 l 1
 63 35 l 1
 63 33 l 1
55 37 m 1
 53 37 l 1
 53 39 l 1
 55 39 l 1
 55 37 l 1
55 41 m 1
 53 41 l 1x3d0c3861
 53 43 l 1
 55 43 l 1x3b0c3861
 55 41 l 1
58 41 m 1x3d0c3871
 56 41 l 1x3d0c3871
 56 43 l 1
 57 43 l 1x3b0c3869
 57 42 l 1x3d0c3869
 58 42 l 1
 58 41 l 1x3d0c3871
60 41 m 1x3d0c3863
 59 41 l 1x3d0c3863
 59 42 l 1x3b0c3863
 58 42 l 1x3d0c3873
 58 43 l 1
 60 43 l 1x3b0c3865
 60 41 l 1x3d0c3863
63 37 m 1
 61 37 l 1
 61 39 l 1
 63 39 l 1
 63 37 l 1
63 41 m 1
 61 41 l 1x3d0c3861
 61 43 l 1
 63 43 l 1x3b0c3861
 63 41 l 1
EndSplineSet
Ligature2: "'liga' Standard Ligatures in Latin lookup 0-1" zero zero zero zero zero zero six
LCarets2: 1 0
EndChar

StartChar: custom_0_0_0_0_0_0_7
Encoding: 263 -1 18
Width: 70
HStem: 25 1<11 12 25 26 43 44 57 58> 26 1<12 13 26 27 44 45 58 59> 29 2<7 9 15 17 21 23 29 31 39 41 47 49 53 55 61 63> 33 2<7 9 15 17 21 23 29 31 39 41 47 49 53 55 61 63> 37 2<7 9 15 17 21 23 29 31 39 41 47 49 53 55 61 63> 41 1<11 12 25 26 43 44 57 58> 42 1<12 13 26 27 44 45 58 59>
VStem: 7 2<25 27 29 31 33 35 37 39 41 43> 10 2<25 26 41 42> 10 1<26 27 42 43> 12 2<26 27 42 43> 13 1<25 26 41 42> 15 2<25 27 29 31 33 35 37 39 41 43> 21 2<25 27 29 31 33 35 37 39 41 43> 24 2<25 26 41 42> 24 1<26 27 42 43> 26 2<26 27 42 43> 27 1<25 26 41 42> 29 2<25 27 29 31 33 35 37 39 41 43> 34 2<31 33 35 37> 39 2<25 27 29 31 33 35 37 39 41 43> 42 2<25 26 41 42> 42 1<26 27 42 43> 44 2<26 27 42 43> 45 1<25 26 41 42> 47 2<25 27 29 31 33 35 37 39 41 43> 53 2<25 27 29 31 33 35 37 39 41 43> 56 2<25 26 41 42> 56 1<26 27 42 43> 58 2<26 27 42 43> 59 1<25 26 41 42> 61 2<25 27 29 31 33 35 37 39 41 43>
LayerCount: 2
Fore
SplineSet
9 25 m 1xb90c3861
 7 25 l 1xb90c3861
 7 27 l 1
 9 27 l 1x790c3861
 9 25 l 1xb90c3861
12 25 m 1xb98c3861
 10 25 l 1xb98c3861
 10 27 l 1
 11 27 l 1x794c3861
 11 26 l 1xb94c3861
 12 26 l 1
 12 25 l 1xb98c3861
14 25 m 1xb91c3861
 13 25 l 1xb91c3861
 13 26 l 1x791c3861
 12 26 l 1xb99c3861
 12 27 l 1
 14 27 l 1x792c3861
 14 25 l 1xb91c3861
17 25 m 1
 15 25 l 1xb90c3861
 15 27 l 1
 17 27 l 1x790c3861
 17 25 l 1
23 25 m 1
 21 25 l 1xb90c3861
 21 27 l 1
 23 27 l 1x790c3861
 23 25 l 1
26 25 m 1xb90e3861
 24 25 l 1xb90e3861
 24 27 l 1
 25 27 l 1x790d3861
 25 26 l 1xb90d3861
 26 26 l 1
 26 25 l 1xb90e3861
28 25 m 1xb90c7861
 27 25 l 1xb90c7861
 27 26 l 1x790c7861
 26 26 l 1xb90e7861
 26 27 l 1
 28 27 l 1x790cb861
 28 25 l 1xb90c7861
31 25 m 1
 29 25 l 1xb90c3861
 29 27 l 1
 31 27 l 1x790c3861
 31 25 l 1
9 29 m 1
 7 29 l 1
 7 31 l 1
 9 31 l 1
 9 29 l 1
9 33 m 1
 7 33 l 1
 7 35 l 1
 9 35 l 1
 9 33 l 1
17 29 m 1
 15 29 l 1
 15 31 l 1
 17 31 l 1
 17 29 l 1
17 33 m 1
 15 33 l 1
 15 35 l 1
 17 35 l 1
 17 33 l 1
9 37 m 1
 7 37 l 1
 7 39 l 1
 9 39 l 1
 9 37 l 1
9 41 m 1x3d0c3861
 7 41 l 1x3d0c3861
 7 43 l 1
 9 43 l 1x3b0c3861
 9 41 l 1x3d0c3861
12 41 m 1x3d8c3861
 10 41 l 1x3d8c3861
 10 43 l 1
 11 43 l 1x3b4c3861
 11 42 l 1x3d4c3861
 12 42 l 1
 12 41 l 1x3d8c3861
17 37 m 1
 15 37 l 1
 15 39 l 1
 17 39 l 1
 17 37 l 1
14 41 m 1x3d1c3861
 13 41 l 1x3d1c3861
 13 42 l 1x3b1c3861
 12 42 l 1x3d9c3861
 12 43 l 1
 14 43 l 1x3b2c3861
 14 41 l 1x3d1c3861
17 41 m 1
 15 41 l 1x3d0c3861
 15 43 l 1
 17 43 l 1x3b0c3861
 17 41 l 1
23 29 m 1
 21 29 l 1
 21 31 l 1
 23 31 l 1
 23 29 l 1
23 33 m 1
 21 33 l 1
 21 35 l 1
 23 35 l 1
 23 33 l 1
31 29 m 1
 29 29 l 1
 29 31 l 1
 31 31 l 1
 31 29 l 1
31 33 m 1
 29 33 l 1
 29 35 l 1
 31 35 l 1
 31 33 l 1
36 31 m 1
 34 31 l 1
 34 33 l 1
 36 33 l 1
 36 31 l 1
23 37 m 1
 21 37 l 1
 21 39 l 1
 23 39 l 1
 23 37 l 1
23 41 m 1
 21 41 l 1x3d0c3861
 21 43 l 1
 23 43 l 1x3b0c3861
 23 41 l 1
26 41 m 1x3d0e3861
 24 41 l 1x3d0e3861
 24 43 l 1
 25 43 l 1x3b0d3861
 25 42 l 1x3d0d3861
 26 42 l 1
 26 41 l 1x3d0e3861
28 41 m 1x3d0c7861
 27 41 l 1x3d0c7861
 27 42 l 1x3b0c7861
 26 42 l 1x3d0e7861
 26 43 l 1
 28 43 l 1x3b0cb861
 28 41 l 1x3d0c7861
31 37 m 1
 29 37 l 1
 29 39 l 1
 31 39 l 1
 31 37 l 1
36 35 m 1
 34 35 l 1
 34 37 l 1
 36 37 l 1
 36 35 l 1
31 41 m 1
 29 41 l 1x3d0c3861
 29 43 l 1
 31 43 l 1x3b0c3861
 31 41 l 1
41 25 m 1xb90c3861
 39 25 l 1xb90c3861
 39 27 l 1
 41 27 l 1x790c3861
 41 25 l 1xb90c3861
44 25 m 1xb90c3c61
 42 25 l 1xb90c3c61
 42 27 l 1
 43 27 l 1x790c3a61
 43 26 l 1xb90c3a61
 44 26 l 1
 44 25 l 1xb90c3c61
46 25 m 1xb90c38e1
 45 25 l 1xb90c38e1
 45 26 l 1x790c38e1
 44 26 l 1xb90c3ce1
 44 27 l 1
 46 27 l 1x790c3961
 46 25 l 1xb90c38e1
49 25 m 1
 47 25 l 1xb90c3861
 47 27 l 1
 49 27 l 1x790c3861
 49 25 l 1
55 25 m 1
 53 25 l 1xb90c3861
 53 27 l 1
 55 27 l 1x790c3861
 55 25 l 1
58 25 m 1xb90c3871
 56 25 l 1xb90c3871
 56 27 l 1
 57 27 l 1x790c3869
 57 26 l 1xb90c3869
 58 26 l 1
 58 25 l 1xb90c3871
60 25 m 1xb90c3863
 59 25 l 1xb90c3863
 59 26 l 1x790c3863
 58 26 l 1xb90c3873
 58 27 l 1
 60 27 l 1x790c3865
 60 25 l 1xb90c3863
63 25 m 1
 61 25 l 1xb90c3861
 61 27 l 1
 63 27 l 1x790c3861
 63 25 l 1
41 29 m 1
 39 29 l 1
 39 31 l 1
 41 31 l 1
 41 29 l 1
41 33 m 1
 39 33 l 1
 39 35 l 1
 41 35 l 1
 41 33 l 1
49 29 m 1
 47 29 l 1
 47 31 l 1
 49 31 l 1
 49 29 l 1
49 33 m 1
 47 33 l 1
 47 35 l 1
 49 35 l 1
 49 33 l 1
41 37 m 1
 39 37 l 1
 39 39 l 1
 41 39 l 1
 41 37 l 1
41 41 m 1x3d0c3861
 39 41 l 1x3d0c3861
 39 43 l 1
 41 43 l 1x3b0c3861
 41 41 l 1x3d0c3861
44 41 m 1x3d0c3c61
 42 41 l 1x3d0c3c61
 42 43 l 1
 43 43 l 1x3b0c3a61
 43 42 l 1x3d0c3a61
 44 42 l 1
 44 41 l 1x3d0c3c61
49 37 m 1
 47 37 l 1
 47 39 l 1
 49 39 l 1
 49 37 l 1
46 41 m 1x3d0c38e1
 45 41 l 1x3d0c38e1
 45 42 l 1x3b0c38e1
 44 42 l 1x3d0c3ce1
 44 43 l 1
 46 43 l 1x3b0c3961
 46 41 l 1x3d0c38e1
49 41 m 1
 47 41 l 1x3d0c3861
 47 43 l 1
 49 43 l 1x3b0c3861
 49 41 l 1
55 29 m 1
 53 29 l 1
 53 31 l 1
 55 31 l 1
 55 29 l 1
55 33 m 1
 53 33 l 1
 53 35 l 1
 55 35 l 1
 55 33 l 1
63 29 m 1
 61 29 l 1
 61 31 l 1
 63 31 l 1
 63 29 l 1
63 33 m 1
 61 33 l 1
 61 35 l 1
 63 35 l 1
 63 33 l 1
55 37 m 1
 53 37 l 1
 53 39 l 1
 55 39 l 1
 55 37 l 1
55 41 m 1
 53 41 l 1x3d0c3861
 53 43 l 1
 55 43 l 1x3b0c3861
 55 41 l 1
58 41 m 1x3d0c3871
 56 41 l 1x3d0c3871
 56 43 l 1
 57 43 l 1x3b0c3869
 57 42 l 1x3d0c3869
 58 42 l 1
 58 41 l 1x3d0c3871
60 41 m 1x3d0c3863
 59 41 l 1x3d0c3863
 59 42 l 1x3b0c3863
 58 42 l 1x3d0c3873
 58 43 l 1
 60 43 l 1x3b0c3865
 60 41 l 1x3d0c3863
63 37 m 1
 61 37 l 1
 61 39 l 1
 63 39 l 1
 63 37 l 1
63 41 m 1
 61 41 l 1x3d0c3861
 61 43 l 1
 63 43 l 1x3b0c3861
 63 41 l 1
EndSplineSet
Ligature2: "'liga' Standard Ligatures in Latin lookup 0-1" zero zero zero zero zero zero seven
LCarets2: 1 0
EndChar

StartChar: custom_0_0_0_0_0_0_8
Encoding: 264 -1 19
Width: 70
HStem: 25 1<11 12 25 26 43 44 57 58> 26 1<12 13 26 27 44 45 58 59> 29 2<7 9 15 17 21 23 29 31 39 41 47 49 53 55 61 63> 33 2<7 9 15 17 21 23 29 31 39 41 47 49 53 55 61 63> 37 2<7 9 15 17 21 23 29 31 39 41 47 49 53 55 61 63> 41 1<11 12 25 26 43 44 57 58> 42 1<12 13 26 27 44 45 58 59>
VStem: 7 2<25 27 29 31 33 35 37 39 41 43> 10 2<25 26 41 42> 10 1<26 27 42 43> 12 2<26 27 42 43> 13 1<25 26 41 42> 15 2<25 27 29 31 33 35 37 39 41 43> 21 2<25 27 29 31 33 35 37 39 41 43> 24 2<25 26 41 42> 24 1<26 27 42 43> 26 2<26 27 42 43> 27 1<25 26 41 42> 29 2<25 27 29 31 33 35 37 39 41 43> 34 2<31 33 35 37> 39 2<25 27 29 31 33 35 37 39 41 43> 42 2<25 26 41 42> 42 1<26 27 42 43> 44 2<26 27 42 43> 45 1<25 26 41 42> 47 2<25 27 29 31 33 35 37 39 41 43> 53 2<25 27 29 31 33 35 37 39 41 43> 56 2<25 26 41 42> 56 1<26 27 42 43> 58 2<26 27 42 43> 59 1<25 26 41 42> 61 2<25 27 29 31 33 35 37 39 41 43>
LayerCount: 2
Fore
SplineSet
9 25 m 1xb90c3861
 7 25 l 1xb90c3861
 7 27 l 1
 9 27 l 1x790c3861
 9 25 l 1xb90c3861
12 25 m 1xb98c3861
 10 25 l 1xb98c3861
 10 27 l 1
 11 27 l 1x794c3861
 11 26 l 1xb94c3861
 12 26 l 1
 12 25 l 1xb98c3861
14 25 m 1xb91c3861
 13 25 l 1xb91c3861
 13 26 l 1x791c3861
 12 26 l 1xb99c3861
 12 27 l 1
 14 27 l 1x792c3861
 14 25 l 1xb91c3861
17 25 m 1
 15 25 l 1xb90c3861
 15 27 l 1
 17 27 l 1x790c3861
 17 25 l 1
23 25 m 1
 21 25 l 1xb90c3861
 21 27 l 1
 23 27 l 1x790c3861
 23 25 l 1
26 25 m 1xb90e3861
 24 25 l 1xb90e3861
 24 27 l 1
 25 27 l 1x790d3861
 25 26 l 1xb90d3861
 26 26 l 1
 26 25 l 1xb90e3861
28 25 m 1xb90c7861
 27 25 l 1xb90c7861
 27 26 l 1x790c7861
 26 26 l 1xb90e7861
 26 27 l 1
 28 27 l 1x790cb861
 28 25 l 1xb90c7861
31 25 m 1
 29 25 l 1xb90c3861
 29 27 l 1
 31 27 l 1x790c3861
 31 25 l 1
9 29 m 1
 7 29 l 1
 7 31 l 1
 9 31 l 1
 9 29 l 1
9 33 m 1
 7 33 l 1
 7 35 l 1
 9 35 l 1
 9 33 l 1
17 29 m 1
 15 29 l 1
 15 31 l 1
 17 31 l 1
 17 29 l 1
17 33 m 1
 15 33 l 1
 15 35 l 1
 17 35 l 1
 17 33 l 1
9 37 m 1
 7 37 l 1
 7 39 l 1
 9 39 l 1
 9 37 l 1
9 41 m 1x3d0c3861
 7 41 l 1x3d0c3861
 7 43 l 1
 9 43 l 1x3b0c3861
 9 41 l 1x3d0c3861
12 41 m 1x3d8c3861
 10 41 l 1x3d8c3861
 10 43 l 1
 11 43 l 1x3b4c3861
 11 42 l 1x3d4c3861
 12 42 l 1
 12 41 l 1x3d8c3861
17 37 m 1
 15 37 l 1
 15 39 l 1
 17 39 l 1
 17 37 l 1
14 41 m 1x3d1c3861
 13 41 l 1x3d1c3861
 13 42 l 1x3b1c3861
 12 42 l 1x3d9c3861
 12 43 l 1
 14 43 l 1x3b2c3861
 14 41 l 1x3d1c3861
17 41 m 1
 15 41 l 1x3d0c3861
 15 43 l 1
 17 43 l 1x3b0c3861
 17 41 l 1
23 29 m 1
 21 29 l 1
 21 31 l 1
 23 31 l 1
 23 29 l 1
23 33 m 1
 21 33 l 1
 21 35 l 1
 23 35 l 1
 23 33 l 1
31 29 m 1
 29 29 l 1
 29 31 l 1
 31 31 l 1
 31 29 l 1
31 33 m 1
 29 33 l 1
 29 35 l 1
 31 35 l 1
 31 33 l 1
36 31 m 1
 34 31 l 1
 34 33 l 1
 36 33 l 1
 36 31 l 1
23 37 m 1
 21 37 l 1
 21 39 l 1
 23 39 l 1
 23 37 l 1
23 41 m 1
 21 41 l 1x3d0c3861
 21 43 l 1
 23 43 l 1x3b0c3861
 23 41 l 1
26 41 m 1x3d0e3861
 24 41 l 1x3d0e3861
 24 43 l 1
 25 43 l 1x3b0d3861
 25 42 l 1x3d0d3861
 26 42 l 1
 26 41 l 1x3d0e3861
28 41 m 1x3d0c7861
 27 41 l 1x3d0c7861
 27 42 l 1x3b0c7861
 26 42 l 1x3d0e7861
 26 43 l 1
 28 43 l 1x3b0cb861
 28 41 l 1x3d0c7861
31 37 m 1
 29 37 l 1
 29 39 l 1
 31 39 l 1
 31 37 l 1
36 35 m 1
 34 35 l 1
 34 37 l 1
 36 37 l 1
 36 35 l 1
31 41 m 1
 29 41 l 1x3d0c3861
 29 43 l 1
 31 43 l 1x3b0c3861
 31 41 l 1
41 25 m 1xb90c3861
 39 25 l 1xb90c3861
 39 27 l 1
 41 27 l 1x790c3861
 41 25 l 1xb90c3861
44 25 m 1xb90c3c61
 42 25 l 1xb90c3c61
 42 27 l 1
 43 27 l 1x790c3a61
 43 26 l 1xb90c3a61
 44 26 l 1
 44 25 l 1xb90c3c61
46 25 m 1xb90c38e1
 45 25 l 1xb90c38e1
 45 26 l 1x790c38e1
 44 26 l 1xb90c3ce1
 44 27 l 1
 46 27 l 1x790c3961
 46 25 l 1xb90c38e1
49 25 m 1
 47 25 l 1xb90c3861
 47 27 l 1
 49 27 l 1x790c3861
 49 25 l 1
55 25 m 1
 53 25 l 1xb90c3861
 53 27 l 1
 55 27 l 1x790c3861
 55 25 l 1
58 25 m 1xb90c3871
 56 25 l 1xb90c3871
 56 27 l 1
 57 27 l 1x790c3869
 57 26 l 1xb90c3869
 58 26 l 1
 58 25 l 1xb90c3871
60 25 m 1xb90c3863
 59 25 l 1xb90c3863
 59 26 l 1x790c3863
 58 26 l 1xb90c3873
 58 27 l 1
 60 27 l 1x790c3865
 60 25 l 1xb90c3863
63 25 m 1
 61 25 l 1xb90c3861
 61 27 l 1
 63 27 l 1x790c3861
 63 25 l 1
41 29 m 1
 39 29 l 1
 39 31 l 1
 41 31 l 1
 41 29 l 1
41 33 m 1
 39 33 l 1
 39 35 l 1
 41 35 l 1
 41 33 l 1
49 29 m 1
 47 29 l 1
 47 31 l 1
 49 31 l 1
 49 29 l 1
49 33 m 1
 47 33 l 1
 47 35 l 1
 49 35 l 1
 49 33 l 1
41 37 m 1
 39 37 l 1
 39 39 l 1
 41 39 l 1
 41 37 l 1
41 41 m 1x3d0c3861
 39 41 l 1x3d0c3861
 39 43 l 1
 41 43 l 1x3b0c3861
 41 41 l 1x3d0c3861
44 41 m 1x3d0c3c61
 42 41 l 1x3d0c3c61
 42 43 l 1
 43 43 l 1x3b0c3a61
 43 42 l 1x3d0c3a61
 44 42 l 1
 44 41 l 1x3d0c3c61
49 37 m 1
 47 37 l 1
 47 39 l 1
 49 39 l 1
 49 37 l 1
46 41 m 1x3d0c38e1
 45 41 l 1x3d0c38e1
 45 42 l 1x3b0c38e1
 44 42 l 1x3d0c3ce1
 44 43 l 1
 46 43 l 1x3b0c3961
 46 41 l 1x3d0c38e1
49 41 m 1
 47 41 l 1x3d0c3861
 47 43 l 1
 49 43 l 1x3b0c3861
 49 41 l 1
55 29 m 1
 53 29 l 1
 53 31 l 1
 55 31 l 1
 55 29 l 1
55 33 m 1
 53 33 l 1
 53 35 l 1
 55 35 l 1
 55 33 l 1
63 29 m 1
 61 29 l 1
 61 31 l 1
 63 31 l 1
 63 29 l 1
63 33 m 1
 61 33 l 1
 61 35 l 1
 63 35 l 1
 63 33 l 1
55 37 m 1
 53 37 l 1
 53 39 l 1
 55 39 l 1
 55 37 l 1
55 41 m 1
 53 41 l 1x3d0c3861
 53 43 l 1
 55 43 l 1x3b0c3861
 55 41 l 1
58 41 m 1x3d0c3871
 56 41 l 1x3d0c3871
 56 43 l 1
 57 43 l 1x3b0c3869
 57 42 l 1x3d0c3869
 58 42 l 1
 58 41 l 1x3d0c3871
60 41 m 1x3d0c3863
 59 41 l 1x3d0c3863
 59 42 l 1x3b0c3863
 58 42 l 1x3d0c3873
 58 43 l 1
 60 43 l 1x3b0c3865
 60 41 l 1x3d0c3863
63 37 m 1
 61 37 l 1
 61 39 l 1
 63 39 l 1
 63 37 l 1
63 41 m 1
 61 41 l 1x3d0c3861
 61 43 l 1
 63 43 l 1x3b0c3861
 63 41 l 1
EndSplineSet
Ligature2: "'liga' Standard Ligatures in Latin lookup 0-1" zero zero zero zero zero zero eight
LCarets2: 1 0
EndChar

StartChar: custom_0_0_0_0_0_0_9
Encoding: 265 -1 20
Width: 70
HStem: 25 1<11 12 25 26 43 44 57 58> 26 1<12 13 26 27 44 45 58 59> 29 2<7 9 15 17 21 23 29 31 39 41 47 49 53 55 61 63> 33 2<7 9 15 17 21 23 29 31 39 41 47 49 53 55 61 63> 37 2<7 9 15 17 21 23 29 31 39 41 47 49 53 55 61 63> 41 1<11 12 25 26 43 44 57 58> 42 1<12 13 26 27 44 45 58 59>
VStem: 7 2<25 27 29 31 33 35 37 39 41 43> 10 2<25 26 41 42> 10 1<26 27 42 43> 12 2<26 27 42 43> 13 1<25 26 41 42> 15 2<25 27 29 31 33 35 37 39 41 43> 21 2<25 27 29 31 33 35 37 39 41 43> 24 2<25 26 41 42> 24 1<26 27 42 43> 26 2<26 27 42 43> 27 1<25 26 41 42> 29 2<25 27 29 31 33 35 37 39 41 43> 34 2<31 33 35 37> 39 2<25 27 29 31 33 35 37 39 41 43> 42 2<25 26 41 42> 42 1<26 27 42 43> 44 2<26 27 42 43> 45 1<25 26 41 42> 47 2<25 27 29 31 33 35 37 39 41 43> 53 2<25 27 29 31 33 35 37 39 41 43> 56 2<25 26 41 42> 56 1<26 27 42 43> 58 2<26 27 42 43> 59 1<25 26 41 42> 61 2<25 27 29 31 33 35 37 39 41 43>
LayerCount: 2
Fore
SplineSet
9 25 m 1xb90c3861
 7 25 l 1xb90c3861
 7 27 l 1
 9 27 l 1x790c3861
 9 25 l 1xb90c3861
12 25 m 1xb98c3861
 10 25 l 1xb98c3861
 10 27 l 1
 11 27 l 1x794c3861
 11 26 l 1xb94c3861
 12 26 l 1
 12 25 l 1xb98c3861
14 25 m 1xb91c3861
 13 25 l 1xb91c3861
 13 26 l 1x791c3861
 12 26 l 1xb99c3861
 12 27 l 1
 14 27 l 1x792c3861
 14 25 l 1xb91c3861
17 25 m 1
 15 25 l 1xb90c3861
 15 27 l 1
 17 27 l 1x790c3861
 17 25 l 1
23 25 m 1
 21 25 l 1xb90c3861
 21 27 l 1
 23 27 l 1x790c3861
 23 25 l 1
26 25 m 1xb90e3861
 24 25 l 1xb90e3861
 24 27 l 1
 25 27 l 1x790d3861
 25 26 l 1xb90d3861
 26 26 l 1
 26 25 l 1xb90e3861
28 25 m 1xb90c7861
 27 25 l 1xb90c7861
 27 26 l 1x790c7861
 26 26 l 1xb90e7861
 26 27 l 1
 28 27 l 1x790cb861
 28 25 l 1xb90c7861
31 25 m 1
 29 25 l 1xb90c3861
 29 27 l 1
 31 27 l 1x790c3861
 31 25 l 1
9 29 m 1
 7 29 l 1
 7 31 l 1
 9 31 l 1
 9 29 l 1
9 33 m 1
 7 33 l 1
 7 35 l 1
 9 35 l 1
 9 33 l 1
17 29 m 1
 15 29 l 1
 15 31 l 1
 17 31 l 1
 17 29 l 1
17 33 m 1
 15 33 l 1
 15 35 l 1
 17 35 l 1
 17 33 l 1
9 37 m 1
 7 37 l 1
 7 39 l 1
 9 39 l 1
 9 37 l 1
9 41 m 1x3d0c3861
 7 41 l 1x3d0c3861
 7 43 l 1
 9 43 l 1x3b0c3861
 9 41 l 1x3d0c3861
12 41 m 1x3d8c3861
 10 41 l 1x3d8c3861
 10 43 l 1
 11 43 l 1x3b4c3861
 11 42 l 1x3d4c3861
 12 42 l 1
 12 41 l 1x3d8c3861
17 37 m 1
 15 37 l 1
 15 39 l 1
 17 39 l 1
 17 37 l 1
14 41 m 1x3d1c3861
 13 41 l 1x3d1c3861
 13 42 l 1x3b1c3861
 12 42 l 1x3d9c3861
 12 43 l 1
 14 43 l 1x3b2c3861
 14 41 l 1x3d1c3861
17 41 m 1
 15 41 l 1x3d0c3861
 15 43 l 1
 17 43 l 1x3b0c3861
 17 41 l 1
23 29 m 1
 21 29 l 1
 21 31 l 1
 23 31 l 1
 23 29 l 1
23 33 m 1
 21 33 l 1
 21 35 l 1
 23 35 l 1
 23 33 l 1
31 29 m 1
 29 29 l 1
 29 31 l 1
 31 31 l 1
 31 29 l 1
31 33 m 1
 29 33 l 1
 29 35 l 1
 31 35 l 1
 31 33 l 1
36 31 m 1
 34 31 l 1
 34 33 l 1
 36 33 l 1
 36 31 l 1
23 37 m 1
 21 37 l 1
 21 39 l 1
 23 39 l 1
 23 37 l 1
23 41 m 1
 21 41 l 1x3d0c3861
 21 43 l 1
 23 43 l 1x3b0c3861
 23 41 l 1
26 41 m 1x3d0e3861
 24 41 l 1x3d0e3861
 24 43 l 1
 25 43 l 1x3b0d3861
 25 42 l 1x3d0d3861
 26 42 l 1
 26 41 l 1x3d0e3861
28 41 m 1x3d0c7861
 27 41 l 1x3d0c7861
 27 42 l 1x3b0c7861
 26 42 l 1x3d0e7861
 26 43 l 1
 28 43 l 1x3b0cb861
 28 41 l 1x3d0c7861
31 37 m 1
 29 37 l 1
 29 39 l 1
 31 39 l 1
 31 37 l 1
36 35 m 1
 34 35 l 1
 34 37 l 1
 36 37 l 1
 36 35 l 1
31 41 m 1
 29 41 l 1x3d0c3861
 29 43 l 1
 31 43 l 1x3b0c3861
 31 41 l 1
41 25 m 1xb90c3861
 39 25 l 1xb90c3861
 39 27 l 1
 41 27 l 1x790c3861
 41 25 l 1xb90c3861
44 25 m 1xb90c3c61
 42 25 l 1xb90c3c61
 42 27 l 1
 43 27 l 1x790c3a61
 43 26 l 1xb90c3a61
 44 26 l 1
 44 25 l 1xb90c3c61
46 25 m 1xb90c38e1
 45 25 l 1xb90c38e1
 45 26 l 1x790c38e1
 44 26 l 1xb90c3ce1
 44 27 l 1
 46 27 l 1x790c3961
 46 25 l 1xb90c38e1
49 25 m 1
 47 25 l 1xb90c3861
 47 27 l 1
 49 27 l 1x790c3861
 49 25 l 1
55 25 m 1
 53 25 l 1xb90c3861
 53 27 l 1
 55 27 l 1x790c3861
 55 25 l 1
58 25 m 1xb90c3871
 56 25 l 1xb90c3871
 56 27 l 1
 57 27 l 1x790c3869
 57 26 l 1xb90c3869
 58 26 l 1
 58 25 l 1xb90c3871
60 25 m 1xb90c3863
 59 25 l 1xb90c3863
 59 26 l 1x790c3863
 58 26 l 1xb90c3873
 58 27 l 1
 60 27 l 1x790c3865
 60 25 l 1xb90c3863
63 25 m 1
 61 25 l 1xb90c3861
 61 27 l 1
 63 27 l 1x790c3861
 63 25 l 1
41 29 m 1
 39 29 l 1
 39 31 l 1
 41 31 l 1
 41 29 l 1
41 33 m 1
 39 33 l 1
 39 35 l 1
 41 35 l 1
 41 33 l 1
49 29 m 1
 47 29 l 1
 47 31 l 1
 49 31 l 1
 49 29 l 1
49 33 m 1
 47 33 l 1
 47 35 l 1
 49 35 l 1
 49 33 l 1
41 37 m 1
 39 37 l 1
 39 39 l 1
 41 39 l 1
 41 37 l 1
41 41 m 1x3d0c3861
 39 41 l 1x3d0c3861
 39 43 l 1
 41 43 l 1x3b0c3861
 41 41 l 1x3d0c3861
44 41 m 1x3d0c3c61
 42 41 l 1x3d0c3c61
 42 43 l 1
 43 43 l 1x3b0c3a61
 43 42 l 1x3d0c3a61
 44 42 l 1
 44 41 l 1x3d0c3c61
49 37 m 1
 47 37 l 1
 47 39 l 1
 49 39 l 1
 49 37 l 1
46 41 m 1x3d0c38e1
 45 41 l 1x3d0c38e1
 45 42 l 1x3b0c38e1
 44 42 l 1x3d0c3ce1
 44 43 l 1
 46 43 l 1x3b0c3961
 46 41 l 1x3d0c38e1
49 41 m 1
 47 41 l 1x3d0c3861
 47 43 l 1
 49 43 l 1x3b0c3861
 49 41 l 1
55 29 m 1
 53 29 l 1
 53 31 l 1
 55 31 l 1
 55 29 l 1
55 33 m 1
 53 33 l 1
 53 35 l 1
 55 35 l 1
 55 33 l 1
63 29 m 1
 61 29 l 1
 61 31 l 1
 63 31 l 1
 63 29 l 1
63 33 m 1
 61 33 l 1
 61 35 l 1
 63 35 l 1
 63 33 l 1
55 37 m 1
 53 37 l 1
 53 39 l 1
 55 39 l 1
 55 37 l 1
55 41 m 1
 53 41 l 1x3d0c3861
 53 43 l 1
 55 43 l 1x3b0c3861
 55 41 l 1
58 41 m 1x3d0c3871
 56 41 l 1x3d0c3871
 56 43 l 1
 57 43 l 1x3b0c3869
 57 42 l 1x3d0c3869
 58 42 l 1
 58 41 l 1x3d0c3871
60 41 m 1x3d0c3863
 59 41 l 1x3d0c3863
 59 42 l 1x3b0c3863
 58 42 l 1x3d0c3873
 58 43 l 1
 60 43 l 1x3b0c3865
 60 41 l 1x3d0c3863
63 37 m 1
 61 37 l 1
 61 39 l 1
 63 39 l 1
 63 37 l 1
63 41 m 1
 61 41 l 1x3d0c3861
 61 43 l 1
 63 43 l 1x3b0c3861
 63 41 l 1
EndSplineSet
Ligature2: "'liga' Standard Ligatures in Latin lookup 0-1" zero zero zero zero zero zero nine
LCarets2: 1 0
EndChar

StartChar: custom_0_0_0_0_0_1_0
Encoding: 266 -1 21
Width: 70
HStem: 25 1<11 12 25 26 43 44 57 58> 26 1<12 13 26 27 44 45 58 59> 29 2<7 9 15 17 21 23 29 31 39 41 47 49 53 55 61 63> 33 2<7 9 15 17 21 23 29 31 39 41 47 49 53 55 61 63> 37 2<7 9 15 17 21 23 29 31 39 41 47 49 53 55 61 63> 41 1<11 12 25 26 43 44 57 58> 42 1<12 13 26 27 44 45 58 59>
VStem: 7 2<25 27 29 31 33 35 37 39 41 43> 10 2<25 26 41 42> 10 1<26 27 42 43> 12 2<26 27 42 43> 13 1<25 26 41 42> 15 2<25 27 29 31 33 35 37 39 41 43> 21 2<25 27 29 31 33 35 37 39 41 43> 24 2<25 26 41 42> 24 1<26 27 42 43> 26 2<26 27 42 43> 27 1<25 26 41 42> 29 2<25 27 29 31 33 35 37 39 41 43> 34 2<31 33 35 37> 39 2<25 27 29 31 33 35 37 39 41 43> 42 2<25 26 41 42> 42 1<26 27 42 43> 44 2<26 27 42 43> 45 1<25 26 41 42> 47 2<25 27 29 31 33 35 37 39 41 43> 53 2<25 27 29 31 33 35 37 39 41 43> 56 2<25 26 41 42> 56 1<26 27 42 43> 58 2<26 27 42 43> 59 1<25 26 41 42> 61 2<25 27 29 31 33 35 37 39 41 43>
LayerCount: 2
Fore
SplineSet
9 25 m 1xb90c3861
 7 25 l 1xb90c3861
 7 27 l 1
 9 27 l 1x790c3861
 9 25 l 1xb90c3861
12 25 m 1xb98c3861
 10 25 l 1xb98c3861
 10 27 l 1
 11 27 l 1x794c3861
 11 26 l 1xb94c3861
 12 26 l 1
 12 25 l 1xb98c3861
14 25 m 1xb91c3861
 13 25 l 1xb91c3861
 13 26 l 1x791c3861
 12 26 l 1xb99c3861
 12 27 l 1
 14 27 l 1x792c3861
 14 25 l 1xb91c3861
17 25 m 1
 15 25 l 1xb90c3861
 15 27 l 1
 17 27 l 1x790c3861
 17 25 l 1
23 25 m 1
 21 25 l 1xb90c3861
 21 27 l 1
 23 27 l 1x790c3861
 23 25 l 1
26 25 m 1xb90e3861
 24 25 l 1xb90e3861
 24 27 l 1
 25 27 l 1x790d3861
 25 26 l 1xb90d3861
 26 26 l 1
 26 25 l 1xb90e3861
28 25 m 1xb90c7861
 27 25 l 1xb90c7861
 27 26 l 1x790c7861
 26 26 l 1xb90e7861
 26 27 l 1
 28 27 l 1x790cb861
 28 25 l 1xb90c7861
31 25 m 1
 29 25 l 1xb90c3861
 29 27 l 1
 31 27 l 1x790c3861
 31 25 l 1
9 29 m 1
 7 29 l 1
 7 31 l 1
 9 31 l 1
 9 29 l 1
9 33 m 1
 7 33 l 1
 7 35 l 1
 9 35 l 1
 9 33 l 1
17 29 m 1
 15 29 l 1
 15 31 l 1
 17 31 l 1
 17 29 l 1
17 33 m 1
 15 33 l 1
 15 35 l 1
 17 35 l 1
 17 33 l 1
9 37 m 1
 7 37 l 1
 7 39 l 1
 9 39 l 1
 9 37 l 1
9 41 m 1x3d0c3861
 7 41 l 1x3d0c3861
 7 43 l 1
 9 43 l 1x3b0c3861
 9 41 l 1x3d0c3861
12 41 m 1x3d8c3861
 10 41 l 1x3d8c3861
 10 43 l 1
 11 43 l 1x3b4c3861
 11 42 l 1x3d4c3861
 12 42 l 1
 12 41 l 1x3d8c3861
17 37 m 1
 15 37 l 1
 15 39 l 1
 17 39 l 1
 17 37 l 1
14 41 m 1x3d1c3861
 13 41 l 1x3d1c3861
 13 42 l 1x3b1c3861
 12 42 l 1x3d9c3861
 12 43 l 1
 14 43 l 1x3b2c3861
 14 41 l 1x3d1c3861
17 41 m 1
 15 41 l 1x3d0c3861
 15 43 l 1
 17 43 l 1x3b0c3861
 17 41 l 1
23 29 m 1
 21 29 l 1
 21 31 l 1
 23 31 l 1
 23 29 l 1
23 33 m 1
 21 33 l 1
 21 35 l 1
 23 35 l 1
 23 33 l 1
31 29 m 1
 29 29 l 1
 29 31 l 1
 31 31 l 1
 31 29 l 1
31 33 m 1
 29 33 l 1
 29 35 l 1
 31 35 l 1
 31 33 l 1
36 31 m 1
 34 31 l 1
 34 33 l 1
 36 33 l 1
 36 31 l 1
23 37 m 1
 21 37 l 1
 21 39 l 1
 23 39 l 1
 23 37 l 1
23 41 m 1
 21 41 l 1x3d0c3861
 21 43 l 1
 23 43 l 1x3b0c3861
 23 41 l 1
26 41 m 1x3d0e3861
 24 41 l 1x3d0e3861
 24 43 l 1
 25 43 l 1x3b0d3861
 25 42 l 1x3d0d3861
 26 42 l 1
 26 41 l 1x3d0e3861
28 41 m 1x3d0c7861
 27 41 l 1x3d0c7861
 27 42 l 1x3b0c7861
 26 42 l 1x3d0e7861
 26 43 l 1
 28 43 l 1x3b0cb861
 28 41 l 1x3d0c7861
31 37 m 1
 29 37 l 1
 29 39 l 1
 31 39 l 1
 31 37 l 1
36 35 m 1
 34 35 l 1
 34 37 l 1
 36 37 l 1
 36 35 l 1
31 41 m 1
 29 41 l 1x3d0c3861
 29 43 l 1
 31 43 l 1x3b0c3861
 31 41 l 1
41 25 m 1xb90c3861
 39 25 l 1xb90c3861
 39 27 l 1
 41 27 l 1x790c3861
 41 25 l 1xb90c3861
44 25 m 1xb90c3c61
 42 25 l 1xb90c3c61
 42 27 l 1
 43 27 l 1x790c3a61
 43 26 l 1xb90c3a61
 44 26 l 1
 44 25 l 1xb90c3c61
46 25 m 1xb90c38e1
 45 25 l 1xb90c38e1
 45 26 l 1x790c38e1
 44 26 l 1xb90c3ce1
 44 27 l 1
 46 27 l 1x790c3961
 46 25 l 1xb90c38e1
49 25 m 1
 47 25 l 1xb90c3861
 47 27 l 1
 49 27 l 1x790c3861
 49 25 l 1
55 25 m 1
 53 25 l 1xb90c3861
 53 27 l 1
 55 27 l 1x790c3861
 55 25 l 1
58 25 m 1xb90c3871
 56 25 l 1xb90c3871
 56 27 l 1
 57 27 l 1x790c3869
 57 26 l 1xb90c3869
 58 26 l 1
 58 25 l 1xb90c3871
60 25 m 1xb90c3863
 59 25 l 1xb90c3863
 59 26 l 1x790c3863
 58 26 l 1xb90c3873
 58 27 l 1
 60 27 l 1x790c3865
 60 25 l 1xb90c3863
63 25 m 1
 61 25 l 1xb90c3861
 61 27 l 1
 63 27 l 1x790c3861
 63 25 l 1
41 29 m 1
 39 29 l 1
 39 31 l 1
 41 31 l 1
 41 29 l 1
41 33 m 1
 39 33 l 1
 39 35 l 1
 41 35 l 1
 41 33 l 1
49 29 m 1
 47 29 l 1
 47 31 l 1
 49 31 l 1
 49 29 l 1
49 33 m 1
 47 33 l 1
 47 35 l 1
 49 35 l 1
 49 33 l 1
41 37 m 1
 39 37 l 1
 39 39 l 1
 41 39 l 1
 41 37 l 1
41 41 m 1x3d0c3861
 39 41 l 1x3d0c3861
 39 43 l 1
 41 43 l 1x3b0c3861
 41 41 l 1x3d0c3861
44 41 m 1x3d0c3c61
 42 41 l 1x3d0c3c61
 42 43 l 1
 43 43 l 1x3b0c3a61
 43 42 l 1x3d0c3a61
 44 42 l 1
 44 41 l 1x3d0c3c61
49 37 m 1
 47 37 l 1
 47 39 l 1
 49 39 l 1
 49 37 l 1
46 41 m 1x3d0c38e1
 45 41 l 1x3d0c38e1
 45 42 l 1x3b0c38e1
 44 42 l 1x3d0c3ce1
 44 43 l 1
 46 43 l 1x3b0c3961
 46 41 l 1x3d0c38e1
49 41 m 1
 47 41 l 1x3d0c3861
 47 43 l 1
 49 43 l 1x3b0c3861
 49 41 l 1
55 29 m 1
 53 29 l 1
 53 31 l 1
 55 31 l 1
 55 29 l 1
55 33 m 1
 53 33 l 1
 53 35 l 1
 55 35 l 1
 55 33 l 1
63 29 m 1
 61 29 l 1
 61 31 l 1
 63 31 l 1
 63 29 l 1
63 33 m 1
 61 33 l 1
 61 35 l 1
 63 35 l 1
 63 33 l 1
55 37 m 1
 53 37 l 1
 53 39 l 1
 55 39 l 1
 55 37 l 1
55 41 m 1
 53 41 l 1x3d0c3861
 53 43 l 1
 55 43 l 1x3b0c3861
 55 41 l 1
58 41 m 1x3d0c3871
 56 41 l 1x3d0c3871
 56 43 l 1
 57 43 l 1x3b0c3869
 57 42 l 1x3d0c3869
 58 42 l 1
 58 41 l 1x3d0c3871
60 41 m 1x3d0c3863
 59 41 l 1x3d0c3863
 59 42 l 1x3b0c3863
 58 42 l 1x3d0c3873
 58 43 l 1
 60 43 l 1x3b0c3865
 60 41 l 1x3d0c3863
63 37 m 1
 61 37 l 1
 61 39 l 1
 63 39 l 1
 63 37 l 1
63 41 m 1
 61 41 l 1x3d0c3861
 61 43 l 1
 63 43 l 1x3b0c3861
 63 41 l 1
EndSplineSet
Ligature2: "'liga' Standard Ligatures in Latin lookup 0-1" zero zero zero zero zero one zero
LCarets2: 1 0
EndChar

StartChar: custom_0_0_0_0_0_1_1
Encoding: 267 -1 22
Width: 70
HStem: 25 1<11 12 25 26 43 44 57 58> 26 1<12 13 26 27 44 45 58 59> 29 2<7 9 15 17 21 23 29 31 39 41 47 49 53 55 61 63> 33 2<7 9 15 17 21 23 29 31 39 41 47 49 53 55 61 63> 37 2<7 9 15 17 21 23 29 31 39 41 47 49 53 55 61 63> 41 1<11 12 25 26 43 44 57 58> 42 1<12 13 26 27 44 45 58 59>
VStem: 7 2<25 27 29 31 33 35 37 39 41 43> 10 2<25 26 41 42> 10 1<26 27 42 43> 12 2<26 27 42 43> 13 1<25 26 41 42> 15 2<25 27 29 31 33 35 37 39 41 43> 21 2<25 27 29 31 33 35 37 39 41 43> 24 2<25 26 41 42> 24 1<26 27 42 43> 26 2<26 27 42 43> 27 1<25 26 41 42> 29 2<25 27 29 31 33 35 37 39 41 43> 34 2<31 33 35 37> 39 2<25 27 29 31 33 35 37 39 41 43> 42 2<25 26 41 42> 42 1<26 27 42 43> 44 2<26 27 42 43> 45 1<25 26 41 42> 47 2<25 27 29 31 33 35 37 39 41 43> 53 2<25 27 29 31 33 35 37 39 41 43> 56 2<25 26 41 42> 56 1<26 27 42 43> 58 2<26 27 42 43> 59 1<25 26 41 42> 61 2<25 27 29 31 33 35 37 39 41 43>
LayerCount: 2
Fore
SplineSet
9 25 m 1xb90c3861
 7 25 l 1xb90c3861
 7 27 l 1
 9 27 l 1x790c3861
 9 25 l 1xb90c3861
12 25 m 1xb98c3861
 10 25 l 1xb98c3861
 10 27 l 1
 11 27 l 1x794c3861
 11 26 l 1xb94c3861
 12 26 l 1
 12 25 l 1xb98c3861
14 25 m 1xb91c3861
 13 25 l 1xb91c3861
 13 26 l 1x791c3861
 12 26 l 1xb99c3861
 12 27 l 1
 14 27 l 1x792c3861
 14 25 l 1xb91c3861
17 25 m 1
 15 25 l 1xb90c3861
 15 27 l 1
 17 27 l 1x790c3861
 17 25 l 1
23 25 m 1
 21 25 l 1xb90c3861
 21 27 l 1
 23 27 l 1x790c3861
 23 25 l 1
26 25 m 1xb90e3861
 24 25 l 1xb90e3861
 24 27 l 1
 25 27 l 1x790d3861
 25 26 l 1xb90d3861
 26 26 l 1
 26 25 l 1xb90e3861
28 25 m 1xb90c7861
 27 25 l 1xb90c7861
 27 26 l 1x790c7861
 26 26 l 1xb90e7861
 26 27 l 1
 28 27 l 1x790cb861
 28 25 l 1xb90c7861
31 25 m 1
 29 25 l 1xb90c3861
 29 27 l 1
 31 27 l 1x790c3861
 31 25 l 1
9 29 m 1
 7 29 l 1
 7 31 l 1
 9 31 l 1
 9 29 l 1
9 33 m 1
 7 33 l 1
 7 35 l 1
 9 35 l 1
 9 33 l 1
17 29 m 1
 15 29 l 1
 15 31 l 1
 17 31 l 1
 17 29 l 1
17 33 m 1
 15 33 l 1
 15 35 l 1
 17 35 l 1
 17 33 l 1
9 37 m 1
 7 37 l 1
 7 39 l 1
 9 39 l 1
 9 37 l 1
9 41 m 1x3d0c3861
 7 41 l 1x3d0c3861
 7 43 l 1
 9 43 l 1x3b0c3861
 9 41 l 1x3d0c3861
12 41 m 1x3d8c3861
 10 41 l 1x3d8c3861
 10 43 l 1
 11 43 l 1x3b4c3861
 11 42 l 1x3d4c3861
 12 42 l 1
 12 41 l 1x3d8c3861
17 37 m 1
 15 37 l 1
 15 39 l 1
 17 39 l 1
 17 37 l 1
14 41 m 1x3d1c3861
 13 41 l 1x3d1c3861
 13 42 l 1x3b1c3861
 12 42 l 1x3d9c3861
 12 43 l 1
 14 43 l 1x3b2c3861
 14 41 l 1x3d1c3861
17 41 m 1
 15 41 l 1x3d0c3861
 15 43 l 1
 17 43 l 1x3b0c3861
 17 41 l 1
23 29 m 1
 21 29 l 1
 21 31 l 1
 23 31 l 1
 23 29 l 1
23 33 m 1
 21 33 l 1
 21 35 l 1
 23 35 l 1
 23 33 l 1
31 29 m 1
 29 29 l 1
 29 31 l 1
 31 31 l 1
 31 29 l 1
31 33 m 1
 29 33 l 1
 29 35 l 1
 31 35 l 1
 31 33 l 1
36 31 m 1
 34 31 l 1
 34 33 l 1
 36 33 l 1
 36 31 l 1
23 37 m 1
 21 37 l 1
 21 39 l 1
 23 39 l 1
 23 37 l 1
23 41 m 1
 21 41 l 1x3d0c3861
 21 43 l 1
 23 43 l 1x3b0c3861
 23 41 l 1
26 41 m 1x3d0e3861
 24 41 l 1x3d0e3861
 24 43 l 1
 25 43 l 1x3b0d3861
 25 42 l 1x3d0d3861
 26 42 l 1
 26 41 l 1x3d0e3861
28 41 m 1x3d0c7861
 27 41 l 1x3d0c7861
 27 42 l 1x3b0c7861
 26 42 l 1x3d0e7861
 26 43 l 1
 28 43 l 1x3b0cb861
 28 41 l 1x3d0c7861
31 37 m 1
 29 37 l 1
 29 39 l 1
 31 39 l 1
 31 37 l 1
36 35 m 1
 34 35 l 1
 34 37 l 1
 36 37 l 1
 36 35 l 1
31 41 m 1
 29 41 l 1x3d0c3861
 29 43 l 1
 31 43 l 1x3b0c3861
 31 41 l 1
41 25 m 1xb90c3861
 39 25 l 1xb90c3861
 39 27 l 1
 41 27 l 1x790c3861
 41 25 l 1xb90c3861
44 25 m 1xb90c3c61
 42 25 l 1xb90c3c61
 42 27 l 1
 43 27 l 1x790c3a61
 43 26 l 1xb90c3a61
 44 26 l 1
 44 25 l 1xb90c3c61
46 25 m 1xb90c38e1
 45 25 l 1xb90c38e1
 45 26 l 1x790c38e1
 44 26 l 1xb90c3ce1
 44 27 l 1
 46 27 l 1x790c3961
 46 25 l 1xb90c38e1
49 25 m 1
 47 25 l 1xb90c3861
 47 27 l 1
 49 27 l 1x790c3861
 49 25 l 1
55 25 m 1
 53 25 l 1xb90c3861
 53 27 l 1
 55 27 l 1x790c3861
 55 25 l 1
58 25 m 1xb90c3871
 56 25 l 1xb90c3871
 56 27 l 1
 57 27 l 1x790c3869
 57 26 l 1xb90c3869
 58 26 l 1
 58 25 l 1xb90c3871
60 25 m 1xb90c3863
 59 25 l 1xb90c3863
 59 26 l 1x790c3863
 58 26 l 1xb90c3873
 58 27 l 1
 60 27 l 1x790c3865
 60 25 l 1xb90c3863
63 25 m 1
 61 25 l 1xb90c3861
 61 27 l 1
 63 27 l 1x790c3861
 63 25 l 1
41 29 m 1
 39 29 l 1
 39 31 l 1
 41 31 l 1
 41 29 l 1
41 33 m 1
 39 33 l 1
 39 35 l 1
 41 35 l 1
 41 33 l 1
49 29 m 1
 47 29 l 1
 47 31 l 1
 49 31 l 1
 49 29 l 1
49 33 m 1
 47 33 l 1
 47 35 l 1
 49 35 l 1
 49 33 l 1
41 37 m 1
 39 37 l 1
 39 39 l 1
 41 39 l 1
 41 37 l 1
41 41 m 1x3d0c3861
 39 41 l 1x3d0c3861
 39 43 l 1
 41 43 l 1x3b0c3861
 41 41 l 1x3d0c3861
44 41 m 1x3d0c3c61
 42 41 l 1x3d0c3c61
 42 43 l 1
 43 43 l 1x3b0c3a61
 43 42 l 1x3d0c3a61
 44 42 l 1
 44 41 l 1x3d0c3c61
49 37 m 1
 47 37 l 1
 47 39 l 1
 49 39 l 1
 49 37 l 1
46 41 m 1x3d0c38e1
 45 41 l 1x3d0c38e1
 45 42 l 1x3b0c38e1
 44 42 l 1x3d0c3ce1
 44 43 l 1
 46 43 l 1x3b0c3961
 46 41 l 1x3d0c38e1
49 41 m 1
 47 41 l 1x3d0c3861
 47 43 l 1
 49 43 l 1x3b0c3861
 49 41 l 1
55 29 m 1
 53 29 l 1
 53 31 l 1
 55 31 l 1
 55 29 l 1
55 33 m 1
 53 33 l 1
 53 35 l 1
 55 35 l 1
 55 33 l 1
63 29 m 1
 61 29 l 1
 61 31 l 1
 63 31 l 1
 63 29 l 1
63 33 m 1
 61 33 l 1
 61 35 l 1
 63 35 l 1
 63 33 l 1
55 37 m 1
 53 37 l 1
 53 39 l 1
 55 39 l 1
 55 37 l 1
55 41 m 1
 53 41 l 1x3d0c3861
 53 43 l 1
 55 43 l 1x3b0c3861
 55 41 l 1
58 41 m 1x3d0c3871
 56 41 l 1x3d0c3871
 56 43 l 1
 57 43 l 1x3b0c3869
 57 42 l 1x3d0c3869
 58 42 l 1
 58 41 l 1x3d0c3871
60 41 m 1x3d0c3863
 59 41 l 1x3d0c3863
 59 42 l 1x3b0c3863
 58 42 l 1x3d0c3873
 58 43 l 1
 60 43 l 1x3b0c3865
 60 41 l 1x3d0c3863
63 37 m 1
 61 37 l 1
 61 39 l 1
 63 39 l 1
 63 37 l 1
63 41 m 1
 61 41 l 1x3d0c3861
 61 43 l 1
 63 43 l 1x3b0c3861
 63 41 l 1
EndSplineSet
Ligature2: "'liga' Standard Ligatures in Latin lookup 0-1" zero zero zero zero zero one one
LCarets2: 1 0
EndChar

StartChar: custom_0_0_0_0_0_1_2
Encoding: 268 -1 23
Width: 70
HStem: 25 1<11 12 25 26 43 44 57 58> 26 1<12 13 26 27 44 45 58 59> 29 2<7 9 15 17 21 23 29 31 39 41 47 49 53 55 61 63> 33 2<7 9 15 17 21 23 29 31 39 41 47 49 53 55 61 63> 37 2<7 9 15 17 21 23 29 31 39 41 47 49 53 55 61 63> 41 1<11 12 25 26 43 44 57 58> 42 1<12 13 26 27 44 45 58 59>
VStem: 7 2<25 27 29 31 33 35 37 39 41 43> 10 2<25 26 41 42> 10 1<26 27 42 43> 12 2<26 27 42 43> 13 1<25 26 41 42> 15 2<25 27 29 31 33 35 37 39 41 43> 21 2<25 27 29 31 33 35 37 39 41 43> 24 2<25 26 41 42> 24 1<26 27 42 43> 26 2<26 27 42 43> 27 1<25 26 41 42> 29 2<25 27 29 31 33 35 37 39 41 43> 34 2<31 33 35 37> 39 2<25 27 29 31 33 35 37 39 41 43> 42 2<25 26 41 42> 42 1<26 27 42 43> 44 2<26 27 42 43> 45 1<25 26 41 42> 47 2<25 27 29 31 33 35 37 39 41 43> 53 2<25 27 29 31 33 35 37 39 41 43> 56 2<25 26 41 42> 56 1<26 27 42 43> 58 2<26 27 42 43> 59 1<25 26 41 42> 61 2<25 27 29 31 33 35 37 39 41 43>
LayerCount: 2
Fore
SplineSet
9 25 m 1xb90c3861
 7 25 l 1xb90c3861
 7 27 l 1
 9 27 l 1x790c3861
 9 25 l 1xb90c3861
12 25 m 1xb98c3861
 10 25 l 1xb98c3861
 10 27 l 1
 11 27 l 1x794c3861
 11 26 l 1xb94c3861
 12 26 l 1
 12 25 l 1xb98c3861
14 25 m 1xb91c3861
 13 25 l 1xb91c3861
 13 26 l 1x791c3861
 12 26 l 1xb99c3861
 12 27 l 1
 14 27 l 1x792c3861
 14 25 l 1xb91c3861
17 25 m 1
 15 25 l 1xb90c3861
 15 27 l 1
 17 27 l 1x790c3861
 17 25 l 1
23 25 m 1
 21 25 l 1xb90c3861
 21 27 l 1
 23 27 l 1x790c3861
 23 25 l 1
26 25 m 1xb90e3861
 24 25 l 1xb90e3861
 24 27 l 1
 25 27 l 1x790d3861
 25 26 l 1xb90d3861
 26 26 l 1
 26 25 l 1xb90e3861
28 25 m 1xb90c7861
 27 25 l 1xb90c7861
 27 26 l 1x790c7861
 26 26 l 1xb90e7861
 26 27 l 1
 28 27 l 1x790cb861
 28 25 l 1xb90c7861
31 25 m 1
 29 25 l 1xb90c3861
 29 27 l 1
 31 27 l 1x790c3861
 31 25 l 1
9 29 m 1
 7 29 l 1
 7 31 l 1
 9 31 l 1
 9 29 l 1
9 33 m 1
 7 33 l 1
 7 35 l 1
 9 35 l 1
 9 33 l 1
17 29 m 1
 15 29 l 1
 15 31 l 1
 17 31 l 1
 17 29 l 1
17 33 m 1
 15 33 l 1
 15 35 l 1
 17 35 l 1
 17 33 l 1
9 37 m 1
 7 37 l 1
 7 39 l 1
 9 39 l 1
 9 37 l 1
9 41 m 1x3d0c3861
 7 41 l 1x3d0c3861
 7 43 l 1
 9 43 l 1x3b0c3861
 9 41 l 1x3d0c3861
12 41 m 1x3d8c3861
 10 41 l 1x3d8c3861
 10 43 l 1
 11 43 l 1x3b4c3861
 11 42 l 1x3d4c3861
 12 42 l 1
 12 41 l 1x3d8c3861
17 37 m 1
 15 37 l 1
 15 39 l 1
 17 39 l 1
 17 37 l 1
14 41 m 1x3d1c3861
 13 41 l 1x3d1c3861
 13 42 l 1x3b1c3861
 12 42 l 1x3d9c3861
 12 43 l 1
 14 43 l 1x3b2c3861
 14 41 l 1x3d1c3861
17 41 m 1
 15 41 l 1x3d0c3861
 15 43 l 1
 17 43 l 1x3b0c3861
 17 41 l 1
23 29 m 1
 21 29 l 1
 21 31 l 1
 23 31 l 1
 23 29 l 1
23 33 m 1
 21 33 l 1
 21 35 l 1
 23 35 l 1
 23 33 l 1
31 29 m 1
 29 29 l 1
 29 31 l 1
 31 31 l 1
 31 29 l 1
31 33 m 1
 29 33 l 1
 29 35 l 1
 31 35 l 1
 31 33 l 1
36 31 m 1
 34 31 l 1
 34 33 l 1
 36 33 l 1
 36 31 l 1
23 37 m 1
 21 37 l 1
 21 39 l 1
 23 39 l 1
 23 37 l 1
23 41 m 1
 21 41 l 1x3d0c3861
 21 43 l 1
 23 43 l 1x3b0c3861
 23 41 l 1
26 41 m 1x3d0e3861
 24 41 l 1x3d0e3861
 24 43 l 1
 25 43 l 1x3b0d3861
 25 42 l 1x3d0d3861
 26 42 l 1
 26 41 l 1x3d0e3861
28 41 m 1x3d0c7861
 27 41 l 1x3d0c7861
 27 42 l 1x3b0c7861
 26 42 l 1x3d0e7861
 26 43 l 1
 28 43 l 1x3b0cb861
 28 41 l 1x3d0c7861
31 37 m 1
 29 37 l 1
 29 39 l 1
 31 39 l 1
 31 37 l 1
36 35 m 1
 34 35 l 1
 34 37 l 1
 36 37 l 1
 36 35 l 1
31 41 m 1
 29 41 l 1x3d0c3861
 29 43 l 1
 31 43 l 1x3b0c3861
 31 41 l 1
41 25 m 1xb90c3861
 39 25 l 1xb90c3861
 39 27 l 1
 41 27 l 1x790c3861
 41 25 l 1xb90c3861
44 25 m 1xb90c3c61
 42 25 l 1xb90c3c61
 42 27 l 1
 43 27 l 1x790c3a61
 43 26 l 1xb90c3a61
 44 26 l 1
 44 25 l 1xb90c3c61
46 25 m 1xb90c38e1
 45 25 l 1xb90c38e1
 45 26 l 1x790c38e1
 44 26 l 1xb90c3ce1
 44 27 l 1
 46 27 l 1x790c3961
 46 25 l 1xb90c38e1
49 25 m 1
 47 25 l 1xb90c3861
 47 27 l 1
 49 27 l 1x790c3861
 49 25 l 1
55 25 m 1
 53 25 l 1xb90c3861
 53 27 l 1
 55 27 l 1x790c3861
 55 25 l 1
58 25 m 1xb90c3871
 56 25 l 1xb90c3871
 56 27 l 1
 57 27 l 1x790c3869
 57 26 l 1xb90c3869
 58 26 l 1
 58 25 l 1xb90c3871
60 25 m 1xb90c3863
 59 25 l 1xb90c3863
 59 26 l 1x790c3863
 58 26 l 1xb90c3873
 58 27 l 1
 60 27 l 1x790c3865
 60 25 l 1xb90c3863
63 25 m 1
 61 25 l 1xb90c3861
 61 27 l 1
 63 27 l 1x790c3861
 63 25 l 1
41 29 m 1
 39 29 l 1
 39 31 l 1
 41 31 l 1
 41 29 l 1
41 33 m 1
 39 33 l 1
 39 35 l 1
 41 35 l 1
 41 33 l 1
49 29 m 1
 47 29 l 1
 47 31 l 1
 49 31 l 1
 49 29 l 1
49 33 m 1
 47 33 l 1
 47 35 l 1
 49 35 l 1
 49 33 l 1
41 37 m 1
 39 37 l 1
 39 39 l 1
 41 39 l 1
 41 37 l 1
41 41 m 1x3d0c3861
 39 41 l 1x3d0c3861
 39 43 l 1
 41 43 l 1x3b0c3861
 41 41 l 1x3d0c3861
44 41 m 1x3d0c3c61
 42 41 l 1x3d0c3c61
 42 43 l 1
 43 43 l 1x3b0c3a61
 43 42 l 1x3d0c3a61
 44 42 l 1
 44 41 l 1x3d0c3c61
49 37 m 1
 47 37 l 1
 47 39 l 1
 49 39 l 1
 49 37 l 1
46 41 m 1x3d0c38e1
 45 41 l 1x3d0c38e1
 45 42 l 1x3b0c38e1
 44 42 l 1x3d0c3ce1
 44 43 l 1
 46 43 l 1x3b0c3961
 46 41 l 1x3d0c38e1
49 41 m 1
 47 41 l 1x3d0c3861
 47 43 l 1
 49 43 l 1x3b0c3861
 49 41 l 1
55 29 m 1
 53 29 l 1
 53 31 l 1
 55 31 l 1
 55 29 l 1
55 33 m 1
 53 33 l 1
 53 35 l 1
 55 35 l 1
 55 33 l 1
63 29 m 1
 61 29 l 1
 61 31 l 1
 63 31 l 1
 63 29 l 1
63 33 m 1
 61 33 l 1
 61 35 l 1
 63 35 l 1
 63 33 l 1
55 37 m 1
 53 37 l 1
 53 39 l 1
 55 39 l 1
 55 37 l 1
55 41 m 1
 53 41 l 1x3d0c3861
 53 43 l 1
 55 43 l 1x3b0c3861
 55 41 l 1
58 41 m 1x3d0c3871
 56 41 l 1x3d0c3871
 56 43 l 1
 57 43 l 1x3b0c3869
 57 42 l 1x3d0c3869
 58 42 l 1
 58 41 l 1x3d0c3871
60 41 m 1x3d0c3863
 59 41 l 1x3d0c3863
 59 42 l 1x3b0c3863
 58 42 l 1x3d0c3873
 58 43 l 1
 60 43 l 1x3b0c3865
 60 41 l 1x3d0c3863
63 37 m 1
 61 37 l 1
 61 39 l 1
 63 39 l 1
 63 37 l 1
63 41 m 1
 61 41 l 1x3d0c3861
 61 43 l 1
 63 43 l 1x3b0c3861
 63 41 l 1
EndSplineSet
Ligature2: "'liga' Standard Ligatures in Latin lookup 0-1" zero zero zero zero zero one two
LCarets2: 1 0
EndChar

StartChar: custom_0_0_0_0_0_1_3
Encoding: 269 -1 24
Width: 70
HStem: 25 1<11 12 25 26 43 44 57 58> 26 1<12 13 26 27 44 45 58 59> 29 2<7 9 15 17 21 23 29 31 39 41 47 49 53 55 61 63> 33 2<7 9 15 17 21 23 29 31 39 41 47 49 53 55 61 63> 37 2<7 9 15 17 21 23 29 31 39 41 47 49 53 55 61 63> 41 1<11 12 25 26 43 44 57 58> 42 1<12 13 26 27 44 45 58 59>
VStem: 7 2<25 27 29 31 33 35 37 39 41 43> 10 2<25 26 41 42> 10 1<26 27 42 43> 12 2<26 27 42 43> 13 1<25 26 41 42> 15 2<25 27 29 31 33 35 37 39 41 43> 21 2<25 27 29 31 33 35 37 39 41 43> 24 2<25 26 41 42> 24 1<26 27 42 43> 26 2<26 27 42 43> 27 1<25 26 41 42> 29 2<25 27 29 31 33 35 37 39 41 43> 34 2<31 33 35 37> 39 2<25 27 29 31 33 35 37 39 41 43> 42 2<25 26 41 42> 42 1<26 27 42 43> 44 2<26 27 42 43> 45 1<25 26 41 42> 47 2<25 27 29 31 33 35 37 39 41 43> 53 2<25 27 29 31 33 35 37 39 41 43> 56 2<25 26 41 42> 56 1<26 27 42 43> 58 2<26 27 42 43> 59 1<25 26 41 42> 61 2<25 27 29 31 33 35 37 39 41 43>
LayerCount: 2
Fore
SplineSet
9 25 m 1xb90c3861
 7 25 l 1xb90c3861
 7 27 l 1
 9 27 l 1x790c3861
 9 25 l 1xb90c3861
12 25 m 1xb98c3861
 10 25 l 1xb98c3861
 10 27 l 1
 11 27 l 1x794c3861
 11 26 l 1xb94c3861
 12 26 l 1
 12 25 l 1xb98c3861
14 25 m 1xb91c3861
 13 25 l 1xb91c3861
 13 26 l 1x791c3861
 12 26 l 1xb99c3861
 12 27 l 1
 14 27 l 1x792c3861
 14 25 l 1xb91c3861
17 25 m 1
 15 25 l 1xb90c3861
 15 27 l 1
 17 27 l 1x790c3861
 17 25 l 1
23 25 m 1
 21 25 l 1xb90c3861
 21 27 l 1
 23 27 l 1x790c3861
 23 25 l 1
26 25 m 1xb90e3861
 24 25 l 1xb90e3861
 24 27 l 1
 25 27 l 1x790d3861
 25 26 l 1xb90d3861
 26 26 l 1
 26 25 l 1xb90e3861
28 25 m 1xb90c7861
 27 25 l 1xb90c7861
 27 26 l 1x790c7861
 26 26 l 1xb90e7861
 26 27 l 1
 28 27 l 1x790cb861
 28 25 l 1xb90c7861
31 25 m 1
 29 25 l 1xb90c3861
 29 27 l 1
 31 27 l 1x790c3861
 31 25 l 1
9 29 m 1
 7 29 l 1
 7 31 l 1
 9 31 l 1
 9 29 l 1
9 33 m 1
 7 33 l 1
 7 35 l 1
 9 35 l 1
 9 33 l 1
17 29 m 1
 15 29 l 1
 15 31 l 1
 17 31 l 1
 17 29 l 1
17 33 m 1
 15 33 l 1
 15 35 l 1
 17 35 l 1
 17 33 l 1
9 37 m 1
 7 37 l 1
 7 39 l 1
 9 39 l 1
 9 37 l 1
9 41 m 1x3d0c3861
 7 41 l 1x3d0c3861
 7 43 l 1
 9 43 l 1x3b0c3861
 9 41 l 1x3d0c3861
12 41 m 1x3d8c3861
 10 41 l 1x3d8c3861
 10 43 l 1
 11 43 l 1x3b4c3861
 11 42 l 1x3d4c3861
 12 42 l 1
 12 41 l 1x3d8c3861
17 37 m 1
 15 37 l 1
 15 39 l 1
 17 39 l 1
 17 37 l 1
14 41 m 1x3d1c3861
 13 41 l 1x3d1c3861
 13 42 l 1x3b1c3861
 12 42 l 1x3d9c3861
 12 43 l 1
 14 43 l 1x3b2c3861
 14 41 l 1x3d1c3861
17 41 m 1
 15 41 l 1x3d0c3861
 15 43 l 1
 17 43 l 1x3b0c3861
 17 41 l 1
23 29 m 1
 21 29 l 1
 21 31 l 1
 23 31 l 1
 23 29 l 1
23 33 m 1
 21 33 l 1
 21 35 l 1
 23 35 l 1
 23 33 l 1
31 29 m 1
 29 29 l 1
 29 31 l 1
 31 31 l 1
 31 29 l 1
31 33 m 1
 29 33 l 1
 29 35 l 1
 31 35 l 1
 31 33 l 1
36 31 m 1
 34 31 l 1
 34 33 l 1
 36 33 l 1
 36 31 l 1
23 37 m 1
 21 37 l 1
 21 39 l 1
 23 39 l 1
 23 37 l 1
23 41 m 1
 21 41 l 1x3d0c3861
 21 43 l 1
 23 43 l 1x3b0c3861
 23 41 l 1
26 41 m 1x3d0e3861
 24 41 l 1x3d0e3861
 24 43 l 1
 25 43 l 1x3b0d3861
 25 42 l 1x3d0d3861
 26 42 l 1
 26 41 l 1x3d0e3861
28 41 m 1x3d0c7861
 27 41 l 1x3d0c7861
 27 42 l 1x3b0c7861
 26 42 l 1x3d0e7861
 26 43 l 1
 28 43 l 1x3b0cb861
 28 41 l 1x3d0c7861
31 37 m 1
 29 37 l 1
 29 39 l 1
 31 39 l 1
 31 37 l 1
36 35 m 1
 34 35 l 1
 34 37 l 1
 36 37 l 1
 36 35 l 1
31 41 m 1
 29 41 l 1x3d0c3861
 29 43 l 1
 31 43 l 1x3b0c3861
 31 41 l 1
41 25 m 1xb90c3861
 39 25 l 1xb90c3861
 39 27 l 1
 41 27 l 1x790c3861
 41 25 l 1xb90c3861
44 25 m 1xb90c3c61
 42 25 l 1xb90c3c61
 42 27 l 1
 43 27 l 1x790c3a61
 43 26 l 1xb90c3a61
 44 26 l 1
 44 25 l 1xb90c3c61
46 25 m 1xb90c38e1
 45 25 l 1xb90c38e1
 45 26 l 1x790c38e1
 44 26 l 1xb90c3ce1
 44 27 l 1
 46 27 l 1x790c3961
 46 25 l 1xb90c38e1
49 25 m 1
 47 25 l 1xb90c3861
 47 27 l 1
 49 27 l 1x790c3861
 49 25 l 1
55 25 m 1
 53 25 l 1xb90c3861
 53 27 l 1
 55 27 l 1x790c3861
 55 25 l 1
58 25 m 1xb90c3871
 56 25 l 1xb90c3871
 56 27 l 1
 57 27 l 1x790c3869
 57 26 l 1xb90c3869
 58 26 l 1
 58 25 l 1xb90c3871
60 25 m 1xb90c3863
 59 25 l 1xb90c3863
 59 26 l 1x790c3863
 58 26 l 1xb90c3873
 58 27 l 1
 60 27 l 1x790c3865
 60 25 l 1xb90c3863
63 25 m 1
 61 25 l 1xb90c3861
 61 27 l 1
 63 27 l 1x790c3861
 63 25 l 1
41 29 m 1
 39 29 l 1
 39 31 l 1
 41 31 l 1
 41 29 l 1
41 33 m 1
 39 33 l 1
 39 35 l 1
 41 35 l 1
 41 33 l 1
49 29 m 1
 47 29 l 1
 47 31 l 1
 49 31 l 1
 49 29 l 1
49 33 m 1
 47 33 l 1
 47 35 l 1
 49 35 l 1
 49 33 l 1
41 37 m 1
 39 37 l 1
 39 39 l 1
 41 39 l 1
 41 37 l 1
41 41 m 1x3d0c3861
 39 41 l 1x3d0c3861
 39 43 l 1
 41 43 l 1x3b0c3861
 41 41 l 1x3d0c3861
44 41 m 1x3d0c3c61
 42 41 l 1x3d0c3c61
 42 43 l 1
 43 43 l 1x3b0c3a61
 43 42 l 1x3d0c3a61
 44 42 l 1
 44 41 l 1x3d0c3c61
49 37 m 1
 47 37 l 1
 47 39 l 1
 49 39 l 1
 49 37 l 1
46 41 m 1x3d0c38e1
 45 41 l 1x3d0c38e1
 45 42 l 1x3b0c38e1
 44 42 l 1x3d0c3ce1
 44 43 l 1
 46 43 l 1x3b0c3961
 46 41 l 1x3d0c38e1
49 41 m 1
 47 41 l 1x3d0c3861
 47 43 l 1
 49 43 l 1x3b0c3861
 49 41 l 1
55 29 m 1
 53 29 l 1
 53 31 l 1
 55 31 l 1
 55 29 l 1
55 33 m 1
 53 33 l 1
 53 35 l 1
 55 35 l 1
 55 33 l 1
63 29 m 1
 61 29 l 1
 61 31 l 1
 63 31 l 1
 63 29 l 1
63 33 m 1
 61 33 l 1
 61 35 l 1
 63 35 l 1
 63 33 l 1
55 37 m 1
 53 37 l 1
 53 39 l 1
 55 39 l 1
 55 37 l 1
55 41 m 1
 53 41 l 1x3d0c3861
 53 43 l 1
 55 43 l 1x3b0c3861
 55 41 l 1
58 41 m 1x3d0c3871
 56 41 l 1x3d0c3871
 56 43 l 1
 57 43 l 1x3b0c3869
 57 42 l 1x3d0c3869
 58 42 l 1
 58 41 l 1x3d0c3871
60 41 m 1x3d0c3863
 59 41 l 1x3d0c3863
 59 42 l 1x3b0c3863
 58 42 l 1x3d0c3873
 58 43 l 1
 60 43 l 1x3b0c3865
 60 41 l 1x3d0c3863
63 37 m 1
 61 37 l 1
 61 39 l 1
 63 39 l 1
 63 37 l 1
63 41 m 1
 61 41 l 1x3d0c3861
 61 43 l 1
 63 43 l 1x3b0c3861
 63 41 l 1
EndSplineSet
Ligature2: "'liga' Standard Ligatures in Latin lookup 0-1" zero zero zero zero zero one three
LCarets2: 1 0
EndChar

StartChar: custom_0_0_0_0_0_1_4
Encoding: 270 -1 25
Width: 70
HStem: 25 1<11 12 25 26 43 44 57 58> 26 1<12 13 26 27 44 45 58 59> 29 2<7 9 15 17 21 23 29 31 39 41 47 49 53 55 61 63> 33 2<7 9 15 17 21 23 29 31 39 41 47 49 53 55 61 63> 37 2<7 9 15 17 21 23 29 31 39 41 47 49 53 55 61 63> 41 1<11 12 25 26 43 44 57 58> 42 1<12 13 26 27 44 45 58 59>
VStem: 7 2<25 27 29 31 33 35 37 39 41 43> 10 2<25 26 41 42> 10 1<26 27 42 43> 12 2<26 27 42 43> 13 1<25 26 41 42> 15 2<25 27 29 31 33 35 37 39 41 43> 21 2<25 27 29 31 33 35 37 39 41 43> 24 2<25 26 41 42> 24 1<26 27 42 43> 26 2<26 27 42 43> 27 1<25 26 41 42> 29 2<25 27 29 31 33 35 37 39 41 43> 34 2<31 33 35 37> 39 2<25 27 29 31 33 35 37 39 41 43> 42 2<25 26 41 42> 42 1<26 27 42 43> 44 2<26 27 42 43> 45 1<25 26 41 42> 47 2<25 27 29 31 33 35 37 39 41 43> 53 2<25 27 29 31 33 35 37 39 41 43> 56 2<25 26 41 42> 56 1<26 27 42 43> 58 2<26 27 42 43> 59 1<25 26 41 42> 61 2<25 27 29 31 33 35 37 39 41 43>
LayerCount: 2
Fore
SplineSet
9 25 m 1xb90c3861
 7 25 l 1xb90c3861
 7 27 l 1
 9 27 l 1x790c3861
 9 25 l 1xb90c3861
12 25 m 1xb98c3861
 10 25 l 1xb98c3861
 10 27 l 1
 11 27 l 1x794c3861
 11 26 l 1xb94c3861
 12 26 l 1
 12 25 l 1xb98c3861
14 25 m 1xb91c3861
 13 25 l 1xb91c3861
 13 26 l 1x791c3861
 12 26 l 1xb99c3861
 12 27 l 1
 14 27 l 1x792c3861
 14 25 l 1xb91c3861
17 25 m 1
 15 25 l 1xb90c3861
 15 27 l 1
 17 27 l 1x790c3861
 17 25 l 1
23 25 m 1
 21 25 l 1xb90c3861
 21 27 l 1
 23 27 l 1x790c3861
 23 25 l 1
26 25 m 1xb90e3861
 24 25 l 1xb90e3861
 24 27 l 1
 25 27 l 1x790d3861
 25 26 l 1xb90d3861
 26 26 l 1
 26 25 l 1xb90e3861
28 25 m 1xb90c7861
 27 25 l 1xb90c7861
 27 26 l 1x790c7861
 26 26 l 1xb90e7861
 26 27 l 1
 28 27 l 1x790cb861
 28 25 l 1xb90c7861
31 25 m 1
 29 25 l 1xb90c3861
 29 27 l 1
 31 27 l 1x790c3861
 31 25 l 1
9 29 m 1
 7 29 l 1
 7 31 l 1
 9 31 l 1
 9 29 l 1
9 33 m 1
 7 33 l 1
 7 35 l 1
 9 35 l 1
 9 33 l 1
17 29 m 1
 15 29 l 1
 15 31 l 1
 17 31 l 1
 17 29 l 1
17 33 m 1
 15 33 l 1
 15 35 l 1
 17 35 l 1
 17 33 l 1
9 37 m 1
 7 37 l 1
 7 39 l 1
 9 39 l 1
 9 37 l 1
9 41 m 1x3d0c3861
 7 41 l 1x3d0c3861
 7 43 l 1
 9 43 l 1x3b0c3861
 9 41 l 1x3d0c3861
12 41 m 1x3d8c3861
 10 41 l 1x3d8c3861
 10 43 l 1
 11 43 l 1x3b4c3861
 11 42 l 1x3d4c3861
 12 42 l 1
 12 41 l 1x3d8c3861
17 37 m 1
 15 37 l 1
 15 39 l 1
 17 39 l 1
 17 37 l 1
14 41 m 1x3d1c3861
 13 41 l 1x3d1c3861
 13 42 l 1x3b1c3861
 12 42 l 1x3d9c3861
 12 43 l 1
 14 43 l 1x3b2c3861
 14 41 l 1x3d1c3861
17 41 m 1
 15 41 l 1x3d0c3861
 15 43 l 1
 17 43 l 1x3b0c3861
 17 41 l 1
23 29 m 1
 21 29 l 1
 21 31 l 1
 23 31 l 1
 23 29 l 1
23 33 m 1
 21 33 l 1
 21 35 l 1
 23 35 l 1
 23 33 l 1
31 29 m 1
 29 29 l 1
 29 31 l 1
 31 31 l 1
 31 29 l 1
31 33 m 1
 29 33 l 1
 29 35 l 1
 31 35 l 1
 31 33 l 1
36 31 m 1
 34 31 l 1
 34 33 l 1
 36 33 l 1
 36 31 l 1
23 37 m 1
 21 37 l 1
 21 39 l 1
 23 39 l 1
 23 37 l 1
23 41 m 1
 21 41 l 1x3d0c3861
 21 43 l 1
 23 43 l 1x3b0c3861
 23 41 l 1
26 41 m 1x3d0e3861
 24 41 l 1x3d0e3861
 24 43 l 1
 25 43 l 1x3b0d3861
 25 42 l 1x3d0d3861
 26 42 l 1
 26 41 l 1x3d0e3861
28 41 m 1x3d0c7861
 27 41 l 1x3d0c7861
 27 42 l 1x3b0c7861
 26 42 l 1x3d0e7861
 26 43 l 1
 28 43 l 1x3b0cb861
 28 41 l 1x3d0c7861
31 37 m 1
 29 37 l 1
 29 39 l 1
 31 39 l 1
 31 37 l 1
36 35 m 1
 34 35 l 1
 34 37 l 1
 36 37 l 1
 36 35 l 1
31 41 m 1
 29 41 l 1x3d0c3861
 29 43 l 1
 31 43 l 1x3b0c3861
 31 41 l 1
41 25 m 1xb90c3861
 39 25 l 1xb90c3861
 39 27 l 1
 41 27 l 1x790c3861
 41 25 l 1xb90c3861
44 25 m 1xb90c3c61
 42 25 l 1xb90c3c61
 42 27 l 1
 43 27 l 1x790c3a61
 43 26 l 1xb90c3a61
 44 26 l 1
 44 25 l 1xb90c3c61
46 25 m 1xb90c38e1
 45 25 l 1xb90c38e1
 45 26 l 1x790c38e1
 44 26 l 1xb90c3ce1
 44 27 l 1
 46 27 l 1x790c3961
 46 25 l 1xb90c38e1
49 25 m 1
 47 25 l 1xb90c3861
 47 27 l 1
 49 27 l 1x790c3861
 49 25 l 1
55 25 m 1
 53 25 l 1xb90c3861
 53 27 l 1
 55 27 l 1x790c3861
 55 25 l 1
58 25 m 1xb90c3871
 56 25 l 1xb90c3871
 56 27 l 1
 57 27 l 1x790c3869
 57 26 l 1xb90c3869
 58 26 l 1
 58 25 l 1xb90c3871
60 25 m 1xb90c3863
 59 25 l 1xb90c3863
 59 26 l 1x790c3863
 58 26 l 1xb90c3873
 58 27 l 1
 60 27 l 1x790c3865
 60 25 l 1xb90c3863
63 25 m 1
 61 25 l 1xb90c3861
 61 27 l 1
 63 27 l 1x790c3861
 63 25 l 1
41 29 m 1
 39 29 l 1
 39 31 l 1
 41 31 l 1
 41 29 l 1
41 33 m 1
 39 33 l 1
 39 35 l 1
 41 35 l 1
 41 33 l 1
49 29 m 1
 47 29 l 1
 47 31 l 1
 49 31 l 1
 49 29 l 1
49 33 m 1
 47 33 l 1
 47 35 l 1
 49 35 l 1
 49 33 l 1
41 37 m 1
 39 37 l 1
 39 39 l 1
 41 39 l 1
 41 37 l 1
41 41 m 1x3d0c3861
 39 41 l 1x3d0c3861
 39 43 l 1
 41 43 l 1x3b0c3861
 41 41 l 1x3d0c3861
44 41 m 1x3d0c3c61
 42 41 l 1x3d0c3c61
 42 43 l 1
 43 43 l 1x3b0c3a61
 43 42 l 1x3d0c3a61
 44 42 l 1
 44 41 l 1x3d0c3c61
49 37 m 1
 47 37 l 1
 47 39 l 1
 49 39 l 1
 49 37 l 1
46 41 m 1x3d0c38e1
 45 41 l 1x3d0c38e1
 45 42 l 1x3b0c38e1
 44 42 l 1x3d0c3ce1
 44 43 l 1
 46 43 l 1x3b0c3961
 46 41 l 1x3d0c38e1
49 41 m 1
 47 41 l 1x3d0c3861
 47 43 l 1
 49 43 l 1x3b0c3861
 49 41 l 1
55 29 m 1
 53 29 l 1
 53 31 l 1
 55 31 l 1
 55 29 l 1
55 33 m 1
 53 33 l 1
 53 35 l 1
 55 35 l 1
 55 33 l 1
63 29 m 1
 61 29 l 1
 61 31 l 1
 63 31 l 1
 63 29 l 1
63 33 m 1
 61 33 l 1
 61 35 l 1
 63 35 l 1
 63 33 l 1
55 37 m 1
 53 37 l 1
 53 39 l 1
 55 39 l 1
 55 37 l 1
55 41 m 1
 53 41 l 1x3d0c3861
 53 43 l 1
 55 43 l 1x3b0c3861
 55 41 l 1
58 41 m 1x3d0c3871
 56 41 l 1x3d0c3871
 56 43 l 1
 57 43 l 1x3b0c3869
 57 42 l 1x3d0c3869
 58 42 l 1
 58 41 l 1x3d0c3871
60 41 m 1x3d0c3863
 59 41 l 1x3d0c3863
 59 42 l 1x3b0c3863
 58 42 l 1x3d0c3873
 58 43 l 1
 60 43 l 1x3b0c3865
 60 41 l 1x3d0c3863
63 37 m 1
 61 37 l 1
 61 39 l 1
 63 39 l 1
 63 37 l 1
63 41 m 1
 61 41 l 1x3d0c3861
 61 43 l 1
 63 43 l 1x3b0c3861
 63 41 l 1
EndSplineSet
Ligature2: "'liga' Standard Ligatures in Latin lookup 0-1" zero zero zero zero zero one four
LCarets2: 1 0
EndChar

StartChar: custom_0_0_0_0_0_1_5
Encoding: 271 -1 26
Width: 70
HStem: 25 1<11 12 25 26 43 44 57 58> 26 1<12 13 26 27 44 45 58 59> 29 2<7 9 15 17 21 23 29 31 39 41 47 49 53 55 61 63> 33 2<7 9 15 17 21 23 29 31 39 41 47 49 53 55 61 63> 37 2<7 9 15 17 21 23 29 31 39 41 47 49 53 55 61 63> 41 1<11 12 25 26 43 44 57 58> 42 1<12 13 26 27 44 45 58 59>
VStem: 7 2<25 27 29 31 33 35 37 39 41 43> 10 2<25 26 41 42> 10 1<26 27 42 43> 12 2<26 27 42 43> 13 1<25 26 41 42> 15 2<25 27 29 31 33 35 37 39 41 43> 21 2<25 27 29 31 33 35 37 39 41 43> 24 2<25 26 41 42> 24 1<26 27 42 43> 26 2<26 27 42 43> 27 1<25 26 41 42> 29 2<25 27 29 31 33 35 37 39 41 43> 34 2<31 33 35 37> 39 2<25 27 29 31 33 35 37 39 41 43> 42 2<25 26 41 42> 42 1<26 27 42 43> 44 2<26 27 42 43> 45 1<25 26 41 42> 47 2<25 27 29 31 33 35 37 39 41 43> 53 2<25 27 29 31 33 35 37 39 41 43> 56 2<25 26 41 42> 56 1<26 27 42 43> 58 2<26 27 42 43> 59 1<25 26 41 42> 61 2<25 27 29 31 33 35 37 39 41 43>
LayerCount: 2
Fore
SplineSet
9 25 m 1xb90c3861
 7 25 l 1xb90c3861
 7 27 l 1
 9 27 l 1x790c3861
 9 25 l 1xb90c3861
12 25 m 1xb98c3861
 10 25 l 1xb98c3861
 10 27 l 1
 11 27 l 1x794c3861
 11 26 l 1xb94c3861
 12 26 l 1
 12 25 l 1xb98c3861
14 25 m 1xb91c3861
 13 25 l 1xb91c3861
 13 26 l 1x791c3861
 12 26 l 1xb99c3861
 12 27 l 1
 14 27 l 1x792c3861
 14 25 l 1xb91c3861
17 25 m 1
 15 25 l 1xb90c3861
 15 27 l 1
 17 27 l 1x790c3861
 17 25 l 1
23 25 m 1
 21 25 l 1xb90c3861
 21 27 l 1
 23 27 l 1x790c3861
 23 25 l 1
26 25 m 1xb90e3861
 24 25 l 1xb90e3861
 24 27 l 1
 25 27 l 1x790d3861
 25 26 l 1xb90d3861
 26 26 l 1
 26 25 l 1xb90e3861
28 25 m 1xb90c7861
 27 25 l 1xb90c7861
 27 26 l 1x790c7861
 26 26 l 1xb90e7861
 26 27 l 1
 28 27 l 1x790cb861
 28 25 l 1xb90c7861
31 25 m 1
 29 25 l 1xb90c3861
 29 27 l 1
 31 27 l 1x790c3861
 31 25 l 1
9 29 m 1
 7 29 l 1
 7 31 l 1
 9 31 l 1
 9 29 l 1
9 33 m 1
 7 33 l 1
 7 35 l 1
 9 35 l 1
 9 33 l 1
17 29 m 1
 15 29 l 1
 15 31 l 1
 17 31 l 1
 17 29 l 1
17 33 m 1
 15 33 l 1
 15 35 l 1
 17 35 l 1
 17 33 l 1
9 37 m 1
 7 37 l 1
 7 39 l 1
 9 39 l 1
 9 37 l 1
9 41 m 1x3d0c3861
 7 41 l 1x3d0c3861
 7 43 l 1
 9 43 l 1x3b0c3861
 9 41 l 1x3d0c3861
12 41 m 1x3d8c3861
 10 41 l 1x3d8c3861
 10 43 l 1
 11 43 l 1x3b4c3861
 11 42 l 1x3d4c3861
 12 42 l 1
 12 41 l 1x3d8c3861
17 37 m 1
 15 37 l 1
 15 39 l 1
 17 39 l 1
 17 37 l 1
14 41 m 1x3d1c3861
 13 41 l 1x3d1c3861
 13 42 l 1x3b1c3861
 12 42 l 1x3d9c3861
 12 43 l 1
 14 43 l 1x3b2c3861
 14 41 l 1x3d1c3861
17 41 m 1
 15 41 l 1x3d0c3861
 15 43 l 1
 17 43 l 1x3b0c3861
 17 41 l 1
23 29 m 1
 21 29 l 1
 21 31 l 1
 23 31 l 1
 23 29 l 1
23 33 m 1
 21 33 l 1
 21 35 l 1
 23 35 l 1
 23 33 l 1
31 29 m 1
 29 29 l 1
 29 31 l 1
 31 31 l 1
 31 29 l 1
31 33 m 1
 29 33 l 1
 29 35 l 1
 31 35 l 1
 31 33 l 1
36 31 m 1
 34 31 l 1
 34 33 l 1
 36 33 l 1
 36 31 l 1
23 37 m 1
 21 37 l 1
 21 39 l 1
 23 39 l 1
 23 37 l 1
23 41 m 1
 21 41 l 1x3d0c3861
 21 43 l 1
 23 43 l 1x3b0c3861
 23 41 l 1
26 41 m 1x3d0e3861
 24 41 l 1x3d0e3861
 24 43 l 1
 25 43 l 1x3b0d3861
 25 42 l 1x3d0d3861
 26 42 l 1
 26 41 l 1x3d0e3861
28 41 m 1x3d0c7861
 27 41 l 1x3d0c7861
 27 42 l 1x3b0c7861
 26 42 l 1x3d0e7861
 26 43 l 1
 28 43 l 1x3b0cb861
 28 41 l 1x3d0c7861
31 37 m 1
 29 37 l 1
 29 39 l 1
 31 39 l 1
 31 37 l 1
36 35 m 1
 34 35 l 1
 34 37 l 1
 36 37 l 1
 36 35 l 1
31 41 m 1
 29 41 l 1x3d0c3861
 29 43 l 1
 31 43 l 1x3b0c3861
 31 41 l 1
41 25 m 1xb90c3861
 39 25 l 1xb90c3861
 39 27 l 1
 41 27 l 1x790c3861
 41 25 l 1xb90c3861
44 25 m 1xb90c3c61
 42 25 l 1xb90c3c61
 42 27 l 1
 43 27 l 1x790c3a61
 43 26 l 1xb90c3a61
 44 26 l 1
 44 25 l 1xb90c3c61
46 25 m 1xb90c38e1
 45 25 l 1xb90c38e1
 45 26 l 1x790c38e1
 44 26 l 1xb90c3ce1
 44 27 l 1
 46 27 l 1x790c3961
 46 25 l 1xb90c38e1
49 25 m 1
 47 25 l 1xb90c3861
 47 27 l 1
 49 27 l 1x790c3861
 49 25 l 1
55 25 m 1
 53 25 l 1xb90c3861
 53 27 l 1
 55 27 l 1x790c3861
 55 25 l 1
58 25 m 1xb90c3871
 56 25 l 1xb90c3871
 56 27 l 1
 57 27 l 1x790c3869
 57 26 l 1xb90c3869
 58 26 l 1
 58 25 l 1xb90c3871
60 25 m 1xb90c3863
 59 25 l 1xb90c3863
 59 26 l 1x790c3863
 58 26 l 1xb90c3873
 58 27 l 1
 60 27 l 1x790c3865
 60 25 l 1xb90c3863
63 25 m 1
 61 25 l 1xb90c3861
 61 27 l 1
 63 27 l 1x790c3861
 63 25 l 1
41 29 m 1
 39 29 l 1
 39 31 l 1
 41 31 l 1
 41 29 l 1
41 33 m 1
 39 33 l 1
 39 35 l 1
 41 35 l 1
 41 33 l 1
49 29 m 1
 47 29 l 1
 47 31 l 1
 49 31 l 1
 49 29 l 1
49 33 m 1
 47 33 l 1
 47 35 l 1
 49 35 l 1
 49 33 l 1
41 37 m 1
 39 37 l 1
 39 39 l 1
 41 39 l 1
 41 37 l 1
41 41 m 1x3d0c3861
 39 41 l 1x3d0c3861
 39 43 l 1
 41 43 l 1x3b0c3861
 41 41 l 1x3d0c3861
44 41 m 1x3d0c3c61
 42 41 l 1x3d0c3c61
 42 43 l 1
 43 43 l 1x3b0c3a61
 43 42 l 1x3d0c3a61
 44 42 l 1
 44 41 l 1x3d0c3c61
49 37 m 1
 47 37 l 1
 47 39 l 1
 49 39 l 1
 49 37 l 1
46 41 m 1x3d0c38e1
 45 41 l 1x3d0c38e1
 45 42 l 1x3b0c38e1
 44 42 l 1x3d0c3ce1
 44 43 l 1
 46 43 l 1x3b0c3961
 46 41 l 1x3d0c38e1
49 41 m 1
 47 41 l 1x3d0c3861
 47 43 l 1
 49 43 l 1x3b0c3861
 49 41 l 1
55 29 m 1
 53 29 l 1
 53 31 l 1
 55 31 l 1
 55 29 l 1
55 33 m 1
 53 33 l 1
 53 35 l 1
 55 35 l 1
 55 33 l 1
63 29 m 1
 61 29 l 1
 61 31 l 1
 63 31 l 1
 63 29 l 1
63 33 m 1
 61 33 l 1
 61 35 l 1
 63 35 l 1
 63 33 l 1
55 37 m 1
 53 37 l 1
 53 39 l 1
 55 39 l 1
 55 37 l 1
55 41 m 1
 53 41 l 1x3d0c3861
 53 43 l 1
 55 43 l 1x3b0c3861
 55 41 l 1
58 41 m 1x3d0c3871
 56 41 l 1x3d0c3871
 56 43 l 1
 57 43 l 1x3b0c3869
 57 42 l 1x3d0c3869
 58 42 l 1
 58 41 l 1x3d0c3871
60 41 m 1x3d0c3863
 59 41 l 1x3d0c3863
 59 42 l 1x3b0c3863
 58 42 l 1x3d0c3873
 58 43 l 1
 60 43 l 1x3b0c3865
 60 41 l 1x3d0c3863
63 37 m 1
 61 37 l 1
 61 39 l 1
 63 39 l 1
 63 37 l 1
63 41 m 1
 61 41 l 1x3d0c3861
 61 43 l 1
 63 43 l 1x3b0c3861
 63 41 l 1
EndSplineSet
Ligature2: "'liga' Standard Ligatures in Latin lookup 0-1" zero zero zero zero zero one five
LCarets2: 1 0
EndChar

StartChar: custom_0_0_0_0_0_1_6
Encoding: 272 -1 27
Width: 70
HStem: 25 1<11 12 25 26 43 44 57 58> 26 1<12 13 26 27 44 45 58 59> 29 2<7 9 15 17 21 23 29 31 39 41 47 49 53 55 61 63> 33 2<7 9 15 17 21 23 29 31 39 41 47 49 53 55 61 63> 37 2<7 9 15 17 21 23 29 31 39 41 47 49 53 55 61 63> 41 1<11 12 25 26 43 44 57 58> 42 1<12 13 26 27 44 45 58 59>
VStem: 7 2<25 27 29 31 33 35 37 39 41 43> 10 2<25 26 41 42> 10 1<26 27 42 43> 12 2<26 27 42 43> 13 1<25 26 41 42> 15 2<25 27 29 31 33 35 37 39 41 43> 21 2<25 27 29 31 33 35 37 39 41 43> 24 2<25 26 41 42> 24 1<26 27 42 43> 26 2<26 27 42 43> 27 1<25 26 41 42> 29 2<25 27 29 31 33 35 37 39 41 43> 34 2<31 33 35 37> 39 2<25 27 29 31 33 35 37 39 41 43> 42 2<25 26 41 42> 42 1<26 27 42 43> 44 2<26 27 42 43> 45 1<25 26 41 42> 47 2<25 27 29 31 33 35 37 39 41 43> 53 2<25 27 29 31 33 35 37 39 41 43> 56 2<25 26 41 42> 56 1<26 27 42 43> 58 2<26 27 42 43> 59 1<25 26 41 42> 61 2<25 27 29 31 33 35 37 39 41 43>
LayerCount: 2
Fore
SplineSet
9 25 m 1xb90c3861
 7 25 l 1xb90c3861
 7 27 l 1
 9 27 l 1x790c3861
 9 25 l 1xb90c3861
12 25 m 1xb98c3861
 10 25 l 1xb98c3861
 10 27 l 1
 11 27 l 1x794c3861
 11 26 l 1xb94c3861
 12 26 l 1
 12 25 l 1xb98c3861
14 25 m 1xb91c3861
 13 25 l 1xb91c3861
 13 26 l 1x791c3861
 12 26 l 1xb99c3861
 12 27 l 1
 14 27 l 1x792c3861
 14 25 l 1xb91c3861
17 25 m 1
 15 25 l 1xb90c3861
 15 27 l 1
 17 27 l 1x790c3861
 17 25 l 1
23 25 m 1
 21 25 l 1xb90c3861
 21 27 l 1
 23 27 l 1x790c3861
 23 25 l 1
26 25 m 1xb90e3861
 24 25 l 1xb90e3861
 24 27 l 1
 25 27 l 1x790d3861
 25 26 l 1xb90d3861
 26 26 l 1
 26 25 l 1xb90e3861
28 25 m 1xb90c7861
 27 25 l 1xb90c7861
 27 26 l 1x790c7861
 26 26 l 1xb90e7861
 26 27 l 1
 28 27 l 1x790cb861
 28 25 l 1xb90c7861
31 25 m 1
 29 25 l 1xb90c3861
 29 27 l 1
 31 27 l 1x790c3861
 31 25 l 1
9 29 m 1
 7 29 l 1
 7 31 l 1
 9 31 l 1
 9 29 l 1
9 33 m 1
 7 33 l 1
 7 35 l 1
 9 35 l 1
 9 33 l 1
17 29 m 1
 15 29 l 1
 15 31 l 1
 17 31 l 1
 17 29 l 1
17 33 m 1
 15 33 l 1
 15 35 l 1
 17 35 l 1
 17 33 l 1
9 37 m 1
 7 37 l 1
 7 39 l 1
 9 39 l 1
 9 37 l 1
9 41 m 1x3d0c3861
 7 41 l 1x3d0c3861
 7 43 l 1
 9 43 l 1x3b0c3861
 9 41 l 1x3d0c3861
12 41 m 1x3d8c3861
 10 41 l 1x3d8c3861
 10 43 l 1
 11 43 l 1x3b4c3861
 11 42 l 1x3d4c3861
 12 42 l 1
 12 41 l 1x3d8c3861
17 37 m 1
 15 37 l 1
 15 39 l 1
 17 39 l 1
 17 37 l 1
14 41 m 1x3d1c3861
 13 41 l 1x3d1c3861
 13 42 l 1x3b1c3861
 12 42 l 1x3d9c3861
 12 43 l 1
 14 43 l 1x3b2c3861
 14 41 l 1x3d1c3861
17 41 m 1
 15 41 l 1x3d0c3861
 15 43 l 1
 17 43 l 1x3b0c3861
 17 41 l 1
23 29 m 1
 21 29 l 1
 21 31 l 1
 23 31 l 1
 23 29 l 1
23 33 m 1
 21 33 l 1
 21 35 l 1
 23 35 l 1
 23 33 l 1
31 29 m 1
 29 29 l 1
 29 31 l 1
 31 31 l 1
 31 29 l 1
31 33 m 1
 29 33 l 1
 29 35 l 1
 31 35 l 1
 31 33 l 1
36 31 m 1
 34 31 l 1
 34 33 l 1
 36 33 l 1
 36 31 l 1
23 37 m 1
 21 37 l 1
 21 39 l 1
 23 39 l 1
 23 37 l 1
23 41 m 1
 21 41 l 1x3d0c3861
 21 43 l 1
 23 43 l 1x3b0c3861
 23 41 l 1
26 41 m 1x3d0e3861
 24 41 l 1x3d0e3861
 24 43 l 1
 25 43 l 1x3b0d3861
 25 42 l 1x3d0d3861
 26 42 l 1
 26 41 l 1x3d0e3861
28 41 m 1x3d0c7861
 27 41 l 1x3d0c7861
 27 42 l 1x3b0c7861
 26 42 l 1x3d0e7861
 26 43 l 1
 28 43 l 1x3b0cb861
 28 41 l 1x3d0c7861
31 37 m 1
 29 37 l 1
 29 39 l 1
 31 39 l 1
 31 37 l 1
36 35 m 1
 34 35 l 1
 34 37 l 1
 36 37 l 1
 36 35 l 1
31 41 m 1
 29 41 l 1x3d0c3861
 29 43 l 1
 31 43 l 1x3b0c3861
 31 41 l 1
41 25 m 1xb90c3861
 39 25 l 1xb90c3861
 39 27 l 1
 41 27 l 1x790c3861
 41 25 l 1xb90c3861
44 25 m 1xb90c3c61
 42 25 l 1xb90c3c61
 42 27 l 1
 43 27 l 1x790c3a61
 43 26 l 1xb90c3a61
 44 26 l 1
 44 25 l 1xb90c3c61
46 25 m 1xb90c38e1
 45 25 l 1xb90c38e1
 45 26 l 1x790c38e1
 44 26 l 1xb90c3ce1
 44 27 l 1
 46 27 l 1x790c3961
 46 25 l 1xb90c38e1
49 25 m 1
 47 25 l 1xb90c3861
 47 27 l 1
 49 27 l 1x790c3861
 49 25 l 1
55 25 m 1
 53 25 l 1xb90c3861
 53 27 l 1
 55 27 l 1x790c3861
 55 25 l 1
58 25 m 1xb90c3871
 56 25 l 1xb90c3871
 56 27 l 1
 57 27 l 1x790c3869
 57 26 l 1xb90c3869
 58 26 l 1
 58 25 l 1xb90c3871
60 25 m 1xb90c3863
 59 25 l 1xb90c3863
 59 26 l 1x790c3863
 58 26 l 1xb90c3873
 58 27 l 1
 60 27 l 1x790c3865
 60 25 l 1xb90c3863
63 25 m 1
 61 25 l 1xb90c3861
 61 27 l 1
 63 27 l 1x790c3861
 63 25 l 1
41 29 m 1
 39 29 l 1
 39 31 l 1
 41 31 l 1
 41 29 l 1
41 33 m 1
 39 33 l 1
 39 35 l 1
 41 35 l 1
 41 33 l 1
49 29 m 1
 47 29 l 1
 47 31 l 1
 49 31 l 1
 49 29 l 1
49 33 m 1
 47 33 l 1
 47 35 l 1
 49 35 l 1
 49 33 l 1
41 37 m 1
 39 37 l 1
 39 39 l 1
 41 39 l 1
 41 37 l 1
41 41 m 1x3d0c3861
 39 41 l 1x3d0c3861
 39 43 l 1
 41 43 l 1x3b0c3861
 41 41 l 1x3d0c3861
44 41 m 1x3d0c3c61
 42 41 l 1x3d0c3c61
 42 43 l 1
 43 43 l 1x3b0c3a61
 43 42 l 1x3d0c3a61
 44 42 l 1
 44 41 l 1x3d0c3c61
49 37 m 1
 47 37 l 1
 47 39 l 1
 49 39 l 1
 49 37 l 1
46 41 m 1x3d0c38e1
 45 41 l 1x3d0c38e1
 45 42 l 1x3b0c38e1
 44 42 l 1x3d0c3ce1
 44 43 l 1
 46 43 l 1x3b0c3961
 46 41 l 1x3d0c38e1
49 41 m 1
 47 41 l 1x3d0c3861
 47 43 l 1
 49 43 l 1x3b0c3861
 49 41 l 1
55 29 m 1
 53 29 l 1
 53 31 l 1
 55 31 l 1
 55 29 l 1
55 33 m 1
 53 33 l 1
 53 35 l 1
 55 35 l 1
 55 33 l 1
63 29 m 1
 61 29 l 1
 61 31 l 1
 63 31 l 1
 63 29 l 1
63 33 m 1
 61 33 l 1
 61 35 l 1
 63 35 l 1
 63 33 l 1
55 37 m 1
 53 37 l 1
 53 39 l 1
 55 39 l 1
 55 37 l 1
55 41 m 1
 53 41 l 1x3d0c3861
 53 43 l 1
 55 43 l 1x3b0c3861
 55 41 l 1
58 41 m 1x3d0c3871
 56 41 l 1x3d0c3871
 56 43 l 1
 57 43 l 1x3b0c3869
 57 42 l 1x3d0c3869
 58 42 l 1
 58 41 l 1x3d0c3871
60 41 m 1x3d0c3863
 59 41 l 1x3d0c3863
 59 42 l 1x3b0c3863
 58 42 l 1x3d0c3873
 58 43 l 1
 60 43 l 1x3b0c3865
 60 41 l 1x3d0c3863
63 37 m 1
 61 37 l 1
 61 39 l 1
 63 39 l 1
 63 37 l 1
63 41 m 1
 61 41 l 1x3d0c3861
 61 43 l 1
 63 43 l 1x3b0c3861
 63 41 l 1
EndSplineSet
Ligature2: "'liga' Standard Ligatures in Latin lookup 0-1" zero zero zero zero zero one six
LCarets2: 1 0
EndChar

StartChar: custom_0_0_0_0_0_1_7
Encoding: 273 -1 28
Width: 70
HStem: 25 1<11 12 25 26 43 44 57 58> 26 1<12 13 26 27 44 45 58 59> 29 2<7 9 15 17 21 23 29 31 39 41 47 49 53 55 61 63> 33 2<7 9 15 17 21 23 29 31 39 41 47 49 53 55 61 63> 37 2<7 9 15 17 21 23 29 31 39 41 47 49 53 55 61 63> 41 1<11 12 25 26 43 44 57 58> 42 1<12 13 26 27 44 45 58 59>
VStem: 7 2<25 27 29 31 33 35 37 39 41 43> 10 2<25 26 41 42> 10 1<26 27 42 43> 12 2<26 27 42 43> 13 1<25 26 41 42> 15 2<25 27 29 31 33 35 37 39 41 43> 21 2<25 27 29 31 33 35 37 39 41 43> 24 2<25 26 41 42> 24 1<26 27 42 43> 26 2<26 27 42 43> 27 1<25 26 41 42> 29 2<25 27 29 31 33 35 37 39 41 43> 34 2<31 33 35 37> 39 2<25 27 29 31 33 35 37 39 41 43> 42 2<25 26 41 42> 42 1<26 27 42 43> 44 2<26 27 42 43> 45 1<25 26 41 42> 47 2<25 27 29 31 33 35 37 39 41 43> 53 2<25 27 29 31 33 35 37 39 41 43> 56 2<25 26 41 42> 56 1<26 27 42 43> 58 2<26 27 42 43> 59 1<25 26 41 42> 61 2<25 27 29 31 33 35 37 39 41 43>
LayerCount: 2
Fore
SplineSet
9 25 m 1xb90c3861
 7 25 l 1xb90c3861
 7 27 l 1
 9 27 l 1x790c3861
 9 25 l 1xb90c3861
12 25 m 1xb98c3861
 10 25 l 1xb98c3861
 10 27 l 1
 11 27 l 1x794c3861
 11 26 l 1xb94c3861
 12 26 l 1
 12 25 l 1xb98c3861
14 25 m 1xb91c3861
 13 25 l 1xb91c3861
 13 26 l 1x791c3861
 12 26 l 1xb99c3861
 12 27 l 1
 14 27 l 1x792c3861
 14 25 l 1xb91c3861
17 25 m 1
 15 25 l 1xb90c3861
 15 27 l 1
 17 27 l 1x790c3861
 17 25 l 1
23 25 m 1
 21 25 l 1xb90c3861
 21 27 l 1
 23 27 l 1x790c3861
 23 25 l 1
26 25 m 1xb90e3861
 24 25 l 1xb90e3861
 24 27 l 1
 25 27 l 1x790d3861
 25 26 l 1xb90d3861
 26 26 l 1
 26 25 l 1xb90e3861
28 25 m 1xb90c7861
 27 25 l 1xb90c7861
 27 26 l 1x790c7861
 26 26 l 1xb90e7861
 26 27 l 1
 28 27 l 1x790cb861
 28 25 l 1xb90c7861
31 25 m 1
 29 25 l 1xb90c3861
 29 27 l 1
 31 27 l 1x790c3861
 31 25 l 1
9 29 m 1
 7 29 l 1
 7 31 l 1
 9 31 l 1
 9 29 l 1
9 33 m 1
 7 33 l 1
 7 35 l 1
 9 35 l 1
 9 33 l 1
17 29 m 1
 15 29 l 1
 15 31 l 1
 17 31 l 1
 17 29 l 1
17 33 m 1
 15 33 l 1
 15 35 l 1
 17 35 l 1
 17 33 l 1
9 37 m 1
 7 37 l 1
 7 39 l 1
 9 39 l 1
 9 37 l 1
9 41 m 1x3d0c3861
 7 41 l 1x3d0c3861
 7 43 l 1
 9 43 l 1x3b0c3861
 9 41 l 1x3d0c3861
12 41 m 1x3d8c3861
 10 41 l 1x3d8c3861
 10 43 l 1
 11 43 l 1x3b4c3861
 11 42 l 1x3d4c3861
 12 42 l 1
 12 41 l 1x3d8c3861
17 37 m 1
 15 37 l 1
 15 39 l 1
 17 39 l 1
 17 37 l 1
14 41 m 1x3d1c3861
 13 41 l 1x3d1c3861
 13 42 l 1x3b1c3861
 12 42 l 1x3d9c3861
 12 43 l 1
 14 43 l 1x3b2c3861
 14 41 l 1x3d1c3861
17 41 m 1
 15 41 l 1x3d0c3861
 15 43 l 1
 17 43 l 1x3b0c3861
 17 41 l 1
23 29 m 1
 21 29 l 1
 21 31 l 1
 23 31 l 1
 23 29 l 1
23 33 m 1
 21 33 l 1
 21 35 l 1
 23 35 l 1
 23 33 l 1
31 29 m 1
 29 29 l 1
 29 31 l 1
 31 31 l 1
 31 29 l 1
31 33 m 1
 29 33 l 1
 29 35 l 1
 31 35 l 1
 31 33 l 1
36 31 m 1
 34 31 l 1
 34 33 l 1
 36 33 l 1
 36 31 l 1
23 37 m 1
 21 37 l 1
 21 39 l 1
 23 39 l 1
 23 37 l 1
23 41 m 1
 21 41 l 1x3d0c3861
 21 43 l 1
 23 43 l 1x3b0c3861
 23 41 l 1
26 41 m 1x3d0e3861
 24 41 l 1x3d0e3861
 24 43 l 1
 25 43 l 1x3b0d3861
 25 42 l 1x3d0d3861
 26 42 l 1
 26 41 l 1x3d0e3861
28 41 m 1x3d0c7861
 27 41 l 1x3d0c7861
 27 42 l 1x3b0c7861
 26 42 l 1x3d0e7861
 26 43 l 1
 28 43 l 1x3b0cb861
 28 41 l 1x3d0c7861
31 37 m 1
 29 37 l 1
 29 39 l 1
 31 39 l 1
 31 37 l 1
36 35 m 1
 34 35 l 1
 34 37 l 1
 36 37 l 1
 36 35 l 1
31 41 m 1
 29 41 l 1x3d0c3861
 29 43 l 1
 31 43 l 1x3b0c3861
 31 41 l 1
41 25 m 1xb90c3861
 39 25 l 1xb90c3861
 39 27 l 1
 41 27 l 1x790c3861
 41 25 l 1xb90c3861
44 25 m 1xb90c3c61
 42 25 l 1xb90c3c61
 42 27 l 1
 43 27 l 1x790c3a61
 43 26 l 1xb90c3a61
 44 26 l 1
 44 25 l 1xb90c3c61
46 25 m 1xb90c38e1
 45 25 l 1xb90c38e1
 45 26 l 1x790c38e1
 44 26 l 1xb90c3ce1
 44 27 l 1
 46 27 l 1x790c3961
 46 25 l 1xb90c38e1
49 25 m 1
 47 25 l 1xb90c3861
 47 27 l 1
 49 27 l 1x790c3861
 49 25 l 1
55 25 m 1
 53 25 l 1xb90c3861
 53 27 l 1
 55 27 l 1x790c3861
 55 25 l 1
58 25 m 1xb90c3871
 56 25 l 1xb90c3871
 56 27 l 1
 57 27 l 1x790c3869
 57 26 l 1xb90c3869
 58 26 l 1
 58 25 l 1xb90c3871
60 25 m 1xb90c3863
 59 25 l 1xb90c3863
 59 26 l 1x790c3863
 58 26 l 1xb90c3873
 58 27 l 1
 60 27 l 1x790c3865
 60 25 l 1xb90c3863
63 25 m 1
 61 25 l 1xb90c3861
 61 27 l 1
 63 27 l 1x790c3861
 63 25 l 1
41 29 m 1
 39 29 l 1
 39 31 l 1
 41 31 l 1
 41 29 l 1
41 33 m 1
 39 33 l 1
 39 35 l 1
 41 35 l 1
 41 33 l 1
49 29 m 1
 47 29 l 1
 47 31 l 1
 49 31 l 1
 49 29 l 1
49 33 m 1
 47 33 l 1
 47 35 l 1
 49 35 l 1
 49 33 l 1
41 37 m 1
 39 37 l 1
 39 39 l 1
 41 39 l 1
 41 37 l 1
41 41 m 1x3d0c3861
 39 41 l 1x3d0c3861
 39 43 l 1
 41 43 l 1x3b0c3861
 41 41 l 1x3d0c3861
44 41 m 1x3d0c3c61
 42 41 l 1x3d0c3c61
 42 43 l 1
 43 43 l 1x3b0c3a61
 43 42 l 1x3d0c3a61
 44 42 l 1
 44 41 l 1x3d0c3c61
49 37 m 1
 47 37 l 1
 47 39 l 1
 49 39 l 1
 49 37 l 1
46 41 m 1x3d0c38e1
 45 41 l 1x3d0c38e1
 45 42 l 1x3b0c38e1
 44 42 l 1x3d0c3ce1
 44 43 l 1
 46 43 l 1x3b0c3961
 46 41 l 1x3d0c38e1
49 41 m 1
 47 41 l 1x3d0c3861
 47 43 l 1
 49 43 l 1x3b0c3861
 49 41 l 1
55 29 m 1
 53 29 l 1
 53 31 l 1
 55 31 l 1
 55 29 l 1
55 33 m 1
 53 33 l 1
 53 35 l 1
 55 35 l 1
 55 33 l 1
63 29 m 1
 61 29 l 1
 61 31 l 1
 63 31 l 1
 63 29 l 1
63 33 m 1
 61 33 l 1
 61 35 l 1
 63 35 l 1
 63 33 l 1
55 37 m 1
 53 37 l 1
 53 39 l 1
 55 39 l 1
 55 37 l 1
55 41 m 1
 53 41 l 1x3d0c3861
 53 43 l 1
 55 43 l 1x3b0c3861
 55 41 l 1
58 41 m 1x3d0c3871
 56 41 l 1x3d0c3871
 56 43 l 1
 57 43 l 1x3b0c3869
 57 42 l 1x3d0c3869
 58 42 l 1
 58 41 l 1x3d0c3871
60 41 m 1x3d0c3863
 59 41 l 1x3d0c3863
 59 42 l 1x3b0c3863
 58 42 l 1x3d0c3873
 58 43 l 1
 60 43 l 1x3b0c3865
 60 41 l 1x3d0c3863
63 37 m 1
 61 37 l 1
 61 39 l 1
 63 39 l 1
 63 37 l 1
63 41 m 1
 61 41 l 1x3d0c3861
 61 43 l 1
 63 43 l 1x3b0c3861
 63 41 l 1
EndSplineSet
Ligature2: "'liga' Standard Ligatures in Latin lookup 0-1" zero zero zero zero zero one seven
LCarets2: 1 0
EndChar

StartChar: custom_0_0_0_0_0_1_8
Encoding: 274 -1 29
Width: 70
HStem: 25 1<11 12 25 26 43 44 57 58> 26 1<12 13 26 27 44 45 58 59> 29 2<7 9 15 17 21 23 29 31 39 41 47 49 53 55 61 63> 33 2<7 9 15 17 21 23 29 31 39 41 47 49 53 55 61 63> 37 2<7 9 15 17 21 23 29 31 39 41 47 49 53 55 61 63> 41 1<11 12 25 26 43 44 57 58> 42 1<12 13 26 27 44 45 58 59>
VStem: 7 2<25 27 29 31 33 35 37 39 41 43> 10 2<25 26 41 42> 10 1<26 27 42 43> 12 2<26 27 42 43> 13 1<25 26 41 42> 15 2<25 27 29 31 33 35 37 39 41 43> 21 2<25 27 29 31 33 35 37 39 41 43> 24 2<25 26 41 42> 24 1<26 27 42 43> 26 2<26 27 42 43> 27 1<25 26 41 42> 29 2<25 27 29 31 33 35 37 39 41 43> 34 2<31 33 35 37> 39 2<25 27 29 31 33 35 37 39 41 43> 42 2<25 26 41 42> 42 1<26 27 42 43> 44 2<26 27 42 43> 45 1<25 26 41 42> 47 2<25 27 29 31 33 35 37 39 41 43> 53 2<25 27 29 31 33 35 37 39 41 43> 56 2<25 26 41 42> 56 1<26 27 42 43> 58 2<26 27 42 43> 59 1<25 26 41 42> 61 2<25 27 29 31 33 35 37 39 41 43>
LayerCount: 2
Fore
SplineSet
9 25 m 1xb90c3861
 7 25 l 1xb90c3861
 7 27 l 1
 9 27 l 1x790c3861
 9 25 l 1xb90c3861
12 25 m 1xb98c3861
 10 25 l 1xb98c3861
 10 27 l 1
 11 27 l 1x794c3861
 11 26 l 1xb94c3861
 12 26 l 1
 12 25 l 1xb98c3861
14 25 m 1xb91c3861
 13 25 l 1xb91c3861
 13 26 l 1x791c3861
 12 26 l 1xb99c3861
 12 27 l 1
 14 27 l 1x792c3861
 14 25 l 1xb91c3861
17 25 m 1
 15 25 l 1xb90c3861
 15 27 l 1
 17 27 l 1x790c3861
 17 25 l 1
23 25 m 1
 21 25 l 1xb90c3861
 21 27 l 1
 23 27 l 1x790c3861
 23 25 l 1
26 25 m 1xb90e3861
 24 25 l 1xb90e3861
 24 27 l 1
 25 27 l 1x790d3861
 25 26 l 1xb90d3861
 26 26 l 1
 26 25 l 1xb90e3861
28 25 m 1xb90c7861
 27 25 l 1xb90c7861
 27 26 l 1x790c7861
 26 26 l 1xb90e7861
 26 27 l 1
 28 27 l 1x790cb861
 28 25 l 1xb90c7861
31 25 m 1
 29 25 l 1xb90c3861
 29 27 l 1
 31 27 l 1x790c3861
 31 25 l 1
9 29 m 1
 7 29 l 1
 7 31 l 1
 9 31 l 1
 9 29 l 1
9 33 m 1
 7 33 l 1
 7 35 l 1
 9 35 l 1
 9 33 l 1
17 29 m 1
 15 29 l 1
 15 31 l 1
 17 31 l 1
 17 29 l 1
17 33 m 1
 15 33 l 1
 15 35 l 1
 17 35 l 1
 17 33 l 1
9 37 m 1
 7 37 l 1
 7 39 l 1
 9 39 l 1
 9 37 l 1
9 41 m 1x3d0c3861
 7 41 l 1x3d0c3861
 7 43 l 1
 9 43 l 1x3b0c3861
 9 41 l 1x3d0c3861
12 41 m 1x3d8c3861
 10 41 l 1x3d8c3861
 10 43 l 1
 11 43 l 1x3b4c3861
 11 42 l 1x3d4c3861
 12 42 l 1
 12 41 l 1x3d8c3861
17 37 m 1
 15 37 l 1
 15 39 l 1
 17 39 l 1
 17 37 l 1
14 41 m 1x3d1c3861
 13 41 l 1x3d1c3861
 13 42 l 1x3b1c3861
 12 42 l 1x3d9c3861
 12 43 l 1
 14 43 l 1x3b2c3861
 14 41 l 1x3d1c3861
17 41 m 1
 15 41 l 1x3d0c3861
 15 43 l 1
 17 43 l 1x3b0c3861
 17 41 l 1
23 29 m 1
 21 29 l 1
 21 31 l 1
 23 31 l 1
 23 29 l 1
23 33 m 1
 21 33 l 1
 21 35 l 1
 23 35 l 1
 23 33 l 1
31 29 m 1
 29 29 l 1
 29 31 l 1
 31 31 l 1
 31 29 l 1
31 33 m 1
 29 33 l 1
 29 35 l 1
 31 35 l 1
 31 33 l 1
36 31 m 1
 34 31 l 1
 34 33 l 1
 36 33 l 1
 36 31 l 1
23 37 m 1
 21 37 l 1
 21 39 l 1
 23 39 l 1
 23 37 l 1
23 41 m 1
 21 41 l 1x3d0c3861
 21 43 l 1
 23 43 l 1x3b0c3861
 23 41 l 1
26 41 m 1x3d0e3861
 24 41 l 1x3d0e3861
 24 43 l 1
 25 43 l 1x3b0d3861
 25 42 l 1x3d0d3861
 26 42 l 1
 26 41 l 1x3d0e3861
28 41 m 1x3d0c7861
 27 41 l 1x3d0c7861
 27 42 l 1x3b0c7861
 26 42 l 1x3d0e7861
 26 43 l 1
 28 43 l 1x3b0cb861
 28 41 l 1x3d0c7861
31 37 m 1
 29 37 l 1
 29 39 l 1
 31 39 l 1
 31 37 l 1
36 35 m 1
 34 35 l 1
 34 37 l 1
 36 37 l 1
 36 35 l 1
31 41 m 1
 29 41 l 1x3d0c3861
 29 43 l 1
 31 43 l 1x3b0c3861
 31 41 l 1
41 25 m 1xb90c3861
 39 25 l 1xb90c3861
 39 27 l 1
 41 27 l 1x790c3861
 41 25 l 1xb90c3861
44 25 m 1xb90c3c61
 42 25 l 1xb90c3c61
 42 27 l 1
 43 27 l 1x790c3a61
 43 26 l 1xb90c3a61
 44 26 l 1
 44 25 l 1xb90c3c61
46 25 m 1xb90c38e1
 45 25 l 1xb90c38e1
 45 26 l 1x790c38e1
 44 26 l 1xb90c3ce1
 44 27 l 1
 46 27 l 1x790c3961
 46 25 l 1xb90c38e1
49 25 m 1
 47 25 l 1xb90c3861
 47 27 l 1
 49 27 l 1x790c3861
 49 25 l 1
55 25 m 1
 53 25 l 1xb90c3861
 53 27 l 1
 55 27 l 1x790c3861
 55 25 l 1
58 25 m 1xb90c3871
 56 25 l 1xb90c3871
 56 27 l 1
 57 27 l 1x790c3869
 57 26 l 1xb90c3869
 58 26 l 1
 58 25 l 1xb90c3871
60 25 m 1xb90c3863
 59 25 l 1xb90c3863
 59 26 l 1x790c3863
 58 26 l 1xb90c3873
 58 27 l 1
 60 27 l 1x790c3865
 60 25 l 1xb90c3863
63 25 m 1
 61 25 l 1xb90c3861
 61 27 l 1
 63 27 l 1x790c3861
 63 25 l 1
41 29 m 1
 39 29 l 1
 39 31 l 1
 41 31 l 1
 41 29 l 1
41 33 m 1
 39 33 l 1
 39 35 l 1
 41 35 l 1
 41 33 l 1
49 29 m 1
 47 29 l 1
 47 31 l 1
 49 31 l 1
 49 29 l 1
49 33 m 1
 47 33 l 1
 47 35 l 1
 49 35 l 1
 49 33 l 1
41 37 m 1
 39 37 l 1
 39 39 l 1
 41 39 l 1
 41 37 l 1
41 41 m 1x3d0c3861
 39 41 l 1x3d0c3861
 39 43 l 1
 41 43 l 1x3b0c3861
 41 41 l 1x3d0c3861
44 41 m 1x3d0c3c61
 42 41 l 1x3d0c3c61
 42 43 l 1
 43 43 l 1x3b0c3a61
 43 42 l 1x3d0c3a61
 44 42 l 1
 44 41 l 1x3d0c3c61
49 37 m 1
 47 37 l 1
 47 39 l 1
 49 39 l 1
 49 37 l 1
46 41 m 1x3d0c38e1
 45 41 l 1x3d0c38e1
 45 42 l 1x3b0c38e1
 44 42 l 1x3d0c3ce1
 44 43 l 1
 46 43 l 1x3b0c3961
 46 41 l 1x3d0c38e1
49 41 m 1
 47 41 l 1x3d0c3861
 47 43 l 1
 49 43 l 1x3b0c3861
 49 41 l 1
55 29 m 1
 53 29 l 1
 53 31 l 1
 55 31 l 1
 55 29 l 1
55 33 m 1
 53 33 l 1
 53 35 l 1
 55 35 l 1
 55 33 l 1
63 29 m 1
 61 29 l 1
 61 31 l 1
 63 31 l 1
 63 29 l 1
63 33 m 1
 61 33 l 1
 61 35 l 1
 63 35 l 1
 63 33 l 1
55 37 m 1
 53 37 l 1
 53 39 l 1
 55 39 l 1
 55 37 l 1
55 41 m 1
 53 41 l 1x3d0c3861
 53 43 l 1
 55 43 l 1x3b0c3861
 55 41 l 1
58 41 m 1x3d0c3871
 56 41 l 1x3d0c3871
 56 43 l 1
 57 43 l 1x3b0c3869
 57 42 l 1x3d0c3869
 58 42 l 1
 58 41 l 1x3d0c3871
60 41 m 1x3d0c3863
 59 41 l 1x3d0c3863
 59 42 l 1x3b0c3863
 58 42 l 1x3d0c3873
 58 43 l 1
 60 43 l 1x3b0c3865
 60 41 l 1x3d0c3863
63 37 m 1
 61 37 l 1
 61 39 l 1
 63 39 l 1
 63 37 l 1
63 41 m 1
 61 41 l 1x3d0c3861
 61 43 l 1
 63 43 l 1x3b0c3861
 63 41 l 1
EndSplineSet
Ligature2: "'liga' Standard Ligatures in Latin lookup 0-1" zero zero zero zero zero one eight
LCarets2: 1 0
EndChar

StartChar: custom_0_0_0_0_0_1_9
Encoding: 275 -1 30
Width: 70
HStem: 25 1<11 12 25 26 43 44 57 58> 26 1<12 13 26 27 44 45 58 59> 29 2<7 9 15 17 21 23 29 31 39 41 47 49 53 55 61 63> 33 2<7 9 15 17 21 23 29 31 39 41 47 49 53 55 61 63> 37 2<7 9 15 17 21 23 29 31 39 41 47 49 53 55 61 63> 41 1<11 12 25 26 43 44 57 58> 42 1<12 13 26 27 44 45 58 59>
VStem: 7 2<25 27 29 31 33 35 37 39 41 43> 10 2<25 26 41 42> 10 1<26 27 42 43> 12 2<26 27 42 43> 13 1<25 26 41 42> 15 2<25 27 29 31 33 35 37 39 41 43> 21 2<25 27 29 31 33 35 37 39 41 43> 24 2<25 26 41 42> 24 1<26 27 42 43> 26 2<26 27 42 43> 27 1<25 26 41 42> 29 2<25 27 29 31 33 35 37 39 41 43> 34 2<31 33 35 37> 39 2<25 27 29 31 33 35 37 39 41 43> 42 2<25 26 41 42> 42 1<26 27 42 43> 44 2<26 27 42 43> 45 1<25 26 41 42> 47 2<25 27 29 31 33 35 37 39 41 43> 53 2<25 27 29 31 33 35 37 39 41 43> 56 2<25 26 41 42> 56 1<26 27 42 43> 58 2<26 27 42 43> 59 1<25 26 41 42> 61 2<25 27 29 31 33 35 37 39 41 43>
LayerCount: 2
Fore
SplineSet
9 25 m 1xb90c3861
 7 25 l 1xb90c3861
 7 27 l 1
 9 27 l 1x790c3861
 9 25 l 1xb90c3861
12 25 m 1xb98c3861
 10 25 l 1xb98c3861
 10 27 l 1
 11 27 l 1x794c3861
 11 26 l 1xb94c3861
 12 26 l 1
 12 25 l 1xb98c3861
14 25 m 1xb91c3861
 13 25 l 1xb91c3861
 13 26 l 1x791c3861
 12 26 l 1xb99c3861
 12 27 l 1
 14 27 l 1x792c3861
 14 25 l 1xb91c3861
17 25 m 1
 15 25 l 1xb90c3861
 15 27 l 1
 17 27 l 1x790c3861
 17 25 l 1
23 25 m 1
 21 25 l 1xb90c3861
 21 27 l 1
 23 27 l 1x790c3861
 23 25 l 1
26 25 m 1xb90e3861
 24 25 l 1xb90e3861
 24 27 l 1
 25 27 l 1x790d3861
 25 26 l 1xb90d3861
 26 26 l 1
 26 25 l 1xb90e3861
28 25 m 1xb90c7861
 27 25 l 1xb90c7861
 27 26 l 1x790c7861
 26 26 l 1xb90e7861
 26 27 l 1
 28 27 l 1x790cb861
 28 25 l 1xb90c7861
31 25 m 1
 29 25 l 1xb90c3861
 29 27 l 1
 31 27 l 1x790c3861
 31 25 l 1
9 29 m 1
 7 29 l 1
 7 31 l 1
 9 31 l 1
 9 29 l 1
9 33 m 1
 7 33 l 1
 7 35 l 1
 9 35 l 1
 9 33 l 1
17 29 m 1
 15 29 l 1
 15 31 l 1
 17 31 l 1
 17 29 l 1
17 33 m 1
 15 33 l 1
 15 35 l 1
 17 35 l 1
 17 33 l 1
9 37 m 1
 7 37 l 1
 7 39 l 1
 9 39 l 1
 9 37 l 1
9 41 m 1x3d0c3861
 7 41 l 1x3d0c3861
 7 43 l 1
 9 43 l 1x3b0c3861
 9 41 l 1x3d0c3861
12 41 m 1x3d8c3861
 10 41 l 1x3d8c3861
 10 43 l 1
 11 43 l 1x3b4c3861
 11 42 l 1x3d4c3861
 12 42 l 1
 12 41 l 1x3d8c3861
17 37 m 1
 15 37 l 1
 15 39 l 1
 17 39 l 1
 17 37 l 1
14 41 m 1x3d1c3861
 13 41 l 1x3d1c3861
 13 42 l 1x3b1c3861
 12 42 l 1x3d9c3861
 12 43 l 1
 14 43 l 1x3b2c3861
 14 41 l 1x3d1c3861
17 41 m 1
 15 41 l 1x3d0c3861
 15 43 l 1
 17 43 l 1x3b0c3861
 17 41 l 1
23 29 m 1
 21 29 l 1
 21 31 l 1
 23 31 l 1
 23 29 l 1
23 33 m 1
 21 33 l 1
 21 35 l 1
 23 35 l 1
 23 33 l 1
31 29 m 1
 29 29 l 1
 29 31 l 1
 31 31 l 1
 31 29 l 1
31 33 m 1
 29 33 l 1
 29 35 l 1
 31 35 l 1
 31 33 l 1
36 31 m 1
 34 31 l 1
 34 33 l 1
 36 33 l 1
 36 31 l 1
23 37 m 1
 21 37 l 1
 21 39 l 1
 23 39 l 1
 23 37 l 1
23 41 m 1
 21 41 l 1x3d0c3861
 21 43 l 1
 23 43 l 1x3b0c3861
 23 41 l 1
26 41 m 1x3d0e3861
 24 41 l 1x3d0e3861
 24 43 l 1
 25 43 l 1x3b0d3861
 25 42 l 1x3d0d3861
 26 42 l 1
 26 41 l 1x3d0e3861
28 41 m 1x3d0c7861
 27 41 l 1x3d0c7861
 27 42 l 1x3b0c7861
 26 42 l 1x3d0e7861
 26 43 l 1
 28 43 l 1x3b0cb861
 28 41 l 1x3d0c7861
31 37 m 1
 29 37 l 1
 29 39 l 1
 31 39 l 1
 31 37 l 1
36 35 m 1
 34 35 l 1
 34 37 l 1
 36 37 l 1
 36 35 l 1
31 41 m 1
 29 41 l 1x3d0c3861
 29 43 l 1
 31 43 l 1x3b0c3861
 31 41 l 1
41 25 m 1xb90c3861
 39 25 l 1xb90c3861
 39 27 l 1
 41 27 l 1x790c3861
 41 25 l 1xb90c3861
44 25 m 1xb90c3c61
 42 25 l 1xb90c3c61
 42 27 l 1
 43 27 l 1x790c3a61
 43 26 l 1xb90c3a61
 44 26 l 1
 44 25 l 1xb90c3c61
46 25 m 1xb90c38e1
 45 25 l 1xb90c38e1
 45 26 l 1x790c38e1
 44 26 l 1xb90c3ce1
 44 27 l 1
 46 27 l 1x790c3961
 46 25 l 1xb90c38e1
49 25 m 1
 47 25 l 1xb90c3861
 47 27 l 1
 49 27 l 1x790c3861
 49 25 l 1
55 25 m 1
 53 25 l 1xb90c3861
 53 27 l 1
 55 27 l 1x790c3861
 55 25 l 1
58 25 m 1xb90c3871
 56 25 l 1xb90c3871
 56 27 l 1
 57 27 l 1x790c3869
 57 26 l 1xb90c3869
 58 26 l 1
 58 25 l 1xb90c3871
60 25 m 1xb90c3863
 59 25 l 1xb90c3863
 59 26 l 1x790c3863
 58 26 l 1xb90c3873
 58 27 l 1
 60 27 l 1x790c3865
 60 25 l 1xb90c3863
63 25 m 1
 61 25 l 1xb90c3861
 61 27 l 1
 63 27 l 1x790c3861
 63 25 l 1
41 29 m 1
 39 29 l 1
 39 31 l 1
 41 31 l 1
 41 29 l 1
41 33 m 1
 39 33 l 1
 39 35 l 1
 41 35 l 1
 41 33 l 1
49 29 m 1
 47 29 l 1
 47 31 l 1
 49 31 l 1
 49 29 l 1
49 33 m 1
 47 33 l 1
 47 35 l 1
 49 35 l 1
 49 33 l 1
41 37 m 1
 39 37 l 1
 39 39 l 1
 41 39 l 1
 41 37 l 1
41 41 m 1x3d0c3861
 39 41 l 1x3d0c3861
 39 43 l 1
 41 43 l 1x3b0c3861
 41 41 l 1x3d0c3861
44 41 m 1x3d0c3c61
 42 41 l 1x3d0c3c61
 42 43 l 1
 43 43 l 1x3b0c3a61
 43 42 l 1x3d0c3a61
 44 42 l 1
 44 41 l 1x3d0c3c61
49 37 m 1
 47 37 l 1
 47 39 l 1
 49 39 l 1
 49 37 l 1
46 41 m 1x3d0c38e1
 45 41 l 1x3d0c38e1
 45 42 l 1x3b0c38e1
 44 42 l 1x3d0c3ce1
 44 43 l 1
 46 43 l 1x3b0c3961
 46 41 l 1x3d0c38e1
49 41 m 1
 47 41 l 1x3d0c3861
 47 43 l 1
 49 43 l 1x3b0c3861
 49 41 l 1
55 29 m 1
 53 29 l 1
 53 31 l 1
 55 31 l 1
 55 29 l 1
55 33 m 1
 53 33 l 1
 53 35 l 1
 55 35 l 1
 55 33 l 1
63 29 m 1
 61 29 l 1
 61 31 l 1
 63 31 l 1
 63 29 l 1
63 33 m 1
 61 33 l 1
 61 35 l 1
 63 35 l 1
 63 33 l 1
55 37 m 1
 53 37 l 1
 53 39 l 1
 55 39 l 1
 55 37 l 1
55 41 m 1
 53 41 l 1x3d0c3861
 53 43 l 1
 55 43 l 1x3b0c3861
 55 41 l 1
58 41 m 1x3d0c3871
 56 41 l 1x3d0c3871
 56 43 l 1
 57 43 l 1x3b0c3869
 57 42 l 1x3d0c3869
 58 42 l 1
 58 41 l 1x3d0c3871
60 41 m 1x3d0c3863
 59 41 l 1x3d0c3863
 59 42 l 1x3b0c3863
 58 42 l 1x3d0c3873
 58 43 l 1
 60 43 l 1x3b0c3865
 60 41 l 1x3d0c3863
63 37 m 1
 61 37 l 1
 61 39 l 1
 63 39 l 1
 63 37 l 1
63 41 m 1
 61 41 l 1x3d0c3861
 61 43 l 1
 63 43 l 1x3b0c3861
 63 41 l 1
EndSplineSet
Ligature2: "'liga' Standard Ligatures in Latin lookup 0-1" zero zero zero zero zero one nine
LCarets2: 1 0
EndChar

StartChar: custom_0_0_0_0_0_2_0
Encoding: 276 -1 31
Width: 70
HStem: 25 1<11 12 25 26 43 44 57 58> 26 1<12 13 26 27 44 45 58 59> 29 2<7 9 15 17 21 23 29 31 39 41 47 49 53 55 61 63> 33 2<7 9 15 17 21 23 29 31 39 41 47 49 53 55 61 63> 37 2<7 9 15 17 21 23 29 31 39 41 47 49 53 55 61 63> 41 1<11 12 25 26 43 44 57 58> 42 1<12 13 26 27 44 45 58 59>
VStem: 7 2<25 27 29 31 33 35 37 39 41 43> 10 2<25 26 41 42> 10 1<26 27 42 43> 12 2<26 27 42 43> 13 1<25 26 41 42> 15 2<25 27 29 31 33 35 37 39 41 43> 21 2<25 27 29 31 33 35 37 39 41 43> 24 2<25 26 41 42> 24 1<26 27 42 43> 26 2<26 27 42 43> 27 1<25 26 41 42> 29 2<25 27 29 31 33 35 37 39 41 43> 34 2<31 33 35 37> 39 2<25 27 29 31 33 35 37 39 41 43> 42 2<25 26 41 42> 42 1<26 27 42 43> 44 2<26 27 42 43> 45 1<25 26 41 42> 47 2<25 27 29 31 33 35 37 39 41 43> 53 2<25 27 29 31 33 35 37 39 41 43> 56 2<25 26 41 42> 56 1<26 27 42 43> 58 2<26 27 42 43> 59 1<25 26 41 42> 61 2<25 27 29 31 33 35 37 39 41 43>
LayerCount: 2
Fore
SplineSet
9 25 m 1xb90c3861
 7 25 l 1xb90c3861
 7 27 l 1
 9 27 l 1x790c3861
 9 25 l 1xb90c3861
12 25 m 1xb98c3861
 10 25 l 1xb98c3861
 10 27 l 1
 11 27 l 1x794c3861
 11 26 l 1xb94c3861
 12 26 l 1
 12 25 l 1xb98c3861
14 25 m 1xb91c3861
 13 25 l 1xb91c3861
 13 26 l 1x791c3861
 12 26 l 1xb99c3861
 12 27 l 1
 14 27 l 1x792c3861
 14 25 l 1xb91c3861
17 25 m 1
 15 25 l 1xb90c3861
 15 27 l 1
 17 27 l 1x790c3861
 17 25 l 1
23 25 m 1
 21 25 l 1xb90c3861
 21 27 l 1
 23 27 l 1x790c3861
 23 25 l 1
26 25 m 1xb90e3861
 24 25 l 1xb90e3861
 24 27 l 1
 25 27 l 1x790d3861
 25 26 l 1xb90d3861
 26 26 l 1
 26 25 l 1xb90e3861
28 25 m 1xb90c7861
 27 25 l 1xb90c7861
 27 26 l 1x790c7861
 26 26 l 1xb90e7861
 26 27 l 1
 28 27 l 1x790cb861
 28 25 l 1xb90c7861
31 25 m 1
 29 25 l 1xb90c3861
 29 27 l 1
 31 27 l 1x790c3861
 31 25 l 1
9 29 m 1
 7 29 l 1
 7 31 l 1
 9 31 l 1
 9 29 l 1
9 33 m 1
 7 33 l 1
 7 35 l 1
 9 35 l 1
 9 33 l 1
17 29 m 1
 15 29 l 1
 15 31 l 1
 17 31 l 1
 17 29 l 1
17 33 m 1
 15 33 l 1
 15 35 l 1
 17 35 l 1
 17 33 l 1
9 37 m 1
 7 37 l 1
 7 39 l 1
 9 39 l 1
 9 37 l 1
9 41 m 1x3d0c3861
 7 41 l 1x3d0c3861
 7 43 l 1
 9 43 l 1x3b0c3861
 9 41 l 1x3d0c3861
12 41 m 1x3d8c3861
 10 41 l 1x3d8c3861
 10 43 l 1
 11 43 l 1x3b4c3861
 11 42 l 1x3d4c3861
 12 42 l 1
 12 41 l 1x3d8c3861
17 37 m 1
 15 37 l 1
 15 39 l 1
 17 39 l 1
 17 37 l 1
14 41 m 1x3d1c3861
 13 41 l 1x3d1c3861
 13 42 l 1x3b1c3861
 12 42 l 1x3d9c3861
 12 43 l 1
 14 43 l 1x3b2c3861
 14 41 l 1x3d1c3861
17 41 m 1
 15 41 l 1x3d0c3861
 15 43 l 1
 17 43 l 1x3b0c3861
 17 41 l 1
23 29 m 1
 21 29 l 1
 21 31 l 1
 23 31 l 1
 23 29 l 1
23 33 m 1
 21 33 l 1
 21 35 l 1
 23 35 l 1
 23 33 l 1
31 29 m 1
 29 29 l 1
 29 31 l 1
 31 31 l 1
 31 29 l 1
31 33 m 1
 29 33 l 1
 29 35 l 1
 31 35 l 1
 31 33 l 1
36 31 m 1
 34 31 l 1
 34 33 l 1
 36 33 l 1
 36 31 l 1
23 37 m 1
 21 37 l 1
 21 39 l 1
 23 39 l 1
 23 37 l 1
23 41 m 1
 21 41 l 1x3d0c3861
 21 43 l 1
 23 43 l 1x3b0c3861
 23 41 l 1
26 41 m 1x3d0e3861
 24 41 l 1x3d0e3861
 24 43 l 1
 25 43 l 1x3b0d3861
 25 42 l 1x3d0d3861
 26 42 l 1
 26 41 l 1x3d0e3861
28 41 m 1x3d0c7861
 27 41 l 1x3d0c7861
 27 42 l 1x3b0c7861
 26 42 l 1x3d0e7861
 26 43 l 1
 28 43 l 1x3b0cb861
 28 41 l 1x3d0c7861
31 37 m 1
 29 37 l 1
 29 39 l 1
 31 39 l 1
 31 37 l 1
36 35 m 1
 34 35 l 1
 34 37 l 1
 36 37 l 1
 36 35 l 1
31 41 m 1
 29 41 l 1x3d0c3861
 29 43 l 1
 31 43 l 1x3b0c3861
 31 41 l 1
41 25 m 1xb90c3861
 39 25 l 1xb90c3861
 39 27 l 1
 41 27 l 1x790c3861
 41 25 l 1xb90c3861
44 25 m 1xb90c3c61
 42 25 l 1xb90c3c61
 42 27 l 1
 43 27 l 1x790c3a61
 43 26 l 1xb90c3a61
 44 26 l 1
 44 25 l 1xb90c3c61
46 25 m 1xb90c38e1
 45 25 l 1xb90c38e1
 45 26 l 1x790c38e1
 44 26 l 1xb90c3ce1
 44 27 l 1
 46 27 l 1x790c3961
 46 25 l 1xb90c38e1
49 25 m 1
 47 25 l 1xb90c3861
 47 27 l 1
 49 27 l 1x790c3861
 49 25 l 1
55 25 m 1
 53 25 l 1xb90c3861
 53 27 l 1
 55 27 l 1x790c3861
 55 25 l 1
58 25 m 1xb90c3871
 56 25 l 1xb90c3871
 56 27 l 1
 57 27 l 1x790c3869
 57 26 l 1xb90c3869
 58 26 l 1
 58 25 l 1xb90c3871
60 25 m 1xb90c3863
 59 25 l 1xb90c3863
 59 26 l 1x790c3863
 58 26 l 1xb90c3873
 58 27 l 1
 60 27 l 1x790c3865
 60 25 l 1xb90c3863
63 25 m 1
 61 25 l 1xb90c3861
 61 27 l 1
 63 27 l 1x790c3861
 63 25 l 1
41 29 m 1
 39 29 l 1
 39 31 l 1
 41 31 l 1
 41 29 l 1
41 33 m 1
 39 33 l 1
 39 35 l 1
 41 35 l 1
 41 33 l 1
49 29 m 1
 47 29 l 1
 47 31 l 1
 49 31 l 1
 49 29 l 1
49 33 m 1
 47 33 l 1
 47 35 l 1
 49 35 l 1
 49 33 l 1
41 37 m 1
 39 37 l 1
 39 39 l 1
 41 39 l 1
 41 37 l 1
41 41 m 1x3d0c3861
 39 41 l 1x3d0c3861
 39 43 l 1
 41 43 l 1x3b0c3861
 41 41 l 1x3d0c3861
44 41 m 1x3d0c3c61
 42 41 l 1x3d0c3c61
 42 43 l 1
 43 43 l 1x3b0c3a61
 43 42 l 1x3d0c3a61
 44 42 l 1
 44 41 l 1x3d0c3c61
49 37 m 1
 47 37 l 1
 47 39 l 1
 49 39 l 1
 49 37 l 1
46 41 m 1x3d0c38e1
 45 41 l 1x3d0c38e1
 45 42 l 1x3b0c38e1
 44 42 l 1x3d0c3ce1
 44 43 l 1
 46 43 l 1x3b0c3961
 46 41 l 1x3d0c38e1
49 41 m 1
 47 41 l 1x3d0c3861
 47 43 l 1
 49 43 l 1x3b0c3861
 49 41 l 1
55 29 m 1
 53 29 l 1
 53 31 l 1
 55 31 l 1
 55 29 l 1
55 33 m 1
 53 33 l 1
 53 35 l 1
 55 35 l 1
 55 33 l 1
63 29 m 1
 61 29 l 1
 61 31 l 1
 63 31 l 1
 63 29 l 1
63 33 m 1
 61 33 l 1
 61 35 l 1
 63 35 l 1
 63 33 l 1
55 37 m 1
 53 37 l 1
 53 39 l 1
 55 39 l 1
 55 37 l 1
55 41 m 1
 53 41 l 1x3d0c3861
 53 43 l 1
 55 43 l 1x3b0c3861
 55 41 l 1
58 41 m 1x3d0c3871
 56 41 l 1x3d0c3871
 56 43 l 1
 57 43 l 1x3b0c3869
 57 42 l 1x3d0c3869
 58 42 l 1
 58 41 l 1x3d0c3871
60 41 m 1x3d0c3863
 59 41 l 1x3d0c3863
 59 42 l 1x3b0c3863
 58 42 l 1x3d0c3873
 58 43 l 1
 60 43 l 1x3b0c3865
 60 41 l 1x3d0c3863
63 37 m 1
 61 37 l 1
 61 39 l 1
 63 39 l 1
 63 37 l 1
63 41 m 1
 61 41 l 1x3d0c3861
 61 43 l 1
 63 43 l 1x3b0c3861
 63 41 l 1
EndSplineSet
Ligature2: "'liga' Standard Ligatures in Latin lookup 0-1" zero zero zero zero zero two zero
LCarets2: 1 0
EndChar

StartChar: custom_0_0_0_0_0_2_1
Encoding: 277 -1 32
Width: 70
HStem: 25 1<11 12 25 26 43 44 57 58> 26 1<12 13 26 27 44 45 58 59> 29 2<7 9 15 17 21 23 29 31 39 41 47 49 53 55 61 63> 33 2<7 9 15 17 21 23 29 31 39 41 47 49 53 55 61 63> 37 2<7 9 15 17 21 23 29 31 39 41 47 49 53 55 61 63> 41 1<11 12 25 26 43 44 57 58> 42 1<12 13 26 27 44 45 58 59>
VStem: 7 2<25 27 29 31 33 35 37 39 41 43> 10 2<25 26 41 42> 10 1<26 27 42 43> 12 2<26 27 42 43> 13 1<25 26 41 42> 15 2<25 27 29 31 33 35 37 39 41 43> 21 2<25 27 29 31 33 35 37 39 41 43> 24 2<25 26 41 42> 24 1<26 27 42 43> 26 2<26 27 42 43> 27 1<25 26 41 42> 29 2<25 27 29 31 33 35 37 39 41 43> 34 2<31 33 35 37> 39 2<25 27 29 31 33 35 37 39 41 43> 42 2<25 26 41 42> 42 1<26 27 42 43> 44 2<26 27 42 43> 45 1<25 26 41 42> 47 2<25 27 29 31 33 35 37 39 41 43> 53 2<25 27 29 31 33 35 37 39 41 43> 56 2<25 26 41 42> 56 1<26 27 42 43> 58 2<26 27 42 43> 59 1<25 26 41 42> 61 2<25 27 29 31 33 35 37 39 41 43>
LayerCount: 2
Fore
SplineSet
9 25 m 1xb90c3861
 7 25 l 1xb90c3861
 7 27 l 1
 9 27 l 1x790c3861
 9 25 l 1xb90c3861
12 25 m 1xb98c3861
 10 25 l 1xb98c3861
 10 27 l 1
 11 27 l 1x794c3861
 11 26 l 1xb94c3861
 12 26 l 1
 12 25 l 1xb98c3861
14 25 m 1xb91c3861
 13 25 l 1xb91c3861
 13 26 l 1x791c3861
 12 26 l 1xb99c3861
 12 27 l 1
 14 27 l 1x792c3861
 14 25 l 1xb91c3861
17 25 m 1
 15 25 l 1xb90c3861
 15 27 l 1
 17 27 l 1x790c3861
 17 25 l 1
23 25 m 1
 21 25 l 1xb90c3861
 21 27 l 1
 23 27 l 1x790c3861
 23 25 l 1
26 25 m 1xb90e3861
 24 25 l 1xb90e3861
 24 27 l 1
 25 27 l 1x790d3861
 25 26 l 1xb90d3861
 26 26 l 1
 26 25 l 1xb90e3861
28 25 m 1xb90c7861
 27 25 l 1xb90c7861
 27 26 l 1x790c7861
 26 26 l 1xb90e7861
 26 27 l 1
 28 27 l 1x790cb861
 28 25 l 1xb90c7861
31 25 m 1
 29 25 l 1xb90c3861
 29 27 l 1
 31 27 l 1x790c3861
 31 25 l 1
9 29 m 1
 7 29 l 1
 7 31 l 1
 9 31 l 1
 9 29 l 1
9 33 m 1
 7 33 l 1
 7 35 l 1
 9 35 l 1
 9 33 l 1
17 29 m 1
 15 29 l 1
 15 31 l 1
 17 31 l 1
 17 29 l 1
17 33 m 1
 15 33 l 1
 15 35 l 1
 17 35 l 1
 17 33 l 1
9 37 m 1
 7 37 l 1
 7 39 l 1
 9 39 l 1
 9 37 l 1
9 41 m 1x3d0c3861
 7 41 l 1x3d0c3861
 7 43 l 1
 9 43 l 1x3b0c3861
 9 41 l 1x3d0c3861
12 41 m 1x3d8c3861
 10 41 l 1x3d8c3861
 10 43 l 1
 11 43 l 1x3b4c3861
 11 42 l 1x3d4c3861
 12 42 l 1
 12 41 l 1x3d8c3861
17 37 m 1
 15 37 l 1
 15 39 l 1
 17 39 l 1
 17 37 l 1
14 41 m 1x3d1c3861
 13 41 l 1x3d1c3861
 13 42 l 1x3b1c3861
 12 42 l 1x3d9c3861
 12 43 l 1
 14 43 l 1x3b2c3861
 14 41 l 1x3d1c3861
17 41 m 1
 15 41 l 1x3d0c3861
 15 43 l 1
 17 43 l 1x3b0c3861
 17 41 l 1
23 29 m 1
 21 29 l 1
 21 31 l 1
 23 31 l 1
 23 29 l 1
23 33 m 1
 21 33 l 1
 21 35 l 1
 23 35 l 1
 23 33 l 1
31 29 m 1
 29 29 l 1
 29 31 l 1
 31 31 l 1
 31 29 l 1
31 33 m 1
 29 33 l 1
 29 35 l 1
 31 35 l 1
 31 33 l 1
36 31 m 1
 34 31 l 1
 34 33 l 1
 36 33 l 1
 36 31 l 1
23 37 m 1
 21 37 l 1
 21 39 l 1
 23 39 l 1
 23 37 l 1
23 41 m 1
 21 41 l 1x3d0c3861
 21 43 l 1
 23 43 l 1x3b0c3861
 23 41 l 1
26 41 m 1x3d0e3861
 24 41 l 1x3d0e3861
 24 43 l 1
 25 43 l 1x3b0d3861
 25 42 l 1x3d0d3861
 26 42 l 1
 26 41 l 1x3d0e3861
28 41 m 1x3d0c7861
 27 41 l 1x3d0c7861
 27 42 l 1x3b0c7861
 26 42 l 1x3d0e7861
 26 43 l 1
 28 43 l 1x3b0cb861
 28 41 l 1x3d0c7861
31 37 m 1
 29 37 l 1
 29 39 l 1
 31 39 l 1
 31 37 l 1
36 35 m 1
 34 35 l 1
 34 37 l 1
 36 37 l 1
 36 35 l 1
31 41 m 1
 29 41 l 1x3d0c3861
 29 43 l 1
 31 43 l 1x3b0c3861
 31 41 l 1
41 25 m 1xb90c3861
 39 25 l 1xb90c3861
 39 27 l 1
 41 27 l 1x790c3861
 41 25 l 1xb90c3861
44 25 m 1xb90c3c61
 42 25 l 1xb90c3c61
 42 27 l 1
 43 27 l 1x790c3a61
 43 26 l 1xb90c3a61
 44 26 l 1
 44 25 l 1xb90c3c61
46 25 m 1xb90c38e1
 45 25 l 1xb90c38e1
 45 26 l 1x790c38e1
 44 26 l 1xb90c3ce1
 44 27 l 1
 46 27 l 1x790c3961
 46 25 l 1xb90c38e1
49 25 m 1
 47 25 l 1xb90c3861
 47 27 l 1
 49 27 l 1x790c3861
 49 25 l 1
55 25 m 1
 53 25 l 1xb90c3861
 53 27 l 1
 55 27 l 1x790c3861
 55 25 l 1
58 25 m 1xb90c3871
 56 25 l 1xb90c3871
 56 27 l 1
 57 27 l 1x790c3869
 57 26 l 1xb90c3869
 58 26 l 1
 58 25 l 1xb90c3871
60 25 m 1xb90c3863
 59 25 l 1xb90c3863
 59 26 l 1x790c3863
 58 26 l 1xb90c3873
 58 27 l 1
 60 27 l 1x790c3865
 60 25 l 1xb90c3863
63 25 m 1
 61 25 l 1xb90c3861
 61 27 l 1
 63 27 l 1x790c3861
 63 25 l 1
41 29 m 1
 39 29 l 1
 39 31 l 1
 41 31 l 1
 41 29 l 1
41 33 m 1
 39 33 l 1
 39 35 l 1
 41 35 l 1
 41 33 l 1
49 29 m 1
 47 29 l 1
 47 31 l 1
 49 31 l 1
 49 29 l 1
49 33 m 1
 47 33 l 1
 47 35 l 1
 49 35 l 1
 49 33 l 1
41 37 m 1
 39 37 l 1
 39 39 l 1
 41 39 l 1
 41 37 l 1
41 41 m 1x3d0c3861
 39 41 l 1x3d0c3861
 39 43 l 1
 41 43 l 1x3b0c3861
 41 41 l 1x3d0c3861
44 41 m 1x3d0c3c61
 42 41 l 1x3d0c3c61
 42 43 l 1
 43 43 l 1x3b0c3a61
 43 42 l 1x3d0c3a61
 44 42 l 1
 44 41 l 1x3d0c3c61
49 37 m 1
 47 37 l 1
 47 39 l 1
 49 39 l 1
 49 37 l 1
46 41 m 1x3d0c38e1
 45 41 l 1x3d0c38e1
 45 42 l 1x3b0c38e1
 44 42 l 1x3d0c3ce1
 44 43 l 1
 46 43 l 1x3b0c3961
 46 41 l 1x3d0c38e1
49 41 m 1
 47 41 l 1x3d0c3861
 47 43 l 1
 49 43 l 1x3b0c3861
 49 41 l 1
55 29 m 1
 53 29 l 1
 53 31 l 1
 55 31 l 1
 55 29 l 1
55 33 m 1
 53 33 l 1
 53 35 l 1
 55 35 l 1
 55 33 l 1
63 29 m 1
 61 29 l 1
 61 31 l 1
 63 31 l 1
 63 29 l 1
63 33 m 1
 61 33 l 1
 61 35 l 1
 63 35 l 1
 63 33 l 1
55 37 m 1
 53 37 l 1
 53 39 l 1
 55 39 l 1
 55 37 l 1
55 41 m 1
 53 41 l 1x3d0c3861
 53 43 l 1
 55 43 l 1x3b0c3861
 55 41 l 1
58 41 m 1x3d0c3871
 56 41 l 1x3d0c3871
 56 43 l 1
 57 43 l 1x3b0c3869
 57 42 l 1x3d0c3869
 58 42 l 1
 58 41 l 1x3d0c3871
60 41 m 1x3d0c3863
 59 41 l 1x3d0c3863
 59 42 l 1x3b0c3863
 58 42 l 1x3d0c3873
 58 43 l 1
 60 43 l 1x3b0c3865
 60 41 l 1x3d0c3863
63 37 m 1
 61 37 l 1
 61 39 l 1
 63 39 l 1
 63 37 l 1
63 41 m 1
 61 41 l 1x3d0c3861
 61 43 l 1
 63 43 l 1x3b0c3861
 63 41 l 1
EndSplineSet
Ligature2: "'liga' Standard Ligatures in Latin lookup 0-1" zero zero zero zero zero two one
LCarets2: 1 0
EndChar

StartChar: custom_0_0_0_0_0_2_2
Encoding: 278 -1 33
Width: 70
HStem: 25 1<11 12 25 26 43 44 57 58> 26 1<12 13 26 27 44 45 58 59> 29 2<7 9 15 17 21 23 29 31 39 41 47 49 53 55 61 63> 33 2<7 9 15 17 21 23 29 31 39 41 47 49 53 55 61 63> 37 2<7 9 15 17 21 23 29 31 39 41 47 49 53 55 61 63> 41 1<11 12 25 26 43 44 57 58> 42 1<12 13 26 27 44 45 58 59>
VStem: 7 2<25 27 29 31 33 35 37 39 41 43> 10 2<25 26 41 42> 10 1<26 27 42 43> 12 2<26 27 42 43> 13 1<25 26 41 42> 15 2<25 27 29 31 33 35 37 39 41 43> 21 2<25 27 29 31 33 35 37 39 41 43> 24 2<25 26 41 42> 24 1<26 27 42 43> 26 2<26 27 42 43> 27 1<25 26 41 42> 29 2<25 27 29 31 33 35 37 39 41 43> 34 2<31 33 35 37> 39 2<25 27 29 31 33 35 37 39 41 43> 42 2<25 26 41 42> 42 1<26 27 42 43> 44 2<26 27 42 43> 45 1<25 26 41 42> 47 2<25 27 29 31 33 35 37 39 41 43> 53 2<25 27 29 31 33 35 37 39 41 43> 56 2<25 26 41 42> 56 1<26 27 42 43> 58 2<26 27 42 43> 59 1<25 26 41 42> 61 2<25 27 29 31 33 35 37 39 41 43>
LayerCount: 2
Fore
SplineSet
9 25 m 1xb90c3861
 7 25 l 1xb90c3861
 7 27 l 1
 9 27 l 1x790c3861
 9 25 l 1xb90c3861
12 25 m 1xb98c3861
 10 25 l 1xb98c3861
 10 27 l 1
 11 27 l 1x794c3861
 11 26 l 1xb94c3861
 12 26 l 1
 12 25 l 1xb98c3861
14 25 m 1xb91c3861
 13 25 l 1xb91c3861
 13 26 l 1x791c3861
 12 26 l 1xb99c3861
 12 27 l 1
 14 27 l 1x792c3861
 14 25 l 1xb91c3861
17 25 m 1
 15 25 l 1xb90c3861
 15 27 l 1
 17 27 l 1x790c3861
 17 25 l 1
23 25 m 1
 21 25 l 1xb90c3861
 21 27 l 1
 23 27 l 1x790c3861
 23 25 l 1
26 25 m 1xb90e3861
 24 25 l 1xb90e3861
 24 27 l 1
 25 27 l 1x790d3861
 25 26 l 1xb90d3861
 26 26 l 1
 26 25 l 1xb90e3861
28 25 m 1xb90c7861
 27 25 l 1xb90c7861
 27 26 l 1x790c7861
 26 26 l 1xb90e7861
 26 27 l 1
 28 27 l 1x790cb861
 28 25 l 1xb90c7861
31 25 m 1
 29 25 l 1xb90c3861
 29 27 l 1
 31 27 l 1x790c3861
 31 25 l 1
9 29 m 1
 7 29 l 1
 7 31 l 1
 9 31 l 1
 9 29 l 1
9 33 m 1
 7 33 l 1
 7 35 l 1
 9 35 l 1
 9 33 l 1
17 29 m 1
 15 29 l 1
 15 31 l 1
 17 31 l 1
 17 29 l 1
17 33 m 1
 15 33 l 1
 15 35 l 1
 17 35 l 1
 17 33 l 1
9 37 m 1
 7 37 l 1
 7 39 l 1
 9 39 l 1
 9 37 l 1
9 41 m 1x3d0c3861
 7 41 l 1x3d0c3861
 7 43 l 1
 9 43 l 1x3b0c3861
 9 41 l 1x3d0c3861
12 41 m 1x3d8c3861
 10 41 l 1x3d8c3861
 10 43 l 1
 11 43 l 1x3b4c3861
 11 42 l 1x3d4c3861
 12 42 l 1
 12 41 l 1x3d8c3861
17 37 m 1
 15 37 l 1
 15 39 l 1
 17 39 l 1
 17 37 l 1
14 41 m 1x3d1c3861
 13 41 l 1x3d1c3861
 13 42 l 1x3b1c3861
 12 42 l 1x3d9c3861
 12 43 l 1
 14 43 l 1x3b2c3861
 14 41 l 1x3d1c3861
17 41 m 1
 15 41 l 1x3d0c3861
 15 43 l 1
 17 43 l 1x3b0c3861
 17 41 l 1
23 29 m 1
 21 29 l 1
 21 31 l 1
 23 31 l 1
 23 29 l 1
23 33 m 1
 21 33 l 1
 21 35 l 1
 23 35 l 1
 23 33 l 1
31 29 m 1
 29 29 l 1
 29 31 l 1
 31 31 l 1
 31 29 l 1
31 33 m 1
 29 33 l 1
 29 35 l 1
 31 35 l 1
 31 33 l 1
36 31 m 1
 34 31 l 1
 34 33 l 1
 36 33 l 1
 36 31 l 1
23 37 m 1
 21 37 l 1
 21 39 l 1
 23 39 l 1
 23 37 l 1
23 41 m 1
 21 41 l 1x3d0c3861
 21 43 l 1
 23 43 l 1x3b0c3861
 23 41 l 1
26 41 m 1x3d0e3861
 24 41 l 1x3d0e3861
 24 43 l 1
 25 43 l 1x3b0d3861
 25 42 l 1x3d0d3861
 26 42 l 1
 26 41 l 1x3d0e3861
28 41 m 1x3d0c7861
 27 41 l 1x3d0c7861
 27 42 l 1x3b0c7861
 26 42 l 1x3d0e7861
 26 43 l 1
 28 43 l 1x3b0cb861
 28 41 l 1x3d0c7861
31 37 m 1
 29 37 l 1
 29 39 l 1
 31 39 l 1
 31 37 l 1
36 35 m 1
 34 35 l 1
 34 37 l 1
 36 37 l 1
 36 35 l 1
31 41 m 1
 29 41 l 1x3d0c3861
 29 43 l 1
 31 43 l 1x3b0c3861
 31 41 l 1
41 25 m 1xb90c3861
 39 25 l 1xb90c3861
 39 27 l 1
 41 27 l 1x790c3861
 41 25 l 1xb90c3861
44 25 m 1xb90c3c61
 42 25 l 1xb90c3c61
 42 27 l 1
 43 27 l 1x790c3a61
 43 26 l 1xb90c3a61
 44 26 l 1
 44 25 l 1xb90c3c61
46 25 m 1xb90c38e1
 45 25 l 1xb90c38e1
 45 26 l 1x790c38e1
 44 26 l 1xb90c3ce1
 44 27 l 1
 46 27 l 1x790c3961
 46 25 l 1xb90c38e1
49 25 m 1
 47 25 l 1xb90c3861
 47 27 l 1
 49 27 l 1x790c3861
 49 25 l 1
55 25 m 1
 53 25 l 1xb90c3861
 53 27 l 1
 55 27 l 1x790c3861
 55 25 l 1
58 25 m 1xb90c3871
 56 25 l 1xb90c3871
 56 27 l 1
 57 27 l 1x790c3869
 57 26 l 1xb90c3869
 58 26 l 1
 58 25 l 1xb90c3871
60 25 m 1xb90c3863
 59 25 l 1xb90c3863
 59 26 l 1x790c3863
 58 26 l 1xb90c3873
 58 27 l 1
 60 27 l 1x790c3865
 60 25 l 1xb90c3863
63 25 m 1
 61 25 l 1xb90c3861
 61 27 l 1
 63 27 l 1x790c3861
 63 25 l 1
41 29 m 1
 39 29 l 1
 39 31 l 1
 41 31 l 1
 41 29 l 1
41 33 m 1
 39 33 l 1
 39 35 l 1
 41 35 l 1
 41 33 l 1
49 29 m 1
 47 29 l 1
 47 31 l 1
 49 31 l 1
 49 29 l 1
49 33 m 1
 47 33 l 1
 47 35 l 1
 49 35 l 1
 49 33 l 1
41 37 m 1
 39 37 l 1
 39 39 l 1
 41 39 l 1
 41 37 l 1
41 41 m 1x3d0c3861
 39 41 l 1x3d0c3861
 39 43 l 1
 41 43 l 1x3b0c3861
 41 41 l 1x3d0c3861
44 41 m 1x3d0c3c61
 42 41 l 1x3d0c3c61
 42 43 l 1
 43 43 l 1x3b0c3a61
 43 42 l 1x3d0c3a61
 44 42 l 1
 44 41 l 1x3d0c3c61
49 37 m 1
 47 37 l 1
 47 39 l 1
 49 39 l 1
 49 37 l 1
46 41 m 1x3d0c38e1
 45 41 l 1x3d0c38e1
 45 42 l 1x3b0c38e1
 44 42 l 1x3d0c3ce1
 44 43 l 1
 46 43 l 1x3b0c3961
 46 41 l 1x3d0c38e1
49 41 m 1
 47 41 l 1x3d0c3861
 47 43 l 1
 49 43 l 1x3b0c3861
 49 41 l 1
55 29 m 1
 53 29 l 1
 53 31 l 1
 55 31 l 1
 55 29 l 1
55 33 m 1
 53 33 l 1
 53 35 l 1
 55 35 l 1
 55 33 l 1
63 29 m 1
 61 29 l 1
 61 31 l 1
 63 31 l 1
 63 29 l 1
63 33 m 1
 61 33 l 1
 61 35 l 1
 63 35 l 1
 63 33 l 1
55 37 m 1
 53 37 l 1
 53 39 l 1
 55 39 l 1
 55 37 l 1
55 41 m 1
 53 41 l 1x3d0c3861
 53 43 l 1
 55 43 l 1x3b0c3861
 55 41 l 1
58 41 m 1x3d0c3871
 56 41 l 1x3d0c3871
 56 43 l 1
 57 43 l 1x3b0c3869
 57 42 l 1x3d0c3869
 58 42 l 1
 58 41 l 1x3d0c3871
60 41 m 1x3d0c3863
 59 41 l 1x3d0c3863
 59 42 l 1x3b0c3863
 58 42 l 1x3d0c3873
 58 43 l 1
 60 43 l 1x3b0c3865
 60 41 l 1x3d0c3863
63 37 m 1
 61 37 l 1
 61 39 l 1
 63 39 l 1
 63 37 l 1
63 41 m 1
 61 41 l 1x3d0c3861
 61 43 l 1
 63 43 l 1x3b0c3861
 63 41 l 1
EndSplineSet
Ligature2: "'liga' Standard Ligatures in Latin lookup 0-1" zero zero zero zero zero two two
LCarets2: 1 0
EndChar

StartChar: custom_0_0_0_0_0_2_3
Encoding: 279 -1 34
Width: 70
HStem: 25 1<11 12 25 26 43 44 57 58> 26 1<12 13 26 27 44 45 58 59> 29 2<7 9 15 17 21 23 29 31 39 41 47 49 53 55 61 63> 33 2<7 9 15 17 21 23 29 31 39 41 47 49 53 55 61 63> 37 2<7 9 15 17 21 23 29 31 39 41 47 49 53 55 61 63> 41 1<11 12 25 26 43 44 57 58> 42 1<12 13 26 27 44 45 58 59>
VStem: 7 2<25 27 29 31 33 35 37 39 41 43> 10 2<25 26 41 42> 10 1<26 27 42 43> 12 2<26 27 42 43> 13 1<25 26 41 42> 15 2<25 27 29 31 33 35 37 39 41 43> 21 2<25 27 29 31 33 35 37 39 41 43> 24 2<25 26 41 42> 24 1<26 27 42 43> 26 2<26 27 42 43> 27 1<25 26 41 42> 29 2<25 27 29 31 33 35 37 39 41 43> 34 2<31 33 35 37> 39 2<25 27 29 31 33 35 37 39 41 43> 42 2<25 26 41 42> 42 1<26 27 42 43> 44 2<26 27 42 43> 45 1<25 26 41 42> 47 2<25 27 29 31 33 35 37 39 41 43> 53 2<25 27 29 31 33 35 37 39 41 43> 56 2<25 26 41 42> 56 1<26 27 42 43> 58 2<26 27 42 43> 59 1<25 26 41 42> 61 2<25 27 29 31 33 35 37 39 41 43>
LayerCount: 2
Fore
SplineSet
9 25 m 1xb90c3861
 7 25 l 1xb90c3861
 7 27 l 1
 9 27 l 1x790c3861
 9 25 l 1xb90c3861
12 25 m 1xb98c3861
 10 25 l 1xb98c3861
 10 27 l 1
 11 27 l 1x794c3861
 11 26 l 1xb94c3861
 12 26 l 1
 12 25 l 1xb98c3861
14 25 m 1xb91c3861
 13 25 l 1xb91c3861
 13 26 l 1x791c3861
 12 26 l 1xb99c3861
 12 27 l 1
 14 27 l 1x792c3861
 14 25 l 1xb91c3861
17 25 m 1
 15 25 l 1xb90c3861
 15 27 l 1
 17 27 l 1x790c3861
 17 25 l 1
23 25 m 1
 21 25 l 1xb90c3861
 21 27 l 1
 23 27 l 1x790c3861
 23 25 l 1
26 25 m 1xb90e3861
 24 25 l 1xb90e3861
 24 27 l 1
 25 27 l 1x790d3861
 25 26 l 1xb90d3861
 26 26 l 1
 26 25 l 1xb90e3861
28 25 m 1xb90c7861
 27 25 l 1xb90c7861
 27 26 l 1x790c7861
 26 26 l 1xb90e7861
 26 27 l 1
 28 27 l 1x790cb861
 28 25 l 1xb90c7861
31 25 m 1
 29 25 l 1xb90c3861
 29 27 l 1
 31 27 l 1x790c3861
 31 25 l 1
9 29 m 1
 7 29 l 1
 7 31 l 1
 9 31 l 1
 9 29 l 1
9 33 m 1
 7 33 l 1
 7 35 l 1
 9 35 l 1
 9 33 l 1
17 29 m 1
 15 29 l 1
 15 31 l 1
 17 31 l 1
 17 29 l 1
17 33 m 1
 15 33 l 1
 15 35 l 1
 17 35 l 1
 17 33 l 1
9 37 m 1
 7 37 l 1
 7 39 l 1
 9 39 l 1
 9 37 l 1
9 41 m 1x3d0c3861
 7 41 l 1x3d0c3861
 7 43 l 1
 9 43 l 1x3b0c3861
 9 41 l 1x3d0c3861
12 41 m 1x3d8c3861
 10 41 l 1x3d8c3861
 10 43 l 1
 11 43 l 1x3b4c3861
 11 42 l 1x3d4c3861
 12 42 l 1
 12 41 l 1x3d8c3861
17 37 m 1
 15 37 l 1
 15 39 l 1
 17 39 l 1
 17 37 l 1
14 41 m 1x3d1c3861
 13 41 l 1x3d1c3861
 13 42 l 1x3b1c3861
 12 42 l 1x3d9c3861
 12 43 l 1
 14 43 l 1x3b2c3861
 14 41 l 1x3d1c3861
17 41 m 1
 15 41 l 1x3d0c3861
 15 43 l 1
 17 43 l 1x3b0c3861
 17 41 l 1
23 29 m 1
 21 29 l 1
 21 31 l 1
 23 31 l 1
 23 29 l 1
23 33 m 1
 21 33 l 1
 21 35 l 1
 23 35 l 1
 23 33 l 1
31 29 m 1
 29 29 l 1
 29 31 l 1
 31 31 l 1
 31 29 l 1
31 33 m 1
 29 33 l 1
 29 35 l 1
 31 35 l 1
 31 33 l 1
36 31 m 1
 34 31 l 1
 34 33 l 1
 36 33 l 1
 36 31 l 1
23 37 m 1
 21 37 l 1
 21 39 l 1
 23 39 l 1
 23 37 l 1
23 41 m 1
 21 41 l 1x3d0c3861
 21 43 l 1
 23 43 l 1x3b0c3861
 23 41 l 1
26 41 m 1x3d0e3861
 24 41 l 1x3d0e3861
 24 43 l 1
 25 43 l 1x3b0d3861
 25 42 l 1x3d0d3861
 26 42 l 1
 26 41 l 1x3d0e3861
28 41 m 1x3d0c7861
 27 41 l 1x3d0c7861
 27 42 l 1x3b0c7861
 26 42 l 1x3d0e7861
 26 43 l 1
 28 43 l 1x3b0cb861
 28 41 l 1x3d0c7861
31 37 m 1
 29 37 l 1
 29 39 l 1
 31 39 l 1
 31 37 l 1
36 35 m 1
 34 35 l 1
 34 37 l 1
 36 37 l 1
 36 35 l 1
31 41 m 1
 29 41 l 1x3d0c3861
 29 43 l 1
 31 43 l 1x3b0c3861
 31 41 l 1
41 25 m 1xb90c3861
 39 25 l 1xb90c3861
 39 27 l 1
 41 27 l 1x790c3861
 41 25 l 1xb90c3861
44 25 m 1xb90c3c61
 42 25 l 1xb90c3c61
 42 27 l 1
 43 27 l 1x790c3a61
 43 26 l 1xb90c3a61
 44 26 l 1
 44 25 l 1xb90c3c61
46 25 m 1xb90c38e1
 45 25 l 1xb90c38e1
 45 26 l 1x790c38e1
 44 26 l 1xb90c3ce1
 44 27 l 1
 46 27 l 1x790c3961
 46 25 l 1xb90c38e1
49 25 m 1
 47 25 l 1xb90c3861
 47 27 l 1
 49 27 l 1x790c3861
 49 25 l 1
55 25 m 1
 53 25 l 1xb90c3861
 53 27 l 1
 55 27 l 1x790c3861
 55 25 l 1
58 25 m 1xb90c3871
 56 25 l 1xb90c3871
 56 27 l 1
 57 27 l 1x790c3869
 57 26 l 1xb90c3869
 58 26 l 1
 58 25 l 1xb90c3871
60 25 m 1xb90c3863
 59 25 l 1xb90c3863
 59 26 l 1x790c3863
 58 26 l 1xb90c3873
 58 27 l 1
 60 27 l 1x790c3865
 60 25 l 1xb90c3863
63 25 m 1
 61 25 l 1xb90c3861
 61 27 l 1
 63 27 l 1x790c3861
 63 25 l 1
41 29 m 1
 39 29 l 1
 39 31 l 1
 41 31 l 1
 41 29 l 1
41 33 m 1
 39 33 l 1
 39 35 l 1
 41 35 l 1
 41 33 l 1
49 29 m 1
 47 29 l 1
 47 31 l 1
 49 31 l 1
 49 29 l 1
49 33 m 1
 47 33 l 1
 47 35 l 1
 49 35 l 1
 49 33 l 1
41 37 m 1
 39 37 l 1
 39 39 l 1
 41 39 l 1
 41 37 l 1
41 41 m 1x3d0c3861
 39 41 l 1x3d0c3861
 39 43 l 1
 41 43 l 1x3b0c3861
 41 41 l 1x3d0c3861
44 41 m 1x3d0c3c61
 42 41 l 1x3d0c3c61
 42 43 l 1
 43 43 l 1x3b0c3a61
 43 42 l 1x3d0c3a61
 44 42 l 1
 44 41 l 1x3d0c3c61
49 37 m 1
 47 37 l 1
 47 39 l 1
 49 39 l 1
 49 37 l 1
46 41 m 1x3d0c38e1
 45 41 l 1x3d0c38e1
 45 42 l 1x3b0c38e1
 44 42 l 1x3d0c3ce1
 44 43 l 1
 46 43 l 1x3b0c3961
 46 41 l 1x3d0c38e1
49 41 m 1
 47 41 l 1x3d0c3861
 47 43 l 1
 49 43 l 1x3b0c3861
 49 41 l 1
55 29 m 1
 53 29 l 1
 53 31 l 1
 55 31 l 1
 55 29 l 1
55 33 m 1
 53 33 l 1
 53 35 l 1
 55 35 l 1
 55 33 l 1
63 29 m 1
 61 29 l 1
 61 31 l 1
 63 31 l 1
 63 29 l 1
63 33 m 1
 61 33 l 1
 61 35 l 1
 63 35 l 1
 63 33 l 1
55 37 m 1
 53 37 l 1
 53 39 l 1
 55 39 l 1
 55 37 l 1
55 41 m 1
 53 41 l 1x3d0c3861
 53 43 l 1
 55 43 l 1x3b0c3861
 55 41 l 1
58 41 m 1x3d0c3871
 56 41 l 1x3d0c3871
 56 43 l 1
 57 43 l 1x3b0c3869
 57 42 l 1x3d0c3869
 58 42 l 1
 58 41 l 1x3d0c3871
60 41 m 1x3d0c3863
 59 41 l 1x3d0c3863
 59 42 l 1x3b0c3863
 58 42 l 1x3d0c3873
 58 43 l 1
 60 43 l 1x3b0c3865
 60 41 l 1x3d0c3863
63 37 m 1
 61 37 l 1
 61 39 l 1
 63 39 l 1
 63 37 l 1
63 41 m 1
 61 41 l 1x3d0c3861
 61 43 l 1
 63 43 l 1x3b0c3861
 63 41 l 1
EndSplineSet
Ligature2: "'liga' Standard Ligatures in Latin lookup 0-1" zero zero zero zero zero two three
LCarets2: 1 0
EndChar

StartChar: custom_0_0_0_0_0_2_4
Encoding: 280 -1 35
Width: 70
HStem: 25 1<11 12 25 26 43 44 57 58> 26 1<12 13 26 27 44 45 58 59> 29 2<7 9 15 17 21 23 29 31 39 41 47 49 53 55 61 63> 33 2<7 9 15 17 21 23 29 31 39 41 47 49 53 55 61 63> 37 2<7 9 15 17 21 23 29 31 39 41 47 49 53 55 61 63> 41 1<11 12 25 26 43 44 57 58> 42 1<12 13 26 27 44 45 58 59>
VStem: 7 2<25 27 29 31 33 35 37 39 41 43> 10 2<25 26 41 42> 10 1<26 27 42 43> 12 2<26 27 42 43> 13 1<25 26 41 42> 15 2<25 27 29 31 33 35 37 39 41 43> 21 2<25 27 29 31 33 35 37 39 41 43> 24 2<25 26 41 42> 24 1<26 27 42 43> 26 2<26 27 42 43> 27 1<25 26 41 42> 29 2<25 27 29 31 33 35 37 39 41 43> 34 2<31 33 35 37> 39 2<25 27 29 31 33 35 37 39 41 43> 42 2<25 26 41 42> 42 1<26 27 42 43> 44 2<26 27 42 43> 45 1<25 26 41 42> 47 2<25 27 29 31 33 35 37 39 41 43> 53 2<25 27 29 31 33 35 37 39 41 43> 56 2<25 26 41 42> 56 1<26 27 42 43> 58 2<26 27 42 43> 59 1<25 26 41 42> 61 2<25 27 29 31 33 35 37 39 41 43>
LayerCount: 2
Fore
SplineSet
9 25 m 1xb90c3861
 7 25 l 1xb90c3861
 7 27 l 1
 9 27 l 1x790c3861
 9 25 l 1xb90c3861
12 25 m 1xb98c3861
 10 25 l 1xb98c3861
 10 27 l 1
 11 27 l 1x794c3861
 11 26 l 1xb94c3861
 12 26 l 1
 12 25 l 1xb98c3861
14 25 m 1xb91c3861
 13 25 l 1xb91c3861
 13 26 l 1x791c3861
 12 26 l 1xb99c3861
 12 27 l 1
 14 27 l 1x792c3861
 14 25 l 1xb91c3861
17 25 m 1
 15 25 l 1xb90c3861
 15 27 l 1
 17 27 l 1x790c3861
 17 25 l 1
23 25 m 1
 21 25 l 1xb90c3861
 21 27 l 1
 23 27 l 1x790c3861
 23 25 l 1
26 25 m 1xb90e3861
 24 25 l 1xb90e3861
 24 27 l 1
 25 27 l 1x790d3861
 25 26 l 1xb90d3861
 26 26 l 1
 26 25 l 1xb90e3861
28 25 m 1xb90c7861
 27 25 l 1xb90c7861
 27 26 l 1x790c7861
 26 26 l 1xb90e7861
 26 27 l 1
 28 27 l 1x790cb861
 28 25 l 1xb90c7861
31 25 m 1
 29 25 l 1xb90c3861
 29 27 l 1
 31 27 l 1x790c3861
 31 25 l 1
9 29 m 1
 7 29 l 1
 7 31 l 1
 9 31 l 1
 9 29 l 1
9 33 m 1
 7 33 l 1
 7 35 l 1
 9 35 l 1
 9 33 l 1
17 29 m 1
 15 29 l 1
 15 31 l 1
 17 31 l 1
 17 29 l 1
17 33 m 1
 15 33 l 1
 15 35 l 1
 17 35 l 1
 17 33 l 1
9 37 m 1
 7 37 l 1
 7 39 l 1
 9 39 l 1
 9 37 l 1
9 41 m 1x3d0c3861
 7 41 l 1x3d0c3861
 7 43 l 1
 9 43 l 1x3b0c3861
 9 41 l 1x3d0c3861
12 41 m 1x3d8c3861
 10 41 l 1x3d8c3861
 10 43 l 1
 11 43 l 1x3b4c3861
 11 42 l 1x3d4c3861
 12 42 l 1
 12 41 l 1x3d8c3861
17 37 m 1
 15 37 l 1
 15 39 l 1
 17 39 l 1
 17 37 l 1
14 41 m 1x3d1c3861
 13 41 l 1x3d1c3861
 13 42 l 1x3b1c3861
 12 42 l 1x3d9c3861
 12 43 l 1
 14 43 l 1x3b2c3861
 14 41 l 1x3d1c3861
17 41 m 1
 15 41 l 1x3d0c3861
 15 43 l 1
 17 43 l 1x3b0c3861
 17 41 l 1
23 29 m 1
 21 29 l 1
 21 31 l 1
 23 31 l 1
 23 29 l 1
23 33 m 1
 21 33 l 1
 21 35 l 1
 23 35 l 1
 23 33 l 1
31 29 m 1
 29 29 l 1
 29 31 l 1
 31 31 l 1
 31 29 l 1
31 33 m 1
 29 33 l 1
 29 35 l 1
 31 35 l 1
 31 33 l 1
36 31 m 1
 34 31 l 1
 34 33 l 1
 36 33 l 1
 36 31 l 1
23 37 m 1
 21 37 l 1
 21 39 l 1
 23 39 l 1
 23 37 l 1
23 41 m 1
 21 41 l 1x3d0c3861
 21 43 l 1
 23 43 l 1x3b0c3861
 23 41 l 1
26 41 m 1x3d0e3861
 24 41 l 1x3d0e3861
 24 43 l 1
 25 43 l 1x3b0d3861
 25 42 l 1x3d0d3861
 26 42 l 1
 26 41 l 1x3d0e3861
28 41 m 1x3d0c7861
 27 41 l 1x3d0c7861
 27 42 l 1x3b0c7861
 26 42 l 1x3d0e7861
 26 43 l 1
 28 43 l 1x3b0cb861
 28 41 l 1x3d0c7861
31 37 m 1
 29 37 l 1
 29 39 l 1
 31 39 l 1
 31 37 l 1
36 35 m 1
 34 35 l 1
 34 37 l 1
 36 37 l 1
 36 35 l 1
31 41 m 1
 29 41 l 1x3d0c3861
 29 43 l 1
 31 43 l 1x3b0c3861
 31 41 l 1
41 25 m 1xb90c3861
 39 25 l 1xb90c3861
 39 27 l 1
 41 27 l 1x790c3861
 41 25 l 1xb90c3861
44 25 m 1xb90c3c61
 42 25 l 1xb90c3c61
 42 27 l 1
 43 27 l 1x790c3a61
 43 26 l 1xb90c3a61
 44 26 l 1
 44 25 l 1xb90c3c61
46 25 m 1xb90c38e1
 45 25 l 1xb90c38e1
 45 26 l 1x790c38e1
 44 26 l 1xb90c3ce1
 44 27 l 1
 46 27 l 1x790c3961
 46 25 l 1xb90c38e1
49 25 m 1
 47 25 l 1xb90c3861
 47 27 l 1
 49 27 l 1x790c3861
 49 25 l 1
55 25 m 1
 53 25 l 1xb90c3861
 53 27 l 1
 55 27 l 1x790c3861
 55 25 l 1
58 25 m 1xb90c3871
 56 25 l 1xb90c3871
 56 27 l 1
 57 27 l 1x790c3869
 57 26 l 1xb90c3869
 58 26 l 1
 58 25 l 1xb90c3871
60 25 m 1xb90c3863
 59 25 l 1xb90c3863
 59 26 l 1x790c3863
 58 26 l 1xb90c3873
 58 27 l 1
 60 27 l 1x790c3865
 60 25 l 1xb90c3863
63 25 m 1
 61 25 l 1xb90c3861
 61 27 l 1
 63 27 l 1x790c3861
 63 25 l 1
41 29 m 1
 39 29 l 1
 39 31 l 1
 41 31 l 1
 41 29 l 1
41 33 m 1
 39 33 l 1
 39 35 l 1
 41 35 l 1
 41 33 l 1
49 29 m 1
 47 29 l 1
 47 31 l 1
 49 31 l 1
 49 29 l 1
49 33 m 1
 47 33 l 1
 47 35 l 1
 49 35 l 1
 49 33 l 1
41 37 m 1
 39 37 l 1
 39 39 l 1
 41 39 l 1
 41 37 l 1
41 41 m 1x3d0c3861
 39 41 l 1x3d0c3861
 39 43 l 1
 41 43 l 1x3b0c3861
 41 41 l 1x3d0c3861
44 41 m 1x3d0c3c61
 42 41 l 1x3d0c3c61
 42 43 l 1
 43 43 l 1x3b0c3a61
 43 42 l 1x3d0c3a61
 44 42 l 1
 44 41 l 1x3d0c3c61
49 37 m 1
 47 37 l 1
 47 39 l 1
 49 39 l 1
 49 37 l 1
46 41 m 1x3d0c38e1
 45 41 l 1x3d0c38e1
 45 42 l 1x3b0c38e1
 44 42 l 1x3d0c3ce1
 44 43 l 1
 46 43 l 1x3b0c3961
 46 41 l 1x3d0c38e1
49 41 m 1
 47 41 l 1x3d0c3861
 47 43 l 1
 49 43 l 1x3b0c3861
 49 41 l 1
55 29 m 1
 53 29 l 1
 53 31 l 1
 55 31 l 1
 55 29 l 1
55 33 m 1
 53 33 l 1
 53 35 l 1
 55 35 l 1
 55 33 l 1
63 29 m 1
 61 29 l 1
 61 31 l 1
 63 31 l 1
 63 29 l 1
63 33 m 1
 61 33 l 1
 61 35 l 1
 63 35 l 1
 63 33 l 1
55 37 m 1
 53 37 l 1
 53 39 l 1
 55 39 l 1
 55 37 l 1
55 41 m 1
 53 41 l 1x3d0c3861
 53 43 l 1
 55 43 l 1x3b0c3861
 55 41 l 1
58 41 m 1x3d0c3871
 56 41 l 1x3d0c3871
 56 43 l 1
 57 43 l 1x3b0c3869
 57 42 l 1x3d0c3869
 58 42 l 1
 58 41 l 1x3d0c3871
60 41 m 1x3d0c3863
 59 41 l 1x3d0c3863
 59 42 l 1x3b0c3863
 58 42 l 1x3d0c3873
 58 43 l 1
 60 43 l 1x3b0c3865
 60 41 l 1x3d0c3863
63 37 m 1
 61 37 l 1
 61 39 l 1
 63 39 l 1
 63 37 l 1
63 41 m 1
 61 41 l 1x3d0c3861
 61 43 l 1
 63 43 l 1x3b0c3861
 63 41 l 1
EndSplineSet
Ligature2: "'liga' Standard Ligatures in Latin lookup 0-1" zero zero zero zero zero two four
LCarets2: 1 0
EndChar

StartChar: custom_0_0_0_0_0_2_5
Encoding: 281 -1 36
Width: 70
HStem: 25 1<11 12 25 26 43 44 57 58> 26 1<12 13 26 27 44 45 58 59> 29 2<7 9 15 17 21 23 29 31 39 41 47 49 53 55 61 63> 33 2<7 9 15 17 21 23 29 31 39 41 47 49 53 55 61 63> 37 2<7 9 15 17 21 23 29 31 39 41 47 49 53 55 61 63> 41 1<11 12 25 26 43 44 57 58> 42 1<12 13 26 27 44 45 58 59>
VStem: 7 2<25 27 29 31 33 35 37 39 41 43> 10 2<25 26 41 42> 10 1<26 27 42 43> 12 2<26 27 42 43> 13 1<25 26 41 42> 15 2<25 27 29 31 33 35 37 39 41 43> 21 2<25 27 29 31 33 35 37 39 41 43> 24 2<25 26 41 42> 24 1<26 27 42 43> 26 2<26 27 42 43> 27 1<25 26 41 42> 29 2<25 27 29 31 33 35 37 39 41 43> 34 2<31 33 35 37> 39 2<25 27 29 31 33 35 37 39 41 43> 42 2<25 26 41 42> 42 1<26 27 42 43> 44 2<26 27 42 43> 45 1<25 26 41 42> 47 2<25 27 29 31 33 35 37 39 41 43> 53 2<25 27 29 31 33 35 37 39 41 43> 56 2<25 26 41 42> 56 1<26 27 42 43> 58 2<26 27 42 43> 59 1<25 26 41 42> 61 2<25 27 29 31 33 35 37 39 41 43>
LayerCount: 2
Fore
SplineSet
9 25 m 1xb90c3861
 7 25 l 1xb90c3861
 7 27 l 1
 9 27 l 1x790c3861
 9 25 l 1xb90c3861
12 25 m 1xb98c3861
 10 25 l 1xb98c3861
 10 27 l 1
 11 27 l 1x794c3861
 11 26 l 1xb94c3861
 12 26 l 1
 12 25 l 1xb98c3861
14 25 m 1xb91c3861
 13 25 l 1xb91c3861
 13 26 l 1x791c3861
 12 26 l 1xb99c3861
 12 27 l 1
 14 27 l 1x792c3861
 14 25 l 1xb91c3861
17 25 m 1
 15 25 l 1xb90c3861
 15 27 l 1
 17 27 l 1x790c3861
 17 25 l 1
23 25 m 1
 21 25 l 1xb90c3861
 21 27 l 1
 23 27 l 1x790c3861
 23 25 l 1
26 25 m 1xb90e3861
 24 25 l 1xb90e3861
 24 27 l 1
 25 27 l 1x790d3861
 25 26 l 1xb90d3861
 26 26 l 1
 26 25 l 1xb90e3861
28 25 m 1xb90c7861
 27 25 l 1xb90c7861
 27 26 l 1x790c7861
 26 26 l 1xb90e7861
 26 27 l 1
 28 27 l 1x790cb861
 28 25 l 1xb90c7861
31 25 m 1
 29 25 l 1xb90c3861
 29 27 l 1
 31 27 l 1x790c3861
 31 25 l 1
9 29 m 1
 7 29 l 1
 7 31 l 1
 9 31 l 1
 9 29 l 1
9 33 m 1
 7 33 l 1
 7 35 l 1
 9 35 l 1
 9 33 l 1
17 29 m 1
 15 29 l 1
 15 31 l 1
 17 31 l 1
 17 29 l 1
17 33 m 1
 15 33 l 1
 15 35 l 1
 17 35 l 1
 17 33 l 1
9 37 m 1
 7 37 l 1
 7 39 l 1
 9 39 l 1
 9 37 l 1
9 41 m 1x3d0c3861
 7 41 l 1x3d0c3861
 7 43 l 1
 9 43 l 1x3b0c3861
 9 41 l 1x3d0c3861
12 41 m 1x3d8c3861
 10 41 l 1x3d8c3861
 10 43 l 1
 11 43 l 1x3b4c3861
 11 42 l 1x3d4c3861
 12 42 l 1
 12 41 l 1x3d8c3861
17 37 m 1
 15 37 l 1
 15 39 l 1
 17 39 l 1
 17 37 l 1
14 41 m 1x3d1c3861
 13 41 l 1x3d1c3861
 13 42 l 1x3b1c3861
 12 42 l 1x3d9c3861
 12 43 l 1
 14 43 l 1x3b2c3861
 14 41 l 1x3d1c3861
17 41 m 1
 15 41 l 1x3d0c3861
 15 43 l 1
 17 43 l 1x3b0c3861
 17 41 l 1
23 29 m 1
 21 29 l 1
 21 31 l 1
 23 31 l 1
 23 29 l 1
23 33 m 1
 21 33 l 1
 21 35 l 1
 23 35 l 1
 23 33 l 1
31 29 m 1
 29 29 l 1
 29 31 l 1
 31 31 l 1
 31 29 l 1
31 33 m 1
 29 33 l 1
 29 35 l 1
 31 35 l 1
 31 33 l 1
36 31 m 1
 34 31 l 1
 34 33 l 1
 36 33 l 1
 36 31 l 1
23 37 m 1
 21 37 l 1
 21 39 l 1
 23 39 l 1
 23 37 l 1
23 41 m 1
 21 41 l 1x3d0c3861
 21 43 l 1
 23 43 l 1x3b0c3861
 23 41 l 1
26 41 m 1x3d0e3861
 24 41 l 1x3d0e3861
 24 43 l 1
 25 43 l 1x3b0d3861
 25 42 l 1x3d0d3861
 26 42 l 1
 26 41 l 1x3d0e3861
28 41 m 1x3d0c7861
 27 41 l 1x3d0c7861
 27 42 l 1x3b0c7861
 26 42 l 1x3d0e7861
 26 43 l 1
 28 43 l 1x3b0cb861
 28 41 l 1x3d0c7861
31 37 m 1
 29 37 l 1
 29 39 l 1
 31 39 l 1
 31 37 l 1
36 35 m 1
 34 35 l 1
 34 37 l 1
 36 37 l 1
 36 35 l 1
31 41 m 1
 29 41 l 1x3d0c3861
 29 43 l 1
 31 43 l 1x3b0c3861
 31 41 l 1
41 25 m 1xb90c3861
 39 25 l 1xb90c3861
 39 27 l 1
 41 27 l 1x790c3861
 41 25 l 1xb90c3861
44 25 m 1xb90c3c61
 42 25 l 1xb90c3c61
 42 27 l 1
 43 27 l 1x790c3a61
 43 26 l 1xb90c3a61
 44 26 l 1
 44 25 l 1xb90c3c61
46 25 m 1xb90c38e1
 45 25 l 1xb90c38e1
 45 26 l 1x790c38e1
 44 26 l 1xb90c3ce1
 44 27 l 1
 46 27 l 1x790c3961
 46 25 l 1xb90c38e1
49 25 m 1
 47 25 l 1xb90c3861
 47 27 l 1
 49 27 l 1x790c3861
 49 25 l 1
55 25 m 1
 53 25 l 1xb90c3861
 53 27 l 1
 55 27 l 1x790c3861
 55 25 l 1
58 25 m 1xb90c3871
 56 25 l 1xb90c3871
 56 27 l 1
 57 27 l 1x790c3869
 57 26 l 1xb90c3869
 58 26 l 1
 58 25 l 1xb90c3871
60 25 m 1xb90c3863
 59 25 l 1xb90c3863
 59 26 l 1x790c3863
 58 26 l 1xb90c3873
 58 27 l 1
 60 27 l 1x790c3865
 60 25 l 1xb90c3863
63 25 m 1
 61 25 l 1xb90c3861
 61 27 l 1
 63 27 l 1x790c3861
 63 25 l 1
41 29 m 1
 39 29 l 1
 39 31 l 1
 41 31 l 1
 41 29 l 1
41 33 m 1
 39 33 l 1
 39 35 l 1
 41 35 l 1
 41 33 l 1
49 29 m 1
 47 29 l 1
 47 31 l 1
 49 31 l 1
 49 29 l 1
49 33 m 1
 47 33 l 1
 47 35 l 1
 49 35 l 1
 49 33 l 1
41 37 m 1
 39 37 l 1
 39 39 l 1
 41 39 l 1
 41 37 l 1
41 41 m 1x3d0c3861
 39 41 l 1x3d0c3861
 39 43 l 1
 41 43 l 1x3b0c3861
 41 41 l 1x3d0c3861
44 41 m 1x3d0c3c61
 42 41 l 1x3d0c3c61
 42 43 l 1
 43 43 l 1x3b0c3a61
 43 42 l 1x3d0c3a61
 44 42 l 1
 44 41 l 1x3d0c3c61
49 37 m 1
 47 37 l 1
 47 39 l 1
 49 39 l 1
 49 37 l 1
46 41 m 1x3d0c38e1
 45 41 l 1x3d0c38e1
 45 42 l 1x3b0c38e1
 44 42 l 1x3d0c3ce1
 44 43 l 1
 46 43 l 1x3b0c3961
 46 41 l 1x3d0c38e1
49 41 m 1
 47 41 l 1x3d0c3861
 47 43 l 1
 49 43 l 1x3b0c3861
 49 41 l 1
55 29 m 1
 53 29 l 1
 53 31 l 1
 55 31 l 1
 55 29 l 1
55 33 m 1
 53 33 l 1
 53 35 l 1
 55 35 l 1
 55 33 l 1
63 29 m 1
 61 29 l 1
 61 31 l 1
 63 31 l 1
 63 29 l 1
63 33 m 1
 61 33 l 1
 61 35 l 1
 63 35 l 1
 63 33 l 1
55 37 m 1
 53 37 l 1
 53 39 l 1
 55 39 l 1
 55 37 l 1
55 41 m 1
 53 41 l 1x3d0c3861
 53 43 l 1
 55 43 l 1x3b0c3861
 55 41 l 1
58 41 m 1x3d0c3871
 56 41 l 1x3d0c3871
 56 43 l 1
 57 43 l 1x3b0c3869
 57 42 l 1x3d0c3869
 58 42 l 1
 58 41 l 1x3d0c3871
60 41 m 1x3d0c3863
 59 41 l 1x3d0c3863
 59 42 l 1x3b0c3863
 58 42 l 1x3d0c3873
 58 43 l 1
 60 43 l 1x3b0c3865
 60 41 l 1x3d0c3863
63 37 m 1
 61 37 l 1
 61 39 l 1
 63 39 l 1
 63 37 l 1
63 41 m 1
 61 41 l 1x3d0c3861
 61 43 l 1
 63 43 l 1x3b0c3861
 63 41 l 1
EndSplineSet
Ligature2: "'liga' Standard Ligatures in Latin lookup 0-1" zero zero zero zero zero two five
LCarets2: 1 0
EndChar

StartChar: custom_0_0_0_0_0_2_6
Encoding: 282 -1 37
Width: 70
HStem: 25 1<11 12 25 26 43 44 57 58> 26 1<12 13 26 27 44 45 58 59> 29 2<7 9 15 17 21 23 29 31 39 41 47 49 53 55 61 63> 33 2<7 9 15 17 21 23 29 31 39 41 47 49 53 55 61 63> 37 2<7 9 15 17 21 23 29 31 39 41 47 49 53 55 61 63> 41 1<11 12 25 26 43 44 57 58> 42 1<12 13 26 27 44 45 58 59>
VStem: 7 2<25 27 29 31 33 35 37 39 41 43> 10 2<25 26 41 42> 10 1<26 27 42 43> 12 2<26 27 42 43> 13 1<25 26 41 42> 15 2<25 27 29 31 33 35 37 39 41 43> 21 2<25 27 29 31 33 35 37 39 41 43> 24 2<25 26 41 42> 24 1<26 27 42 43> 26 2<26 27 42 43> 27 1<25 26 41 42> 29 2<25 27 29 31 33 35 37 39 41 43> 34 2<31 33 35 37> 39 2<25 27 29 31 33 35 37 39 41 43> 42 2<25 26 41 42> 42 1<26 27 42 43> 44 2<26 27 42 43> 45 1<25 26 41 42> 47 2<25 27 29 31 33 35 37 39 41 43> 53 2<25 27 29 31 33 35 37 39 41 43> 56 2<25 26 41 42> 56 1<26 27 42 43> 58 2<26 27 42 43> 59 1<25 26 41 42> 61 2<25 27 29 31 33 35 37 39 41 43>
LayerCount: 2
Fore
SplineSet
9 25 m 1xb90c3861
 7 25 l 1xb90c3861
 7 27 l 1
 9 27 l 1x790c3861
 9 25 l 1xb90c3861
12 25 m 1xb98c3861
 10 25 l 1xb98c3861
 10 27 l 1
 11 27 l 1x794c3861
 11 26 l 1xb94c3861
 12 26 l 1
 12 25 l 1xb98c3861
14 25 m 1xb91c3861
 13 25 l 1xb91c3861
 13 26 l 1x791c3861
 12 26 l 1xb99c3861
 12 27 l 1
 14 27 l 1x792c3861
 14 25 l 1xb91c3861
17 25 m 1
 15 25 l 1xb90c3861
 15 27 l 1
 17 27 l 1x790c3861
 17 25 l 1
23 25 m 1
 21 25 l 1xb90c3861
 21 27 l 1
 23 27 l 1x790c3861
 23 25 l 1
26 25 m 1xb90e3861
 24 25 l 1xb90e3861
 24 27 l 1
 25 27 l 1x790d3861
 25 26 l 1xb90d3861
 26 26 l 1
 26 25 l 1xb90e3861
28 25 m 1xb90c7861
 27 25 l 1xb90c7861
 27 26 l 1x790c7861
 26 26 l 1xb90e7861
 26 27 l 1
 28 27 l 1x790cb861
 28 25 l 1xb90c7861
31 25 m 1
 29 25 l 1xb90c3861
 29 27 l 1
 31 27 l 1x790c3861
 31 25 l 1
9 29 m 1
 7 29 l 1
 7 31 l 1
 9 31 l 1
 9 29 l 1
9 33 m 1
 7 33 l 1
 7 35 l 1
 9 35 l 1
 9 33 l 1
17 29 m 1
 15 29 l 1
 15 31 l 1
 17 31 l 1
 17 29 l 1
17 33 m 1
 15 33 l 1
 15 35 l 1
 17 35 l 1
 17 33 l 1
9 37 m 1
 7 37 l 1
 7 39 l 1
 9 39 l 1
 9 37 l 1
9 41 m 1x3d0c3861
 7 41 l 1x3d0c3861
 7 43 l 1
 9 43 l 1x3b0c3861
 9 41 l 1x3d0c3861
12 41 m 1x3d8c3861
 10 41 l 1x3d8c3861
 10 43 l 1
 11 43 l 1x3b4c3861
 11 42 l 1x3d4c3861
 12 42 l 1
 12 41 l 1x3d8c3861
17 37 m 1
 15 37 l 1
 15 39 l 1
 17 39 l 1
 17 37 l 1
14 41 m 1x3d1c3861
 13 41 l 1x3d1c3861
 13 42 l 1x3b1c3861
 12 42 l 1x3d9c3861
 12 43 l 1
 14 43 l 1x3b2c3861
 14 41 l 1x3d1c3861
17 41 m 1
 15 41 l 1x3d0c3861
 15 43 l 1
 17 43 l 1x3b0c3861
 17 41 l 1
23 29 m 1
 21 29 l 1
 21 31 l 1
 23 31 l 1
 23 29 l 1
23 33 m 1
 21 33 l 1
 21 35 l 1
 23 35 l 1
 23 33 l 1
31 29 m 1
 29 29 l 1
 29 31 l 1
 31 31 l 1
 31 29 l 1
31 33 m 1
 29 33 l 1
 29 35 l 1
 31 35 l 1
 31 33 l 1
36 31 m 1
 34 31 l 1
 34 33 l 1
 36 33 l 1
 36 31 l 1
23 37 m 1
 21 37 l 1
 21 39 l 1
 23 39 l 1
 23 37 l 1
23 41 m 1
 21 41 l 1x3d0c3861
 21 43 l 1
 23 43 l 1x3b0c3861
 23 41 l 1
26 41 m 1x3d0e3861
 24 41 l 1x3d0e3861
 24 43 l 1
 25 43 l 1x3b0d3861
 25 42 l 1x3d0d3861
 26 42 l 1
 26 41 l 1x3d0e3861
28 41 m 1x3d0c7861
 27 41 l 1x3d0c7861
 27 42 l 1x3b0c7861
 26 42 l 1x3d0e7861
 26 43 l 1
 28 43 l 1x3b0cb861
 28 41 l 1x3d0c7861
31 37 m 1
 29 37 l 1
 29 39 l 1
 31 39 l 1
 31 37 l 1
36 35 m 1
 34 35 l 1
 34 37 l 1
 36 37 l 1
 36 35 l 1
31 41 m 1
 29 41 l 1x3d0c3861
 29 43 l 1
 31 43 l 1x3b0c3861
 31 41 l 1
41 25 m 1xb90c3861
 39 25 l 1xb90c3861
 39 27 l 1
 41 27 l 1x790c3861
 41 25 l 1xb90c3861
44 25 m 1xb90c3c61
 42 25 l 1xb90c3c61
 42 27 l 1
 43 27 l 1x790c3a61
 43 26 l 1xb90c3a61
 44 26 l 1
 44 25 l 1xb90c3c61
46 25 m 1xb90c38e1
 45 25 l 1xb90c38e1
 45 26 l 1x790c38e1
 44 26 l 1xb90c3ce1
 44 27 l 1
 46 27 l 1x790c3961
 46 25 l 1xb90c38e1
49 25 m 1
 47 25 l 1xb90c3861
 47 27 l 1
 49 27 l 1x790c3861
 49 25 l 1
55 25 m 1
 53 25 l 1xb90c3861
 53 27 l 1
 55 27 l 1x790c3861
 55 25 l 1
58 25 m 1xb90c3871
 56 25 l 1xb90c3871
 56 27 l 1
 57 27 l 1x790c3869
 57 26 l 1xb90c3869
 58 26 l 1
 58 25 l 1xb90c3871
60 25 m 1xb90c3863
 59 25 l 1xb90c3863
 59 26 l 1x790c3863
 58 26 l 1xb90c3873
 58 27 l 1
 60 27 l 1x790c3865
 60 25 l 1xb90c3863
63 25 m 1
 61 25 l 1xb90c3861
 61 27 l 1
 63 27 l 1x790c3861
 63 25 l 1
41 29 m 1
 39 29 l 1
 39 31 l 1
 41 31 l 1
 41 29 l 1
41 33 m 1
 39 33 l 1
 39 35 l 1
 41 35 l 1
 41 33 l 1
49 29 m 1
 47 29 l 1
 47 31 l 1
 49 31 l 1
 49 29 l 1
49 33 m 1
 47 33 l 1
 47 35 l 1
 49 35 l 1
 49 33 l 1
41 37 m 1
 39 37 l 1
 39 39 l 1
 41 39 l 1
 41 37 l 1
41 41 m 1x3d0c3861
 39 41 l 1x3d0c3861
 39 43 l 1
 41 43 l 1x3b0c3861
 41 41 l 1x3d0c3861
44 41 m 1x3d0c3c61
 42 41 l 1x3d0c3c61
 42 43 l 1
 43 43 l 1x3b0c3a61
 43 42 l 1x3d0c3a61
 44 42 l 1
 44 41 l 1x3d0c3c61
49 37 m 1
 47 37 l 1
 47 39 l 1
 49 39 l 1
 49 37 l 1
46 41 m 1x3d0c38e1
 45 41 l 1x3d0c38e1
 45 42 l 1x3b0c38e1
 44 42 l 1x3d0c3ce1
 44 43 l 1
 46 43 l 1x3b0c3961
 46 41 l 1x3d0c38e1
49 41 m 1
 47 41 l 1x3d0c3861
 47 43 l 1
 49 43 l 1x3b0c3861
 49 41 l 1
55 29 m 1
 53 29 l 1
 53 31 l 1
 55 31 l 1
 55 29 l 1
55 33 m 1
 53 33 l 1
 53 35 l 1
 55 35 l 1
 55 33 l 1
63 29 m 1
 61 29 l 1
 61 31 l 1
 63 31 l 1
 63 29 l 1
63 33 m 1
 61 33 l 1
 61 35 l 1
 63 35 l 1
 63 33 l 1
55 37 m 1
 53 37 l 1
 53 39 l 1
 55 39 l 1
 55 37 l 1
55 41 m 1
 53 41 l 1x3d0c3861
 53 43 l 1
 55 43 l 1x3b0c3861
 55 41 l 1
58 41 m 1x3d0c3871
 56 41 l 1x3d0c3871
 56 43 l 1
 57 43 l 1x3b0c3869
 57 42 l 1x3d0c3869
 58 42 l 1
 58 41 l 1x3d0c3871
60 41 m 1x3d0c3863
 59 41 l 1x3d0c3863
 59 42 l 1x3b0c3863
 58 42 l 1x3d0c3873
 58 43 l 1
 60 43 l 1x3b0c3865
 60 41 l 1x3d0c3863
63 37 m 1
 61 37 l 1
 61 39 l 1
 63 39 l 1
 63 37 l 1
63 41 m 1
 61 41 l 1x3d0c3861
 61 43 l 1
 63 43 l 1x3b0c3861
 63 41 l 1
EndSplineSet
Ligature2: "'liga' Standard Ligatures in Latin lookup 0-1" zero zero zero zero zero two six
LCarets2: 1 0
EndChar

StartChar: custom_0_0_0_0_0_2_7
Encoding: 283 -1 38
Width: 70
HStem: 25 1<11 12 25 26 43 44 57 58> 26 1<12 13 26 27 44 45 58 59> 29 2<7 9 15 17 21 23 29 31 39 41 47 49 53 55 61 63> 33 2<7 9 15 17 21 23 29 31 39 41 47 49 53 55 61 63> 37 2<7 9 15 17 21 23 29 31 39 41 47 49 53 55 61 63> 41 1<11 12 25 26 43 44 57 58> 42 1<12 13 26 27 44 45 58 59>
VStem: 7 2<25 27 29 31 33 35 37 39 41 43> 10 2<25 26 41 42> 10 1<26 27 42 43> 12 2<26 27 42 43> 13 1<25 26 41 42> 15 2<25 27 29 31 33 35 37 39 41 43> 21 2<25 27 29 31 33 35 37 39 41 43> 24 2<25 26 41 42> 24 1<26 27 42 43> 26 2<26 27 42 43> 27 1<25 26 41 42> 29 2<25 27 29 31 33 35 37 39 41 43> 34 2<31 33 35 37> 39 2<25 27 29 31 33 35 37 39 41 43> 42 2<25 26 41 42> 42 1<26 27 42 43> 44 2<26 27 42 43> 45 1<25 26 41 42> 47 2<25 27 29 31 33 35 37 39 41 43> 53 2<25 27 29 31 33 35 37 39 41 43> 56 2<25 26 41 42> 56 1<26 27 42 43> 58 2<26 27 42 43> 59 1<25 26 41 42> 61 2<25 27 29 31 33 35 37 39 41 43>
LayerCount: 2
Fore
SplineSet
9 25 m 1xb90c3861
 7 25 l 1xb90c3861
 7 27 l 1
 9 27 l 1x790c3861
 9 25 l 1xb90c3861
12 25 m 1xb98c3861
 10 25 l 1xb98c3861
 10 27 l 1
 11 27 l 1x794c3861
 11 26 l 1xb94c3861
 12 26 l 1
 12 25 l 1xb98c3861
14 25 m 1xb91c3861
 13 25 l 1xb91c3861
 13 26 l 1x791c3861
 12 26 l 1xb99c3861
 12 27 l 1
 14 27 l 1x792c3861
 14 25 l 1xb91c3861
17 25 m 1
 15 25 l 1xb90c3861
 15 27 l 1
 17 27 l 1x790c3861
 17 25 l 1
23 25 m 1
 21 25 l 1xb90c3861
 21 27 l 1
 23 27 l 1x790c3861
 23 25 l 1
26 25 m 1xb90e3861
 24 25 l 1xb90e3861
 24 27 l 1
 25 27 l 1x790d3861
 25 26 l 1xb90d3861
 26 26 l 1
 26 25 l 1xb90e3861
28 25 m 1xb90c7861
 27 25 l 1xb90c7861
 27 26 l 1x790c7861
 26 26 l 1xb90e7861
 26 27 l 1
 28 27 l 1x790cb861
 28 25 l 1xb90c7861
31 25 m 1
 29 25 l 1xb90c3861
 29 27 l 1
 31 27 l 1x790c3861
 31 25 l 1
9 29 m 1
 7 29 l 1
 7 31 l 1
 9 31 l 1
 9 29 l 1
9 33 m 1
 7 33 l 1
 7 35 l 1
 9 35 l 1
 9 33 l 1
17 29 m 1
 15 29 l 1
 15 31 l 1
 17 31 l 1
 17 29 l 1
17 33 m 1
 15 33 l 1
 15 35 l 1
 17 35 l 1
 17 33 l 1
9 37 m 1
 7 37 l 1
 7 39 l 1
 9 39 l 1
 9 37 l 1
9 41 m 1x3d0c3861
 7 41 l 1x3d0c3861
 7 43 l 1
 9 43 l 1x3b0c3861
 9 41 l 1x3d0c3861
12 41 m 1x3d8c3861
 10 41 l 1x3d8c3861
 10 43 l 1
 11 43 l 1x3b4c3861
 11 42 l 1x3d4c3861
 12 42 l 1
 12 41 l 1x3d8c3861
17 37 m 1
 15 37 l 1
 15 39 l 1
 17 39 l 1
 17 37 l 1
14 41 m 1x3d1c3861
 13 41 l 1x3d1c3861
 13 42 l 1x3b1c3861
 12 42 l 1x3d9c3861
 12 43 l 1
 14 43 l 1x3b2c3861
 14 41 l 1x3d1c3861
17 41 m 1
 15 41 l 1x3d0c3861
 15 43 l 1
 17 43 l 1x3b0c3861
 17 41 l 1
23 29 m 1
 21 29 l 1
 21 31 l 1
 23 31 l 1
 23 29 l 1
23 33 m 1
 21 33 l 1
 21 35 l 1
 23 35 l 1
 23 33 l 1
31 29 m 1
 29 29 l 1
 29 31 l 1
 31 31 l 1
 31 29 l 1
31 33 m 1
 29 33 l 1
 29 35 l 1
 31 35 l 1
 31 33 l 1
36 31 m 1
 34 31 l 1
 34 33 l 1
 36 33 l 1
 36 31 l 1
23 37 m 1
 21 37 l 1
 21 39 l 1
 23 39 l 1
 23 37 l 1
23 41 m 1
 21 41 l 1x3d0c3861
 21 43 l 1
 23 43 l 1x3b0c3861
 23 41 l 1
26 41 m 1x3d0e3861
 24 41 l 1x3d0e3861
 24 43 l 1
 25 43 l 1x3b0d3861
 25 42 l 1x3d0d3861
 26 42 l 1
 26 41 l 1x3d0e3861
28 41 m 1x3d0c7861
 27 41 l 1x3d0c7861
 27 42 l 1x3b0c7861
 26 42 l 1x3d0e7861
 26 43 l 1
 28 43 l 1x3b0cb861
 28 41 l 1x3d0c7861
31 37 m 1
 29 37 l 1
 29 39 l 1
 31 39 l 1
 31 37 l 1
36 35 m 1
 34 35 l 1
 34 37 l 1
 36 37 l 1
 36 35 l 1
31 41 m 1
 29 41 l 1x3d0c3861
 29 43 l 1
 31 43 l 1x3b0c3861
 31 41 l 1
41 25 m 1xb90c3861
 39 25 l 1xb90c3861
 39 27 l 1
 41 27 l 1x790c3861
 41 25 l 1xb90c3861
44 25 m 1xb90c3c61
 42 25 l 1xb90c3c61
 42 27 l 1
 43 27 l 1x790c3a61
 43 26 l 1xb90c3a61
 44 26 l 1
 44 25 l 1xb90c3c61
46 25 m 1xb90c38e1
 45 25 l 1xb90c38e1
 45 26 l 1x790c38e1
 44 26 l 1xb90c3ce1
 44 27 l 1
 46 27 l 1x790c3961
 46 25 l 1xb90c38e1
49 25 m 1
 47 25 l 1xb90c3861
 47 27 l 1
 49 27 l 1x790c3861
 49 25 l 1
55 25 m 1
 53 25 l 1xb90c3861
 53 27 l 1
 55 27 l 1x790c3861
 55 25 l 1
58 25 m 1xb90c3871
 56 25 l 1xb90c3871
 56 27 l 1
 57 27 l 1x790c3869
 57 26 l 1xb90c3869
 58 26 l 1
 58 25 l 1xb90c3871
60 25 m 1xb90c3863
 59 25 l 1xb90c3863
 59 26 l 1x790c3863
 58 26 l 1xb90c3873
 58 27 l 1
 60 27 l 1x790c3865
 60 25 l 1xb90c3863
63 25 m 1
 61 25 l 1xb90c3861
 61 27 l 1
 63 27 l 1x790c3861
 63 25 l 1
41 29 m 1
 39 29 l 1
 39 31 l 1
 41 31 l 1
 41 29 l 1
41 33 m 1
 39 33 l 1
 39 35 l 1
 41 35 l 1
 41 33 l 1
49 29 m 1
 47 29 l 1
 47 31 l 1
 49 31 l 1
 49 29 l 1
49 33 m 1
 47 33 l 1
 47 35 l 1
 49 35 l 1
 49 33 l 1
41 37 m 1
 39 37 l 1
 39 39 l 1
 41 39 l 1
 41 37 l 1
41 41 m 1x3d0c3861
 39 41 l 1x3d0c3861
 39 43 l 1
 41 43 l 1x3b0c3861
 41 41 l 1x3d0c3861
44 41 m 1x3d0c3c61
 42 41 l 1x3d0c3c61
 42 43 l 1
 43 43 l 1x3b0c3a61
 43 42 l 1x3d0c3a61
 44 42 l 1
 44 41 l 1x3d0c3c61
49 37 m 1
 47 37 l 1
 47 39 l 1
 49 39 l 1
 49 37 l 1
46 41 m 1x3d0c38e1
 45 41 l 1x3d0c38e1
 45 42 l 1x3b0c38e1
 44 42 l 1x3d0c3ce1
 44 43 l 1
 46 43 l 1x3b0c3961
 46 41 l 1x3d0c38e1
49 41 m 1
 47 41 l 1x3d0c3861
 47 43 l 1
 49 43 l 1x3b0c3861
 49 41 l 1
55 29 m 1
 53 29 l 1
 53 31 l 1
 55 31 l 1
 55 29 l 1
55 33 m 1
 53 33 l 1
 53 35 l 1
 55 35 l 1
 55 33 l 1
63 29 m 1
 61 29 l 1
 61 31 l 1
 63 31 l 1
 63 29 l 1
63 33 m 1
 61 33 l 1
 61 35 l 1
 63 35 l 1
 63 33 l 1
55 37 m 1
 53 37 l 1
 53 39 l 1
 55 39 l 1
 55 37 l 1
55 41 m 1
 53 41 l 1x3d0c3861
 53 43 l 1
 55 43 l 1x3b0c3861
 55 41 l 1
58 41 m 1x3d0c3871
 56 41 l 1x3d0c3871
 56 43 l 1
 57 43 l 1x3b0c3869
 57 42 l 1x3d0c3869
 58 42 l 1
 58 41 l 1x3d0c3871
60 41 m 1x3d0c3863
 59 41 l 1x3d0c3863
 59 42 l 1x3b0c3863
 58 42 l 1x3d0c3873
 58 43 l 1
 60 43 l 1x3b0c3865
 60 41 l 1x3d0c3863
63 37 m 1
 61 37 l 1
 61 39 l 1
 63 39 l 1
 63 37 l 1
63 41 m 1
 61 41 l 1x3d0c3861
 61 43 l 1
 63 43 l 1x3b0c3861
 63 41 l 1
EndSplineSet
Ligature2: "'liga' Standard Ligatures in Latin lookup 0-1" zero zero zero zero zero two seven
LCarets2: 1 0
EndChar

StartChar: custom_0_0_0_0_0_2_8
Encoding: 284 -1 39
Width: 70
HStem: 25 1<11 12 25 26 43 44 57 58> 26 1<12 13 26 27 44 45 58 59> 29 2<7 9 15 17 21 23 29 31 39 41 47 49 53 55 61 63> 33 2<7 9 15 17 21 23 29 31 39 41 47 49 53 55 61 63> 37 2<7 9 15 17 21 23 29 31 39 41 47 49 53 55 61 63> 41 1<11 12 25 26 43 44 57 58> 42 1<12 13 26 27 44 45 58 59>
VStem: 7 2<25 27 29 31 33 35 37 39 41 43> 10 2<25 26 41 42> 10 1<26 27 42 43> 12 2<26 27 42 43> 13 1<25 26 41 42> 15 2<25 27 29 31 33 35 37 39 41 43> 21 2<25 27 29 31 33 35 37 39 41 43> 24 2<25 26 41 42> 24 1<26 27 42 43> 26 2<26 27 42 43> 27 1<25 26 41 42> 29 2<25 27 29 31 33 35 37 39 41 43> 34 2<31 33 35 37> 39 2<25 27 29 31 33 35 37 39 41 43> 42 2<25 26 41 42> 42 1<26 27 42 43> 44 2<26 27 42 43> 45 1<25 26 41 42> 47 2<25 27 29 31 33 35 37 39 41 43> 53 2<25 27 29 31 33 35 37 39 41 43> 56 2<25 26 41 42> 56 1<26 27 42 43> 58 2<26 27 42 43> 59 1<25 26 41 42> 61 2<25 27 29 31 33 35 37 39 41 43>
LayerCount: 2
Fore
SplineSet
9 25 m 1xb90c3861
 7 25 l 1xb90c3861
 7 27 l 1
 9 27 l 1x790c3861
 9 25 l 1xb90c3861
12 25 m 1xb98c3861
 10 25 l 1xb98c3861
 10 27 l 1
 11 27 l 1x794c3861
 11 26 l 1xb94c3861
 12 26 l 1
 12 25 l 1xb98c3861
14 25 m 1xb91c3861
 13 25 l 1xb91c3861
 13 26 l 1x791c3861
 12 26 l 1xb99c3861
 12 27 l 1
 14 27 l 1x792c3861
 14 25 l 1xb91c3861
17 25 m 1
 15 25 l 1xb90c3861
 15 27 l 1
 17 27 l 1x790c3861
 17 25 l 1
23 25 m 1
 21 25 l 1xb90c3861
 21 27 l 1
 23 27 l 1x790c3861
 23 25 l 1
26 25 m 1xb90e3861
 24 25 l 1xb90e3861
 24 27 l 1
 25 27 l 1x790d3861
 25 26 l 1xb90d3861
 26 26 l 1
 26 25 l 1xb90e3861
28 25 m 1xb90c7861
 27 25 l 1xb90c7861
 27 26 l 1x790c7861
 26 26 l 1xb90e7861
 26 27 l 1
 28 27 l 1x790cb861
 28 25 l 1xb90c7861
31 25 m 1
 29 25 l 1xb90c3861
 29 27 l 1
 31 27 l 1x790c3861
 31 25 l 1
9 29 m 1
 7 29 l 1
 7 31 l 1
 9 31 l 1
 9 29 l 1
9 33 m 1
 7 33 l 1
 7 35 l 1
 9 35 l 1
 9 33 l 1
17 29 m 1
 15 29 l 1
 15 31 l 1
 17 31 l 1
 17 29 l 1
17 33 m 1
 15 33 l 1
 15 35 l 1
 17 35 l 1
 17 33 l 1
9 37 m 1
 7 37 l 1
 7 39 l 1
 9 39 l 1
 9 37 l 1
9 41 m 1x3d0c3861
 7 41 l 1x3d0c3861
 7 43 l 1
 9 43 l 1x3b0c3861
 9 41 l 1x3d0c3861
12 41 m 1x3d8c3861
 10 41 l 1x3d8c3861
 10 43 l 1
 11 43 l 1x3b4c3861
 11 42 l 1x3d4c3861
 12 42 l 1
 12 41 l 1x3d8c3861
17 37 m 1
 15 37 l 1
 15 39 l 1
 17 39 l 1
 17 37 l 1
14 41 m 1x3d1c3861
 13 41 l 1x3d1c3861
 13 42 l 1x3b1c3861
 12 42 l 1x3d9c3861
 12 43 l 1
 14 43 l 1x3b2c3861
 14 41 l 1x3d1c3861
17 41 m 1
 15 41 l 1x3d0c3861
 15 43 l 1
 17 43 l 1x3b0c3861
 17 41 l 1
23 29 m 1
 21 29 l 1
 21 31 l 1
 23 31 l 1
 23 29 l 1
23 33 m 1
 21 33 l 1
 21 35 l 1
 23 35 l 1
 23 33 l 1
31 29 m 1
 29 29 l 1
 29 31 l 1
 31 31 l 1
 31 29 l 1
31 33 m 1
 29 33 l 1
 29 35 l 1
 31 35 l 1
 31 33 l 1
36 31 m 1
 34 31 l 1
 34 33 l 1
 36 33 l 1
 36 31 l 1
23 37 m 1
 21 37 l 1
 21 39 l 1
 23 39 l 1
 23 37 l 1
23 41 m 1
 21 41 l 1x3d0c3861
 21 43 l 1
 23 43 l 1x3b0c3861
 23 41 l 1
26 41 m 1x3d0e3861
 24 41 l 1x3d0e3861
 24 43 l 1
 25 43 l 1x3b0d3861
 25 42 l 1x3d0d3861
 26 42 l 1
 26 41 l 1x3d0e3861
28 41 m 1x3d0c7861
 27 41 l 1x3d0c7861
 27 42 l 1x3b0c7861
 26 42 l 1x3d0e7861
 26 43 l 1
 28 43 l 1x3b0cb861
 28 41 l 1x3d0c7861
31 37 m 1
 29 37 l 1
 29 39 l 1
 31 39 l 1
 31 37 l 1
36 35 m 1
 34 35 l 1
 34 37 l 1
 36 37 l 1
 36 35 l 1
31 41 m 1
 29 41 l 1x3d0c3861
 29 43 l 1
 31 43 l 1x3b0c3861
 31 41 l 1
41 25 m 1xb90c3861
 39 25 l 1xb90c3861
 39 27 l 1
 41 27 l 1x790c3861
 41 25 l 1xb90c3861
44 25 m 1xb90c3c61
 42 25 l 1xb90c3c61
 42 27 l 1
 43 27 l 1x790c3a61
 43 26 l 1xb90c3a61
 44 26 l 1
 44 25 l 1xb90c3c61
46 25 m 1xb90c38e1
 45 25 l 1xb90c38e1
 45 26 l 1x790c38e1
 44 26 l 1xb90c3ce1
 44 27 l 1
 46 27 l 1x790c3961
 46 25 l 1xb90c38e1
49 25 m 1
 47 25 l 1xb90c3861
 47 27 l 1
 49 27 l 1x790c3861
 49 25 l 1
55 25 m 1
 53 25 l 1xb90c3861
 53 27 l 1
 55 27 l 1x790c3861
 55 25 l 1
58 25 m 1xb90c3871
 56 25 l 1xb90c3871
 56 27 l 1
 57 27 l 1x790c3869
 57 26 l 1xb90c3869
 58 26 l 1
 58 25 l 1xb90c3871
60 25 m 1xb90c3863
 59 25 l 1xb90c3863
 59 26 l 1x790c3863
 58 26 l 1xb90c3873
 58 27 l 1
 60 27 l 1x790c3865
 60 25 l 1xb90c3863
63 25 m 1
 61 25 l 1xb90c3861
 61 27 l 1
 63 27 l 1x790c3861
 63 25 l 1
41 29 m 1
 39 29 l 1
 39 31 l 1
 41 31 l 1
 41 29 l 1
41 33 m 1
 39 33 l 1
 39 35 l 1
 41 35 l 1
 41 33 l 1
49 29 m 1
 47 29 l 1
 47 31 l 1
 49 31 l 1
 49 29 l 1
49 33 m 1
 47 33 l 1
 47 35 l 1
 49 35 l 1
 49 33 l 1
41 37 m 1
 39 37 l 1
 39 39 l 1
 41 39 l 1
 41 37 l 1
41 41 m 1x3d0c3861
 39 41 l 1x3d0c3861
 39 43 l 1
 41 43 l 1x3b0c3861
 41 41 l 1x3d0c3861
44 41 m 1x3d0c3c61
 42 41 l 1x3d0c3c61
 42 43 l 1
 43 43 l 1x3b0c3a61
 43 42 l 1x3d0c3a61
 44 42 l 1
 44 41 l 1x3d0c3c61
49 37 m 1
 47 37 l 1
 47 39 l 1
 49 39 l 1
 49 37 l 1
46 41 m 1x3d0c38e1
 45 41 l 1x3d0c38e1
 45 42 l 1x3b0c38e1
 44 42 l 1x3d0c3ce1
 44 43 l 1
 46 43 l 1x3b0c3961
 46 41 l 1x3d0c38e1
49 41 m 1
 47 41 l 1x3d0c3861
 47 43 l 1
 49 43 l 1x3b0c3861
 49 41 l 1
55 29 m 1
 53 29 l 1
 53 31 l 1
 55 31 l 1
 55 29 l 1
55 33 m 1
 53 33 l 1
 53 35 l 1
 55 35 l 1
 55 33 l 1
63 29 m 1
 61 29 l 1
 61 31 l 1
 63 31 l 1
 63 29 l 1
63 33 m 1
 61 33 l 1
 61 35 l 1
 63 35 l 1
 63 33 l 1
55 37 m 1
 53 37 l 1
 53 39 l 1
 55 39 l 1
 55 37 l 1
55 41 m 1
 53 41 l 1x3d0c3861
 53 43 l 1
 55 43 l 1x3b0c3861
 55 41 l 1
58 41 m 1x3d0c3871
 56 41 l 1x3d0c3871
 56 43 l 1
 57 43 l 1x3b0c3869
 57 42 l 1x3d0c3869
 58 42 l 1
 58 41 l 1x3d0c3871
60 41 m 1x3d0c3863
 59 41 l 1x3d0c3863
 59 42 l 1x3b0c3863
 58 42 l 1x3d0c3873
 58 43 l 1
 60 43 l 1x3b0c3865
 60 41 l 1x3d0c3863
63 37 m 1
 61 37 l 1
 61 39 l 1
 63 39 l 1
 63 37 l 1
63 41 m 1
 61 41 l 1x3d0c3861
 61 43 l 1
 63 43 l 1x3b0c3861
 63 41 l 1
EndSplineSet
Ligature2: "'liga' Standard Ligatures in Latin lookup 0-1" zero zero zero zero zero two eight
LCarets2: 1 0
EndChar

StartChar: custom_0_0_0_0_0_2_9
Encoding: 285 -1 40
Width: 70
HStem: 25 1<11 12 25 26 43 44 57 58> 26 1<12 13 26 27 44 45 58 59> 29 2<7 9 15 17 21 23 29 31 39 41 47 49 53 55 61 63> 33 2<7 9 15 17 21 23 29 31 39 41 47 49 53 55 61 63> 37 2<7 9 15 17 21 23 29 31 39 41 47 49 53 55 61 63> 41 1<11 12 25 26 43 44 57 58> 42 1<12 13 26 27 44 45 58 59>
VStem: 7 2<25 27 29 31 33 35 37 39 41 43> 10 2<25 26 41 42> 10 1<26 27 42 43> 12 2<26 27 42 43> 13 1<25 26 41 42> 15 2<25 27 29 31 33 35 37 39 41 43> 21 2<25 27 29 31 33 35 37 39 41 43> 24 2<25 26 41 42> 24 1<26 27 42 43> 26 2<26 27 42 43> 27 1<25 26 41 42> 29 2<25 27 29 31 33 35 37 39 41 43> 34 2<31 33 35 37> 39 2<25 27 29 31 33 35 37 39 41 43> 42 2<25 26 41 42> 42 1<26 27 42 43> 44 2<26 27 42 43> 45 1<25 26 41 42> 47 2<25 27 29 31 33 35 37 39 41 43> 53 2<25 27 29 31 33 35 37 39 41 43> 56 2<25 26 41 42> 56 1<26 27 42 43> 58 2<26 27 42 43> 59 1<25 26 41 42> 61 2<25 27 29 31 33 35 37 39 41 43>
LayerCount: 2
Fore
SplineSet
9 25 m 1xb90c3861
 7 25 l 1xb90c3861
 7 27 l 1
 9 27 l 1x790c3861
 9 25 l 1xb90c3861
12 25 m 1xb98c3861
 10 25 l 1xb98c3861
 10 27 l 1
 11 27 l 1x794c3861
 11 26 l 1xb94c3861
 12 26 l 1
 12 25 l 1xb98c3861
14 25 m 1xb91c3861
 13 25 l 1xb91c3861
 13 26 l 1x791c3861
 12 26 l 1xb99c3861
 12 27 l 1
 14 27 l 1x792c3861
 14 25 l 1xb91c3861
17 25 m 1
 15 25 l 1xb90c3861
 15 27 l 1
 17 27 l 1x790c3861
 17 25 l 1
23 25 m 1
 21 25 l 1xb90c3861
 21 27 l 1
 23 27 l 1x790c3861
 23 25 l 1
26 25 m 1xb90e3861
 24 25 l 1xb90e3861
 24 27 l 1
 25 27 l 1x790d3861
 25 26 l 1xb90d3861
 26 26 l 1
 26 25 l 1xb90e3861
28 25 m 1xb90c7861
 27 25 l 1xb90c7861
 27 26 l 1x790c7861
 26 26 l 1xb90e7861
 26 27 l 1
 28 27 l 1x790cb861
 28 25 l 1xb90c7861
31 25 m 1
 29 25 l 1xb90c3861
 29 27 l 1
 31 27 l 1x790c3861
 31 25 l 1
9 29 m 1
 7 29 l 1
 7 31 l 1
 9 31 l 1
 9 29 l 1
9 33 m 1
 7 33 l 1
 7 35 l 1
 9 35 l 1
 9 33 l 1
17 29 m 1
 15 29 l 1
 15 31 l 1
 17 31 l 1
 17 29 l 1
17 33 m 1
 15 33 l 1
 15 35 l 1
 17 35 l 1
 17 33 l 1
9 37 m 1
 7 37 l 1
 7 39 l 1
 9 39 l 1
 9 37 l 1
9 41 m 1x3d0c3861
 7 41 l 1x3d0c3861
 7 43 l 1
 9 43 l 1x3b0c3861
 9 41 l 1x3d0c3861
12 41 m 1x3d8c3861
 10 41 l 1x3d8c3861
 10 43 l 1
 11 43 l 1x3b4c3861
 11 42 l 1x3d4c3861
 12 42 l 1
 12 41 l 1x3d8c3861
17 37 m 1
 15 37 l 1
 15 39 l 1
 17 39 l 1
 17 37 l 1
14 41 m 1x3d1c3861
 13 41 l 1x3d1c3861
 13 42 l 1x3b1c3861
 12 42 l 1x3d9c3861
 12 43 l 1
 14 43 l 1x3b2c3861
 14 41 l 1x3d1c3861
17 41 m 1
 15 41 l 1x3d0c3861
 15 43 l 1
 17 43 l 1x3b0c3861
 17 41 l 1
23 29 m 1
 21 29 l 1
 21 31 l 1
 23 31 l 1
 23 29 l 1
23 33 m 1
 21 33 l 1
 21 35 l 1
 23 35 l 1
 23 33 l 1
31 29 m 1
 29 29 l 1
 29 31 l 1
 31 31 l 1
 31 29 l 1
31 33 m 1
 29 33 l 1
 29 35 l 1
 31 35 l 1
 31 33 l 1
36 31 m 1
 34 31 l 1
 34 33 l 1
 36 33 l 1
 36 31 l 1
23 37 m 1
 21 37 l 1
 21 39 l 1
 23 39 l 1
 23 37 l 1
23 41 m 1
 21 41 l 1x3d0c3861
 21 43 l 1
 23 43 l 1x3b0c3861
 23 41 l 1
26 41 m 1x3d0e3861
 24 41 l 1x3d0e3861
 24 43 l 1
 25 43 l 1x3b0d3861
 25 42 l 1x3d0d3861
 26 42 l 1
 26 41 l 1x3d0e3861
28 41 m 1x3d0c7861
 27 41 l 1x3d0c7861
 27 42 l 1x3b0c7861
 26 42 l 1x3d0e7861
 26 43 l 1
 28 43 l 1x3b0cb861
 28 41 l 1x3d0c7861
31 37 m 1
 29 37 l 1
 29 39 l 1
 31 39 l 1
 31 37 l 1
36 35 m 1
 34 35 l 1
 34 37 l 1
 36 37 l 1
 36 35 l 1
31 41 m 1
 29 41 l 1x3d0c3861
 29 43 l 1
 31 43 l 1x3b0c3861
 31 41 l 1
41 25 m 1xb90c3861
 39 25 l 1xb90c3861
 39 27 l 1
 41 27 l 1x790c3861
 41 25 l 1xb90c3861
44 25 m 1xb90c3c61
 42 25 l 1xb90c3c61
 42 27 l 1
 43 27 l 1x790c3a61
 43 26 l 1xb90c3a61
 44 26 l 1
 44 25 l 1xb90c3c61
46 25 m 1xb90c38e1
 45 25 l 1xb90c38e1
 45 26 l 1x790c38e1
 44 26 l 1xb90c3ce1
 44 27 l 1
 46 27 l 1x790c3961
 46 25 l 1xb90c38e1
49 25 m 1
 47 25 l 1xb90c3861
 47 27 l 1
 49 27 l 1x790c3861
 49 25 l 1
55 25 m 1
 53 25 l 1xb90c3861
 53 27 l 1
 55 27 l 1x790c3861
 55 25 l 1
58 25 m 1xb90c3871
 56 25 l 1xb90c3871
 56 27 l 1
 57 27 l 1x790c3869
 57 26 l 1xb90c3869
 58 26 l 1
 58 25 l 1xb90c3871
60 25 m 1xb90c3863
 59 25 l 1xb90c3863
 59 26 l 1x790c3863
 58 26 l 1xb90c3873
 58 27 l 1
 60 27 l 1x790c3865
 60 25 l 1xb90c3863
63 25 m 1
 61 25 l 1xb90c3861
 61 27 l 1
 63 27 l 1x790c3861
 63 25 l 1
41 29 m 1
 39 29 l 1
 39 31 l 1
 41 31 l 1
 41 29 l 1
41 33 m 1
 39 33 l 1
 39 35 l 1
 41 35 l 1
 41 33 l 1
49 29 m 1
 47 29 l 1
 47 31 l 1
 49 31 l 1
 49 29 l 1
49 33 m 1
 47 33 l 1
 47 35 l 1
 49 35 l 1
 49 33 l 1
41 37 m 1
 39 37 l 1
 39 39 l 1
 41 39 l 1
 41 37 l 1
41 41 m 1x3d0c3861
 39 41 l 1x3d0c3861
 39 43 l 1
 41 43 l 1x3b0c3861
 41 41 l 1x3d0c3861
44 41 m 1x3d0c3c61
 42 41 l 1x3d0c3c61
 42 43 l 1
 43 43 l 1x3b0c3a61
 43 42 l 1x3d0c3a61
 44 42 l 1
 44 41 l 1x3d0c3c61
49 37 m 1
 47 37 l 1
 47 39 l 1
 49 39 l 1
 49 37 l 1
46 41 m 1x3d0c38e1
 45 41 l 1x3d0c38e1
 45 42 l 1x3b0c38e1
 44 42 l 1x3d0c3ce1
 44 43 l 1
 46 43 l 1x3b0c3961
 46 41 l 1x3d0c38e1
49 41 m 1
 47 41 l 1x3d0c3861
 47 43 l 1
 49 43 l 1x3b0c3861
 49 41 l 1
55 29 m 1
 53 29 l 1
 53 31 l 1
 55 31 l 1
 55 29 l 1
55 33 m 1
 53 33 l 1
 53 35 l 1
 55 35 l 1
 55 33 l 1
63 29 m 1
 61 29 l 1
 61 31 l 1
 63 31 l 1
 63 29 l 1
63 33 m 1
 61 33 l 1
 61 35 l 1
 63 35 l 1
 63 33 l 1
55 37 m 1
 53 37 l 1
 53 39 l 1
 55 39 l 1
 55 37 l 1
55 41 m 1
 53 41 l 1x3d0c3861
 53 43 l 1
 55 43 l 1x3b0c3861
 55 41 l 1
58 41 m 1x3d0c3871
 56 41 l 1x3d0c3871
 56 43 l 1
 57 43 l 1x3b0c3869
 57 42 l 1x3d0c3869
 58 42 l 1
 58 41 l 1x3d0c3871
60 41 m 1x3d0c3863
 59 41 l 1x3d0c3863
 59 42 l 1x3b0c3863
 58 42 l 1x3d0c3873
 58 43 l 1
 60 43 l 1x3b0c3865
 60 41 l 1x3d0c3863
63 37 m 1
 61 37 l 1
 61 39 l 1
 63 39 l 1
 63 37 l 1
63 41 m 1
 61 41 l 1x3d0c3861
 61 43 l 1
 63 43 l 1x3b0c3861
 63 41 l 1
EndSplineSet
Ligature2: "'liga' Standard Ligatures in Latin lookup 0-1" zero zero zero zero zero two nine
LCarets2: 1 0
EndChar

StartChar: custom_0_0_0_0_0_3_0
Encoding: 286 -1 41
Width: 70
HStem: 25 1<11 12 25 26 43 44 57 58> 26 1<12 13 26 27 44 45 58 59> 29 2<7 9 15 17 21 23 29 31 39 41 47 49 53 55 61 63> 33 2<7 9 15 17 21 23 29 31 39 41 47 49 53 55 61 63> 37 2<7 9 15 17 21 23 29 31 39 41 47 49 53 55 61 63> 41 1<11 12 25 26 43 44 57 58> 42 1<12 13 26 27 44 45 58 59>
VStem: 7 2<25 27 29 31 33 35 37 39 41 43> 10 2<25 26 41 42> 10 1<26 27 42 43> 12 2<26 27 42 43> 13 1<25 26 41 42> 15 2<25 27 29 31 33 35 37 39 41 43> 21 2<25 27 29 31 33 35 37 39 41 43> 24 2<25 26 41 42> 24 1<26 27 42 43> 26 2<26 27 42 43> 27 1<25 26 41 42> 29 2<25 27 29 31 33 35 37 39 41 43> 34 2<31 33 35 37> 39 2<25 27 29 31 33 35 37 39 41 43> 42 2<25 26 41 42> 42 1<26 27 42 43> 44 2<26 27 42 43> 45 1<25 26 41 42> 47 2<25 27 29 31 33 35 37 39 41 43> 53 2<25 27 29 31 33 35 37 39 41 43> 56 2<25 26 41 42> 56 1<26 27 42 43> 58 2<26 27 42 43> 59 1<25 26 41 42> 61 2<25 27 29 31 33 35 37 39 41 43>
LayerCount: 2
Fore
SplineSet
9 25 m 1xb90c3861
 7 25 l 1xb90c3861
 7 27 l 1
 9 27 l 1x790c3861
 9 25 l 1xb90c3861
12 25 m 1xb98c3861
 10 25 l 1xb98c3861
 10 27 l 1
 11 27 l 1x794c3861
 11 26 l 1xb94c3861
 12 26 l 1
 12 25 l 1xb98c3861
14 25 m 1xb91c3861
 13 25 l 1xb91c3861
 13 26 l 1x791c3861
 12 26 l 1xb99c3861
 12 27 l 1
 14 27 l 1x792c3861
 14 25 l 1xb91c3861
17 25 m 1
 15 25 l 1xb90c3861
 15 27 l 1
 17 27 l 1x790c3861
 17 25 l 1
23 25 m 1
 21 25 l 1xb90c3861
 21 27 l 1
 23 27 l 1x790c3861
 23 25 l 1
26 25 m 1xb90e3861
 24 25 l 1xb90e3861
 24 27 l 1
 25 27 l 1x790d3861
 25 26 l 1xb90d3861
 26 26 l 1
 26 25 l 1xb90e3861
28 25 m 1xb90c7861
 27 25 l 1xb90c7861
 27 26 l 1x790c7861
 26 26 l 1xb90e7861
 26 27 l 1
 28 27 l 1x790cb861
 28 25 l 1xb90c7861
31 25 m 1
 29 25 l 1xb90c3861
 29 27 l 1
 31 27 l 1x790c3861
 31 25 l 1
9 29 m 1
 7 29 l 1
 7 31 l 1
 9 31 l 1
 9 29 l 1
9 33 m 1
 7 33 l 1
 7 35 l 1
 9 35 l 1
 9 33 l 1
17 29 m 1
 15 29 l 1
 15 31 l 1
 17 31 l 1
 17 29 l 1
17 33 m 1
 15 33 l 1
 15 35 l 1
 17 35 l 1
 17 33 l 1
9 37 m 1
 7 37 l 1
 7 39 l 1
 9 39 l 1
 9 37 l 1
9 41 m 1x3d0c3861
 7 41 l 1x3d0c3861
 7 43 l 1
 9 43 l 1x3b0c3861
 9 41 l 1x3d0c3861
12 41 m 1x3d8c3861
 10 41 l 1x3d8c3861
 10 43 l 1
 11 43 l 1x3b4c3861
 11 42 l 1x3d4c3861
 12 42 l 1
 12 41 l 1x3d8c3861
17 37 m 1
 15 37 l 1
 15 39 l 1
 17 39 l 1
 17 37 l 1
14 41 m 1x3d1c3861
 13 41 l 1x3d1c3861
 13 42 l 1x3b1c3861
 12 42 l 1x3d9c3861
 12 43 l 1
 14 43 l 1x3b2c3861
 14 41 l 1x3d1c3861
17 41 m 1
 15 41 l 1x3d0c3861
 15 43 l 1
 17 43 l 1x3b0c3861
 17 41 l 1
23 29 m 1
 21 29 l 1
 21 31 l 1
 23 31 l 1
 23 29 l 1
23 33 m 1
 21 33 l 1
 21 35 l 1
 23 35 l 1
 23 33 l 1
31 29 m 1
 29 29 l 1
 29 31 l 1
 31 31 l 1
 31 29 l 1
31 33 m 1
 29 33 l 1
 29 35 l 1
 31 35 l 1
 31 33 l 1
36 31 m 1
 34 31 l 1
 34 33 l 1
 36 33 l 1
 36 31 l 1
23 37 m 1
 21 37 l 1
 21 39 l 1
 23 39 l 1
 23 37 l 1
23 41 m 1
 21 41 l 1x3d0c3861
 21 43 l 1
 23 43 l 1x3b0c3861
 23 41 l 1
26 41 m 1x3d0e3861
 24 41 l 1x3d0e3861
 24 43 l 1
 25 43 l 1x3b0d3861
 25 42 l 1x3d0d3861
 26 42 l 1
 26 41 l 1x3d0e3861
28 41 m 1x3d0c7861
 27 41 l 1x3d0c7861
 27 42 l 1x3b0c7861
 26 42 l 1x3d0e7861
 26 43 l 1
 28 43 l 1x3b0cb861
 28 41 l 1x3d0c7861
31 37 m 1
 29 37 l 1
 29 39 l 1
 31 39 l 1
 31 37 l 1
36 35 m 1
 34 35 l 1
 34 37 l 1
 36 37 l 1
 36 35 l 1
31 41 m 1
 29 41 l 1x3d0c3861
 29 43 l 1
 31 43 l 1x3b0c3861
 31 41 l 1
41 25 m 1xb90c3861
 39 25 l 1xb90c3861
 39 27 l 1
 41 27 l 1x790c3861
 41 25 l 1xb90c3861
44 25 m 1xb90c3c61
 42 25 l 1xb90c3c61
 42 27 l 1
 43 27 l 1x790c3a61
 43 26 l 1xb90c3a61
 44 26 l 1
 44 25 l 1xb90c3c61
46 25 m 1xb90c38e1
 45 25 l 1xb90c38e1
 45 26 l 1x790c38e1
 44 26 l 1xb90c3ce1
 44 27 l 1
 46 27 l 1x790c3961
 46 25 l 1xb90c38e1
49 25 m 1
 47 25 l 1xb90c3861
 47 27 l 1
 49 27 l 1x790c3861
 49 25 l 1
55 25 m 1
 53 25 l 1xb90c3861
 53 27 l 1
 55 27 l 1x790c3861
 55 25 l 1
58 25 m 1xb90c3871
 56 25 l 1xb90c3871
 56 27 l 1
 57 27 l 1x790c3869
 57 26 l 1xb90c3869
 58 26 l 1
 58 25 l 1xb90c3871
60 25 m 1xb90c3863
 59 25 l 1xb90c3863
 59 26 l 1x790c3863
 58 26 l 1xb90c3873
 58 27 l 1
 60 27 l 1x790c3865
 60 25 l 1xb90c3863
63 25 m 1
 61 25 l 1xb90c3861
 61 27 l 1
 63 27 l 1x790c3861
 63 25 l 1
41 29 m 1
 39 29 l 1
 39 31 l 1
 41 31 l 1
 41 29 l 1
41 33 m 1
 39 33 l 1
 39 35 l 1
 41 35 l 1
 41 33 l 1
49 29 m 1
 47 29 l 1
 47 31 l 1
 49 31 l 1
 49 29 l 1
49 33 m 1
 47 33 l 1
 47 35 l 1
 49 35 l 1
 49 33 l 1
41 37 m 1
 39 37 l 1
 39 39 l 1
 41 39 l 1
 41 37 l 1
41 41 m 1x3d0c3861
 39 41 l 1x3d0c3861
 39 43 l 1
 41 43 l 1x3b0c3861
 41 41 l 1x3d0c3861
44 41 m 1x3d0c3c61
 42 41 l 1x3d0c3c61
 42 43 l 1
 43 43 l 1x3b0c3a61
 43 42 l 1x3d0c3a61
 44 42 l 1
 44 41 l 1x3d0c3c61
49 37 m 1
 47 37 l 1
 47 39 l 1
 49 39 l 1
 49 37 l 1
46 41 m 1x3d0c38e1
 45 41 l 1x3d0c38e1
 45 42 l 1x3b0c38e1
 44 42 l 1x3d0c3ce1
 44 43 l 1
 46 43 l 1x3b0c3961
 46 41 l 1x3d0c38e1
49 41 m 1
 47 41 l 1x3d0c3861
 47 43 l 1
 49 43 l 1x3b0c3861
 49 41 l 1
55 29 m 1
 53 29 l 1
 53 31 l 1
 55 31 l 1
 55 29 l 1
55 33 m 1
 53 33 l 1
 53 35 l 1
 55 35 l 1
 55 33 l 1
63 29 m 1
 61 29 l 1
 61 31 l 1
 63 31 l 1
 63 29 l 1
63 33 m 1
 61 33 l 1
 61 35 l 1
 63 35 l 1
 63 33 l 1
55 37 m 1
 53 37 l 1
 53 39 l 1
 55 39 l 1
 55 37 l 1
55 41 m 1
 53 41 l 1x3d0c3861
 53 43 l 1
 55 43 l 1x3b0c3861
 55 41 l 1
58 41 m 1x3d0c3871
 56 41 l 1x3d0c3871
 56 43 l 1
 57 43 l 1x3b0c3869
 57 42 l 1x3d0c3869
 58 42 l 1
 58 41 l 1x3d0c3871
60 41 m 1x3d0c3863
 59 41 l 1x3d0c3863
 59 42 l 1x3b0c3863
 58 42 l 1x3d0c3873
 58 43 l 1
 60 43 l 1x3b0c3865
 60 41 l 1x3d0c3863
63 37 m 1
 61 37 l 1
 61 39 l 1
 63 39 l 1
 63 37 l 1
63 41 m 1
 61 41 l 1x3d0c3861
 61 43 l 1
 63 43 l 1x3b0c3861
 63 41 l 1
EndSplineSet
Ligature2: "'liga' Standard Ligatures in Latin lookup 0-1" zero zero zero zero zero three zero
LCarets2: 1 0
EndChar

StartChar: custom_0_0_0_0_0_3_1
Encoding: 287 -1 42
Width: 70
HStem: 25 1<11 12 25 26 43 44 57 58> 26 1<12 13 26 27 44 45 58 59> 29 2<7 9 15 17 21 23 29 31 39 41 47 49 53 55 61 63> 33 2<7 9 15 17 21 23 29 31 39 41 47 49 53 55 61 63> 37 2<7 9 15 17 21 23 29 31 39 41 47 49 53 55 61 63> 41 1<11 12 25 26 43 44 57 58> 42 1<12 13 26 27 44 45 58 59>
VStem: 7 2<25 27 29 31 33 35 37 39 41 43> 10 2<25 26 41 42> 10 1<26 27 42 43> 12 2<26 27 42 43> 13 1<25 26 41 42> 15 2<25 27 29 31 33 35 37 39 41 43> 21 2<25 27 29 31 33 35 37 39 41 43> 24 2<25 26 41 42> 24 1<26 27 42 43> 26 2<26 27 42 43> 27 1<25 26 41 42> 29 2<25 27 29 31 33 35 37 39 41 43> 34 2<31 33 35 37> 39 2<25 27 29 31 33 35 37 39 41 43> 42 2<25 26 41 42> 42 1<26 27 42 43> 44 2<26 27 42 43> 45 1<25 26 41 42> 47 2<25 27 29 31 33 35 37 39 41 43> 53 2<25 27 29 31 33 35 37 39 41 43> 56 2<25 26 41 42> 56 1<26 27 42 43> 58 2<26 27 42 43> 59 1<25 26 41 42> 61 2<25 27 29 31 33 35 37 39 41 43>
LayerCount: 2
Fore
SplineSet
9 25 m 1xb90c3861
 7 25 l 1xb90c3861
 7 27 l 1
 9 27 l 1x790c3861
 9 25 l 1xb90c3861
12 25 m 1xb98c3861
 10 25 l 1xb98c3861
 10 27 l 1
 11 27 l 1x794c3861
 11 26 l 1xb94c3861
 12 26 l 1
 12 25 l 1xb98c3861
14 25 m 1xb91c3861
 13 25 l 1xb91c3861
 13 26 l 1x791c3861
 12 26 l 1xb99c3861
 12 27 l 1
 14 27 l 1x792c3861
 14 25 l 1xb91c3861
17 25 m 1
 15 25 l 1xb90c3861
 15 27 l 1
 17 27 l 1x790c3861
 17 25 l 1
23 25 m 1
 21 25 l 1xb90c3861
 21 27 l 1
 23 27 l 1x790c3861
 23 25 l 1
26 25 m 1xb90e3861
 24 25 l 1xb90e3861
 24 27 l 1
 25 27 l 1x790d3861
 25 26 l 1xb90d3861
 26 26 l 1
 26 25 l 1xb90e3861
28 25 m 1xb90c7861
 27 25 l 1xb90c7861
 27 26 l 1x790c7861
 26 26 l 1xb90e7861
 26 27 l 1
 28 27 l 1x790cb861
 28 25 l 1xb90c7861
31 25 m 1
 29 25 l 1xb90c3861
 29 27 l 1
 31 27 l 1x790c3861
 31 25 l 1
9 29 m 1
 7 29 l 1
 7 31 l 1
 9 31 l 1
 9 29 l 1
9 33 m 1
 7 33 l 1
 7 35 l 1
 9 35 l 1
 9 33 l 1
17 29 m 1
 15 29 l 1
 15 31 l 1
 17 31 l 1
 17 29 l 1
17 33 m 1
 15 33 l 1
 15 35 l 1
 17 35 l 1
 17 33 l 1
9 37 m 1
 7 37 l 1
 7 39 l 1
 9 39 l 1
 9 37 l 1
9 41 m 1x3d0c3861
 7 41 l 1x3d0c3861
 7 43 l 1
 9 43 l 1x3b0c3861
 9 41 l 1x3d0c3861
12 41 m 1x3d8c3861
 10 41 l 1x3d8c3861
 10 43 l 1
 11 43 l 1x3b4c3861
 11 42 l 1x3d4c3861
 12 42 l 1
 12 41 l 1x3d8c3861
17 37 m 1
 15 37 l 1
 15 39 l 1
 17 39 l 1
 17 37 l 1
14 41 m 1x3d1c3861
 13 41 l 1x3d1c3861
 13 42 l 1x3b1c3861
 12 42 l 1x3d9c3861
 12 43 l 1
 14 43 l 1x3b2c3861
 14 41 l 1x3d1c3861
17 41 m 1
 15 41 l 1x3d0c3861
 15 43 l 1
 17 43 l 1x3b0c3861
 17 41 l 1
23 29 m 1
 21 29 l 1
 21 31 l 1
 23 31 l 1
 23 29 l 1
23 33 m 1
 21 33 l 1
 21 35 l 1
 23 35 l 1
 23 33 l 1
31 29 m 1
 29 29 l 1
 29 31 l 1
 31 31 l 1
 31 29 l 1
31 33 m 1
 29 33 l 1
 29 35 l 1
 31 35 l 1
 31 33 l 1
36 31 m 1
 34 31 l 1
 34 33 l 1
 36 33 l 1
 36 31 l 1
23 37 m 1
 21 37 l 1
 21 39 l 1
 23 39 l 1
 23 37 l 1
23 41 m 1
 21 41 l 1x3d0c3861
 21 43 l 1
 23 43 l 1x3b0c3861
 23 41 l 1
26 41 m 1x3d0e3861
 24 41 l 1x3d0e3861
 24 43 l 1
 25 43 l 1x3b0d3861
 25 42 l 1x3d0d3861
 26 42 l 1
 26 41 l 1x3d0e3861
28 41 m 1x3d0c7861
 27 41 l 1x3d0c7861
 27 42 l 1x3b0c7861
 26 42 l 1x3d0e7861
 26 43 l 1
 28 43 l 1x3b0cb861
 28 41 l 1x3d0c7861
31 37 m 1
 29 37 l 1
 29 39 l 1
 31 39 l 1
 31 37 l 1
36 35 m 1
 34 35 l 1
 34 37 l 1
 36 37 l 1
 36 35 l 1
31 41 m 1
 29 41 l 1x3d0c3861
 29 43 l 1
 31 43 l 1x3b0c3861
 31 41 l 1
41 25 m 1xb90c3861
 39 25 l 1xb90c3861
 39 27 l 1
 41 27 l 1x790c3861
 41 25 l 1xb90c3861
44 25 m 1xb90c3c61
 42 25 l 1xb90c3c61
 42 27 l 1
 43 27 l 1x790c3a61
 43 26 l 1xb90c3a61
 44 26 l 1
 44 25 l 1xb90c3c61
46 25 m 1xb90c38e1
 45 25 l 1xb90c38e1
 45 26 l 1x790c38e1
 44 26 l 1xb90c3ce1
 44 27 l 1
 46 27 l 1x790c3961
 46 25 l 1xb90c38e1
49 25 m 1
 47 25 l 1xb90c3861
 47 27 l 1
 49 27 l 1x790c3861
 49 25 l 1
55 25 m 1
 53 25 l 1xb90c3861
 53 27 l 1
 55 27 l 1x790c3861
 55 25 l 1
58 25 m 1xb90c3871
 56 25 l 1xb90c3871
 56 27 l 1
 57 27 l 1x790c3869
 57 26 l 1xb90c3869
 58 26 l 1
 58 25 l 1xb90c3871
60 25 m 1xb90c3863
 59 25 l 1xb90c3863
 59 26 l 1x790c3863
 58 26 l 1xb90c3873
 58 27 l 1
 60 27 l 1x790c3865
 60 25 l 1xb90c3863
63 25 m 1
 61 25 l 1xb90c3861
 61 27 l 1
 63 27 l 1x790c3861
 63 25 l 1
41 29 m 1
 39 29 l 1
 39 31 l 1
 41 31 l 1
 41 29 l 1
41 33 m 1
 39 33 l 1
 39 35 l 1
 41 35 l 1
 41 33 l 1
49 29 m 1
 47 29 l 1
 47 31 l 1
 49 31 l 1
 49 29 l 1
49 33 m 1
 47 33 l 1
 47 35 l 1
 49 35 l 1
 49 33 l 1
41 37 m 1
 39 37 l 1
 39 39 l 1
 41 39 l 1
 41 37 l 1
41 41 m 1x3d0c3861
 39 41 l 1x3d0c3861
 39 43 l 1
 41 43 l 1x3b0c3861
 41 41 l 1x3d0c3861
44 41 m 1x3d0c3c61
 42 41 l 1x3d0c3c61
 42 43 l 1
 43 43 l 1x3b0c3a61
 43 42 l 1x3d0c3a61
 44 42 l 1
 44 41 l 1x3d0c3c61
49 37 m 1
 47 37 l 1
 47 39 l 1
 49 39 l 1
 49 37 l 1
46 41 m 1x3d0c38e1
 45 41 l 1x3d0c38e1
 45 42 l 1x3b0c38e1
 44 42 l 1x3d0c3ce1
 44 43 l 1
 46 43 l 1x3b0c3961
 46 41 l 1x3d0c38e1
49 41 m 1
 47 41 l 1x3d0c3861
 47 43 l 1
 49 43 l 1x3b0c3861
 49 41 l 1
55 29 m 1
 53 29 l 1
 53 31 l 1
 55 31 l 1
 55 29 l 1
55 33 m 1
 53 33 l 1
 53 35 l 1
 55 35 l 1
 55 33 l 1
63 29 m 1
 61 29 l 1
 61 31 l 1
 63 31 l 1
 63 29 l 1
63 33 m 1
 61 33 l 1
 61 35 l 1
 63 35 l 1
 63 33 l 1
55 37 m 1
 53 37 l 1
 53 39 l 1
 55 39 l 1
 55 37 l 1
55 41 m 1
 53 41 l 1x3d0c3861
 53 43 l 1
 55 43 l 1x3b0c3861
 55 41 l 1
58 41 m 1x3d0c3871
 56 41 l 1x3d0c3871
 56 43 l 1
 57 43 l 1x3b0c3869
 57 42 l 1x3d0c3869
 58 42 l 1
 58 41 l 1x3d0c3871
60 41 m 1x3d0c3863
 59 41 l 1x3d0c3863
 59 42 l 1x3b0c3863
 58 42 l 1x3d0c3873
 58 43 l 1
 60 43 l 1x3b0c3865
 60 41 l 1x3d0c3863
63 37 m 1
 61 37 l 1
 61 39 l 1
 63 39 l 1
 63 37 l 1
63 41 m 1
 61 41 l 1x3d0c3861
 61 43 l 1
 63 43 l 1x3b0c3861
 63 41 l 1
EndSplineSet
Ligature2: "'liga' Standard Ligatures in Latin lookup 0-1" zero zero zero zero zero three one
LCarets2: 1 0
EndChar

